<?xml version="1.0" encoding="utf-8"?>
<!-- Generator: Adobe Illustrator 19.1.1, SVG Export Plug-In . SVG Version: 6.00 Build 0)  -->
<svg version="1.1" id="Layer_1" xmlns="http://www.w3.org/2000/svg" xmlns:xlink="http://www.w3.org/1999/xlink" x="0px" y="0px"
	 viewBox="0 0 360 260.5" style="enable-background:new 0 0 360 260.5;" xml:space="preserve">
<style type="text/css">
	.st0{fill:#FCB017;}
	.st1{fill:#FFFFFF;}
</style>
<g>
	<path class="st0" d="M325.2,212.7l-14.6,0.2v-70.3l15-1.8c11.9-1.2,15.9,8.5,15.9,16l0.2,38C341.7,204.3,337,212.5,325.2,212.7
		 M326,127.6l-29.2,3.9l0.4,94h30.7c16-0.1,27-10.2,27-35l0.2-29.9C355,135.9,343.2,125.4,326,127.6"/>
</g>
<polygon class="st0" points="140.5,215.5 140.5,193.2 157.6,192.3 157.6,183.1 140.5,184.2 140.5,162.6 163.8,159.8 163.8,149.2 
	130.3,153.6 130.3,225.6 164.4,225.6 164.4,215.1 "/>
<polygon class="st0" points="259.9,213.7 259.9,187.5 278.8,186.6 278.8,175.4 259.9,176.6 259.9,148.5 288.5,145.2 288.5,132.6 
	247.4,138.1 247.4,225.5 289.9,225.5 289.9,213.2 "/>
<g>
	<path class="st0" d="M114.4,202.5c0,6.9-3.1,13.4-10.4,13.5l-7.7,0.1v-48.4l8.6-1c7.8-0.9,9.4,7.4,9.4,12.8V202.5z M105.6,157
		l-18.9,2.5l0,66.1l18.8,0c10.4,0,18.7-7.4,18.7-25.2v-20C124.3,162.6,116.4,155.6,105.6,157"/>
	<path class="st0" d="M26.1,186c0,3.2-1.5,5.4-3.8,5.6l-9.2,0.7v-14.7l10.5-1.2c1.6-0.2,2.5,1.3,2.5,2.8V186z M26.1,214.4
		c0,1.5-0.8,2.8-2.3,2.8L13,217.4v-17.5l9.2-0.5c2.3-0.2,3.8,1.8,3.8,5V214.4z M34.3,184.4l0-8c0-5.6-2.5-9.7-8.3-8.8l-21.1,2.8
		v55.3h21.7c5.8,0,7.8-4.5,7.8-10.1l0-11.5c0-4.2-2-8.2-6.2-8.8V195C32.1,193.5,34.3,188.2,34.3,184.4"/>
</g>
<polygon class="st0" points="49.1,216.8 49.1,197.8 62,197.1 62,188.8 49.1,189.7 49.1,173.3 69.1,170.9 69.1,161.8 40.2,165.7 
	40.2,225.7 70.1,225.7 70.1,216.5 "/>
<g>
	<path class="st0" d="M13.4,118c0,2.7,0,4.4,2,4.3l10-0.6c6.4-0.4,7.8,2.3,7.8,8.8v12.7c0,5.2-2.8,10-8.1,10.9l-12.9,2.1
		c-5.4,1-7.1-2.6-7.1-7.5v-6.6l7.9-1.6v4.5c0,1.3,0.8,2.7,1.8,2.5l8.6-1.5c1-0.2,1.8-1.9,1.8-3.3l0-7.9c0-2.4-0.1-5.1-3.3-4.9
		l-9.7,0.8c-5.3,0.2-7.2-5.4-7.2-7.7v-10.8c0-4.9,1.8-9.5,7.2-11.3l13.7-3.8c5.4-1.7,7.3,2.1,7.3,7.3v7l-7.9,1.9V108
		c0-1.4-0.8-2.3-1.8-2l-8.3,2.2c-1,0.3-1.8,1.7-1.8,3V118z"/>
</g>
<polygon class="st0" points="61.1,110.3 61,87.2 69.7,84.8 69.7,146.8 61,148.2 61.1,118.8 48,121.7 48,150.4 39,151.9 39,93.4 
	48,90.9 48,113.3 "/>
<path class="st0" d="M90.9,93.5L90.9,93.5L87.2,119l8.3-1.9L90.9,93.5z M97.7,125.4l-11.8,2.5l-2.7,16.7l-9,1.5L86,80.2l9.8-2.7
	l15.3,62.5l-9.5,1.6L97.7,125.4z"/>
<polygon class="st0" points="115.7,139.2 115.7,71.9 125.7,69.1 125.7,128.2 143.9,125 143.9,134.6 "/>
<polygon class="st0" points="148.5,133.8 148.5,62.7 158.8,59.8 158.8,122.5 176.8,119.3 176.8,129.1 "/>
<g>
	<path class="st0" d="M283.1,36.7l-16,4.3c-1.9,0.5-3.5,2.7-3.5,4.9v52.3c0,2.7,2.3,4.8,5.3,4.3l15.4-2.7c2.1-0.4,4.3-2.4,4.3-5v-54
		C288.5,38,285.8,36,283.1,36.7 M300.6,94.9c0,8-4.1,14.7-11.4,15.7l-23.6,3.9c-7.3,1.2-13.4-5-13.4-12.6V46.2
		c0-7.6,2.8-13.5,10.1-15.5l21.6-6.1c7.4-2.1,16.7,4.8,16.7,12.8V94.9z"/>
</g>
<polygon class="st0" points="356.4,4.2 304.7,18.8 304.7,30.9 323.3,26 323.6,104.9 337.1,102.7 337.1,22.3 356.4,17.1 "/>
<polygon class="st0" points="185.5,146.4 206.6,204.7 207,204.7 206.8,143.5 218,142 218,225.6 203.2,225.6 181.7,167.9 181.4,168 
	181.5,225.6 171.1,225.6 171.1,148.3 "/>
<polygon class="st0" points="211,45.1 231.5,97.3 231.9,97.2 231.9,39.2 243.7,35.9 243.7,118.1 229.1,120.5 207.2,65.4 206.7,65.6 
	206.7,124.2 195.9,126 195.9,49.4 "/>
<polygon class="st0" points="238.3,225.6 226.5,225.6 226.5,140.9 238.3,139.3 "/>
<polygon class="st1" points="22.5,244 19.2,251.4 16.2,244 13.9,244 10.8,251.4 7.5,244 4.5,244 9.6,255.9 11.5,255.9 14.8,248.2 
	18,255.9 20.2,255.9 25.3,244 "/>
<g>
	<path class="st1" d="M35.5,253.8c-2.6,0-4.8-1.7-4.8-3.9s2.2-3.9,4.8-3.9c2.6,0,4.8,1.7,4.8,3.9S38.1,253.8,35.5,253.8 M35.5,243.8
		c-5.2,0-7.7,3.3-7.7,6.1c0,2.9,2.5,6.1,7.7,6.1c5.2,0,7.7-3.3,7.7-6.1C43.2,247,40.7,243.8,35.5,243.8"/>
</g>
<polygon class="st1" points="59.1,244 55,249.7 51.1,244 47.1,244 47.1,255.9 49.8,255.9 49.8,252 49.7,247.3 49.8,247.3 
	54.9,254.3 60,247.4 60.1,247.4 60,252 60,255.9 62.7,255.9 62.7,244 "/>
<polygon class="st1" points="69.9,244 68.9,244 67,244 67,255.9 68.9,255.9 69.9,255.9 78.7,255.9 78.7,253.6 69.9,253.6 
	69.9,250.6 77,250.6 77,248.4 69.9,248.4 69.9,246.2 78.7,246.2 78.7,244 "/>
<polygon class="st1" points="92.7,244 92.7,246.4 92.8,251 92.7,251 85.9,244 82.5,244 82.5,255.9 85.3,255.9 85.3,252 85.2,247.3 
	85.3,247.3 93.3,255.9 95.5,255.9 95.5,244 "/>
<polygon class="st1" points="107.9,244 106.9,244 105,244 105,255.9 107.9,255.9 107.9,250.6 114.5,250.6 114.5,248.4 107.9,248.4 
	107.9,246.2 116.1,246.2 116.1,244 "/>
<rect x="119.5" y="244" class="st1" width="2.9" height="11.9"/>
<g>
	<path class="st1" d="M133.6,251h4.2c-0.4,1.7-2.2,2.8-4.2,2.8c-2.4,0-4.5-1.7-4.5-3.9c0-2.1,2.2-3.9,4.8-3.9c1.6,0,2.7,0.6,3.7,1.7
		l1.6-2.3c-1.4-1-3-1.6-5.4-1.6c-5.2,0-7.7,3.3-7.7,6.1c0,2.9,2.5,6.1,7.4,6.1c4.3,0,6.9-3,6.9-6.2v-0.3v-0.3v-0.3h-6.9V251z"/>
</g>
<polygon class="st1" points="154.5,244 154.5,247.5 147.3,247.5 147.3,244 144.4,244 144.4,255.9 147.3,255.9 147.3,249.8 
	154.5,249.8 154.5,255.9 157.4,255.9 157.4,244 "/>
<polygon class="st1" points="168.3,244 165.4,244 160.7,244 160.7,246.2 165.4,246.2 165.4,255.9 168.3,255.9 168.3,246.2 
	172.9,246.2 172.9,244 "/>
<polygon class="st1" points="185.1,244 184.1,244 182.2,244 182.2,255.9 185.1,255.9 185.1,250.6 191.7,250.6 191.7,248.4 
	185.1,248.4 185.1,246.2 193.4,246.2 193.4,244 "/>
<g>
	<path class="st1" d="M203.8,253.8c-2.6,0-4.8-1.7-4.8-3.9s2.2-3.9,4.8-3.9c2.6,0,4.8,1.7,4.8,3.9S206.4,253.8,203.8,253.8
		 M203.8,243.8c-5.2,0-7.7,3.3-7.7,6.1c0,2.9,2.5,6.1,7.7,6.1c5.2,0,7.7-3.3,7.7-6.1C211.5,247,209,243.8,203.8,243.8"/>
	<path class="st1" d="M221.2,249.6l-3,0v-3.4c0.6,0,2.2-0.1,3-0.1c2.6,0,4,0.7,4,1.7C225.2,248.9,223.8,249.6,221.2,249.6
		 M227.9,247.8c0-2.1-1.8-4-6.7-4c-2.6,0-4.7,0.1-5.9,0.3v6.1v1.5v4.2h2.9v-4.1l2.9,0c0.1,0,0.2,0,0.3,0c0.8,1.5,1.7,2.8,3,4.5
		l2.8-1c-1.4-1.7-2.2-2.8-2.9-4C226.5,250.6,227.9,249.2,227.9,247.8"/>
</g>
<polygon class="st1" points="244.5,244 241.6,244 237,244 237,246.2 241.6,246.2 241.6,255.9 244.5,255.9 244.5,246.2 249.2,246.2 
	249.2,244 "/>
<polygon class="st1" points="262.6,244 262.6,247.5 255.4,247.5 255.4,244 252.5,244 252.5,255.9 255.4,255.9 255.4,249.8 
	262.6,249.8 262.6,255.9 265.5,255.9 265.5,244 "/>
<polygon class="st1" points="272.6,244 271.6,244 269.8,244 269.8,255.9 271.6,255.9 272.6,255.9 281.4,255.9 281.4,253.6 
	272.6,253.6 272.6,250.6 279.7,250.6 279.7,248.4 272.6,248.4 272.6,246.2 281.4,246.2 281.4,244 "/>
<polygon class="st1" points="301.9,244 297.7,253.2 293.6,244 290.6,244 295.9,255.9 296.5,255.9 298.9,255.9 299.2,255.9 
	304.8,244 "/>
<g>
	<path class="st1" d="M314.8,253.8c-2.6,0-4.8-1.7-4.8-3.9s2.2-3.9,4.8-3.9c2.6,0,4.8,1.7,4.8,3.9S317.5,253.8,314.8,253.8
		 M314.8,243.8c-5.2,0-7.7,3.3-7.7,6.1c0,2.9,2.5,6.1,7.7,6.1c5.2,0,7.7-3.3,7.7-6.1C322.6,247,320.1,243.8,314.8,243.8"/>
</g>
<polygon class="st1" points="332.8,244 329.9,244 325.2,244 325.2,246.2 329.9,246.2 329.9,255.9 332.8,255.9 332.8,246.2 
	337.4,246.2 337.4,244 "/>
<polygon class="st1" points="343.6,244 342.6,244 340.8,244 340.8,255.9 342.6,255.9 343.6,255.9 352.4,255.9 352.4,253.6 
	343.6,253.6 343.6,250.6 350.7,250.6 350.7,248.4 343.6,248.4 343.6,246.2 352.4,246.2 352.4,244 "/>
</svg>
