<svg id="ask-librarian" xmlns="http://www.w3.org/2000/svg" viewBox="0 0 254 172"><defs><style>.cls-1{fill:#0076ad;stroke:#0076ad;stroke-miterlimit:10;stroke-width:0.5px;}.cls-2{fill:#f05129;}</style></defs><path class="cls-1" d="M26,83.11l-1.57-6H14.07l-1.61,6H3l10.41-32H24.9l10.54,32Zm-3.36-13-1.37-5.24c-.32-1.16-.71-2.67-1.17-4.51s-.76-3.18-.91-4c-.13.75-.39,2-.77,3.67s-1.24,5.06-2.57,10.06Z"/><path class="cls-1" d="M57.49,75.52a7,7,0,0,1-2.71,6q-2.72,2-7.77,2a34.8,34.8,0,0,1-4.78-.29,20.85,20.85,0,0,1-4.15-1.08V75.34a24.5,24.5,0,0,0,4.36,1.44,18.17,18.17,0,0,0,4.22.57c1.85,0,2.77-.42,2.77-1.26a1.44,1.44,0,0,0-.77-1.17,35.83,35.83,0,0,0-4.51-2,11.26,11.26,0,0,1-4.76-3.17A7.26,7.26,0,0,1,38,65.24a6.25,6.25,0,0,1,2.66-5.37Q43.37,58,48.23,58a19.4,19.4,0,0,1,4.6.53A28,28,0,0,1,57.29,60L55,65.54a26.51,26.51,0,0,0-3.61-1.29,11.84,11.84,0,0,0-3.1-.54c-1.39,0-2.09.34-2.09,1a1.28,1.28,0,0,0,.73,1.08,40.86,40.86,0,0,0,4.22,1.82A15.77,15.77,0,0,1,55,69.74a6.31,6.31,0,0,1,1.88,2.41A8.43,8.43,0,0,1,57.49,75.52Z"/><path class="cls-1" d="M70.49,69.21q1.56-2.46,2.64-3.84l5.55-7h9.51L79.62,68.91l9.12,14.2H79l-5.41-8.86L70.8,76.37v6.74H62.22v-34H70.8V62.51a46,46,0,0,1-.48,6.7Z"/><path class="cls-1" d="M22.06,135.26,20.42,132h-.17a9.64,9.64,0,0,1-3.51,2.92,11.54,11.54,0,0,1-4.63.79,7.28,7.28,0,0,1-5.5-2.09,8.19,8.19,0,0,1-2-5.9,6.71,6.71,0,0,1,2.75-5.88q2.74-1.93,8-2.17l4.12-.13v-.35q0-3.06-3-3.06A17.86,17.86,0,0,0,9.56,118l-2.47-5.64A23.77,23.77,0,0,1,18,110.1c3.17,0,5.63.78,7.37,2.36A8.41,8.41,0,0,1,28,119.05v16.21Zm-6.33-5.58a3.81,3.81,0,0,0,2.65-1,3.23,3.23,0,0,0,1.11-2.55v-1.92l-2,.09q-4.21.15-4.21,3.1C13.31,128.92,14.12,129.68,15.73,129.68Z"/><path class="cls-1" d="M45.9,135.26V103.35h8.62v25H66.8v7Z"/><path class="cls-1" d="M71.24,104.38a3.59,3.59,0,0,1,1.07-2.86,5.18,5.18,0,0,1,3.44-.94,5.16,5.16,0,0,1,3.47,1,3.58,3.58,0,0,1,1.1,2.84c0,2.5-1.53,3.75-4.57,3.75S71.24,106.88,71.24,104.38ZM80,135.26H71.45V110.54H80Z"/><path class="cls-1" d="M101.05,110.1a7.45,7.45,0,0,1,6.41,3.38q2.36,3.39,2.36,9.36c0,4-.79,7.17-2.39,9.44a7.64,7.64,0,0,1-6.64,3.42,9.57,9.57,0,0,1-2.45-.29,7.34,7.34,0,0,1-1.91-.82,9.85,9.85,0,0,1-2-1.75H94l-1.36,2.42H86v-34h8.53V109c0,.91-.1,2.49-.31,4.73h.31a7.27,7.27,0,0,1,6.57-3.62Zm-3.12,6.7A2.92,2.92,0,0,0,95.31,118a7.22,7.22,0,0,0-.83,3.91v1.2a8.56,8.56,0,0,0,.83,4.35A2.93,2.93,0,0,0,98,128.83a2.53,2.53,0,0,0,2.31-1.54,10,10,0,0,0,.81-4.53Q101.14,116.81,97.93,116.8Z"/><path class="cls-1" d="M129.62,110.1a13.1,13.1,0,0,1,2.12.17l.48.09-.77,8a12.8,12.8,0,0,0-2.9-.26,5.54,5.54,0,0,0-4.06,1.28,5,5,0,0,0-1.26,3.68v12.15h-8.54V110.54H121l1.33,3.95h.42a8.5,8.5,0,0,1,3-3.18A7.11,7.11,0,0,1,129.62,110.1Z"/><path class="cls-1" d="M151.79,135.26,150.16,132H150a9.64,9.64,0,0,1-3.51,2.92,11.5,11.5,0,0,1-4.63.79,7.28,7.28,0,0,1-5.5-2.09,8.19,8.19,0,0,1-2-5.9,6.71,6.71,0,0,1,2.75-5.88c1.84-1.29,4.49-2,8-2.17l4.13-.13v-.35q0-3.06-3-3.06a17.9,17.9,0,0,0-6.87,1.84l-2.47-5.64a23.79,23.79,0,0,1,10.92-2.22c3.17,0,5.62.78,7.36,2.36a8.41,8.41,0,0,1,2.61,6.59v16.21Zm-6.32-5.58a3.84,3.84,0,0,0,2.65-1,3.26,3.26,0,0,0,1.1-2.55v-1.92l-2,.09q-4.22.15-4.22,3.1C143,128.92,143.85,129.68,145.47,129.68Z"/><path class="cls-1" d="M178.44,110.1a13.1,13.1,0,0,1,2.12.17l.48.09-.76,8a12.9,12.9,0,0,0-2.91-.26,5.55,5.55,0,0,0-4.06,1.28,5,5,0,0,0-1.26,3.68v12.15h-8.54V110.54h6.36l1.33,3.95h.41a8.58,8.58,0,0,1,3-3.18A7.11,7.11,0,0,1,178.44,110.1Z"/><path class="cls-1" d="M184.31,104.38a3.62,3.62,0,0,1,1.07-2.86,5.23,5.23,0,0,1,3.45-.94,5.18,5.18,0,0,1,3.47,1,3.58,3.58,0,0,1,1.09,2.84q0,3.75-4.56,3.75T184.31,104.38Zm8.76,30.88h-8.54V110.54h8.54Z"/><path class="cls-1" d="M215.15,135.26,213.52,132h-.18a9.64,9.64,0,0,1-3.51,2.92,11.5,11.5,0,0,1-4.63.79,7.28,7.28,0,0,1-5.5-2.09,8.19,8.19,0,0,1-2-5.9,6.71,6.71,0,0,1,2.75-5.88c1.84-1.29,4.49-2,8-2.17l4.13-.13v-.35q0-3.06-3-3.06a17.9,17.9,0,0,0-6.87,1.84l-2.47-5.64a23.77,23.77,0,0,1,10.91-2.22c3.18,0,5.63.78,7.37,2.36a8.41,8.41,0,0,1,2.61,6.59v16.21Zm-6.33-5.58a3.85,3.85,0,0,0,2.66-1,3.26,3.26,0,0,0,1.1-2.55v-1.92l-2,.09c-2.8.1-4.21,1.13-4.21,3.1C206.4,128.92,207.21,129.68,208.82,129.68Z"/><path class="cls-1" d="M242.48,135.26V121.78a7.8,7.8,0,0,0-.71-3.73,2.43,2.43,0,0,0-2.28-1.25,3.3,3.3,0,0,0-3.12,1.72q-1,1.73-1,5.92v10.82h-8.54V110.54h6.44l1.07,3h.5a6.79,6.79,0,0,1,3-2.62,10.73,10.73,0,0,1,4.44-.87,8.41,8.41,0,0,1,6.38,2.38,9.28,9.28,0,0,1,2.28,6.7v16.08Z"/><path class="cls-2" d="M136.31,84.41a56.89,56.89,0,0,1-5.9-.33,44.74,44.74,0,0,1-18.73,9.85,32.29,32.29,0,0,1-4.64.9,1.87,1.87,0,0,1-2-1.55v0c-.21-1,.48-1.63,1.09-2.36,2.57-2.89,5.5-5.33,7.41-12.13C105.21,74,99.83,66.62,99.83,58.35c0-14.37,16.33-26.05,36.48-26.05s36.48,11.64,36.48,26.05S156.46,84.41,136.31,84.41Z"/></svg>