<svg xmlns="http://www.w3.org/2000/svg" xmlns:xlink="http://www.w3.org/1999/xlink" width="33" height="56" version="1.1" viewBox="0 0 33 56"><title>left arrow</title><desc>Created with Sketch.</desc><g id="Home-Page-Carousel" fill="none" fill-rule="evenodd" stroke="none" stroke-width="1"><g id="Carousel-Home-1200px" fill="#FFF" stroke="gray" transform="translate(-23.000000, -359.000000)"><path id="left-arrow" d="M54.9464686,364.85708 C54.9464686,365.285651 54.7321826,365.767795 54.4107537,366.089224 L33.3571572,387.14282 L54.4107537,408.196417 C54.7321826,408.517846 54.9464686,408.999989 54.9464686,409.428561 C54.9464686,409.857133 54.7321826,410.339277 54.4107537,410.660706 L51.7321791,413.33928 C51.4107501,413.660709 50.9286067,413.874995 50.5000347,413.874995 C50.0714628,413.874995 49.5893194,413.660709 49.2678904,413.33928 L24.3035749,388.374965 C23.982146,388.053536 23.76786,387.571392 23.76786,387.14282 C23.76786,386.714248 23.982146,386.232105 24.3035749,385.910676 L49.2678904,360.946361 C49.5893194,360.624932 50.0714628,360.410646 50.5000347,360.410646 C50.9286067,360.410646 51.4107501,360.624932 51.7321791,360.946361 L54.4107537,363.624935 C54.7321826,363.946364 54.9464686,364.374936 54.9464686,364.85708 Z"/></g></g></svg>