<?xml version="1.0" encoding="UTF-8"?>
<svg width="1170px" height="149px" viewBox="0 0 1170 149" version="1.1" xmlns="http://www.w3.org/2000/svg" xmlns:xlink="http://www.w3.org/1999/xlink">
    <!-- Generator: Sketch 60 (88103) - https://sketch.com -->
    <title>IGNITETHEPOWEROFIDEAS!</title>
    <desc>Created with Sketch.</desc>
    <g id="Donate-Form---New-Branding" stroke="none" stroke-width="1" fill="none" fill-rule="evenodd">
        <path d="M24.9573379,146.749147 L24.9573379,0.998293515 L0,0.998293515 L0,146.749147 L24.9573379,146.749147 Z M48.888458,148.745734 C57.0982004,148.745734 62.375892,143.251168 65.698883,138.149072 C66.4807633,139.915182 67.8490537,145.213513 68.2399938,147.372092 L84.8549488,147.372092 L84.8549488,61.4213914 L56.3163202,61.4213914 L56.3163202,80.4561357 L61.3985417,80.4561357 L61.3985417,124.02019 C61.3985417,126.963707 60.0302513,128.533583 57.8800807,128.533583 C55.53444,128.533583 54.3616196,126.963707 54.3616196,124.02019 L54.3616196,24.3330752 C54.3616196,21.9782615 54.9480298,20.6046201 57.0982004,20.6046201 C59.4438411,20.6046201 60.0302513,21.9782615 60.0302513,24.3330752 L60.0302513,56.1230605 L83.8775985,56.1230605 L83.8775985,23.3519028 C83.8775985,11.5778342 78.4044369,0 58.4664908,0 L55.1434998,0 C35.5964939,0 28.9505119,11.5778342 28.9505119,25.3142476 L28.9505119,124.608893 C28.9505119,137.560369 35.2055538,148.745734 48.3020478,148.745734 L48.888458,148.745734 Z M108.561755,146.749147 L108.36636,59.3769955 L119.894696,146.749147 L142.755973,146.749147 L142.755973,0.998293515 L122.239442,0.998293515 L122.434838,79.9466724 L112.860457,0.998293515 L87.8498294,0.998293515 L87.8498294,146.749147 L108.561755,146.749147 Z M171.706485,146.749147 L171.706485,0.998293515 L146.749147,0.998293515 L146.749147,146.749147 L171.706485,146.749147 Z M210.431084,146.749147 L210.431084,23.3310855 L221.62116,23.3310855 L221.62116,0.998293515 L174.701365,0.998293515 L174.701365,23.3310855 L185.891442,23.3310855 L185.891442,146.749147 L210.431084,146.749147 Z M267.542662,146.749147 L267.542662,124.024551 L249.145539,124.024551 L249.145539,81.9056892 L264.179747,81.9056892 L264.179747,58.7892904 L249.145539,58.7892904 L249.145539,23.3310855 L266.949207,23.3310855 L266.949207,0.998293515 L224.616041,0.998293515 L224.616041,146.749147 L267.542662,146.749147 Z M321.241664,146.749147 L321.241664,23.3310855 L332.431741,23.3310855 L332.431741,0.998293515 L285.511945,0.998293515 L285.511945,23.3310855 L296.702022,23.3310855 L296.702022,146.749147 L321.241664,146.749147 Z M360.330479,146.749147 L360.330479,83.277001 L365.625,83.277001 L365.625,146.749147 L390.332765,146.749147 L390.332765,0.998293515 L365.625,0.998293515 L365.625,57.6138803 L360.330479,57.6138803 L360.330479,0.998293515 L335.426621,0.998293515 L335.426621,146.749147 L360.330479,146.749147 Z M437.25256,146.749147 L437.25256,124.024551 L418.855436,124.024551 L418.855436,81.9056892 L433.889645,81.9056892 L433.889645,58.7892904 L418.855436,58.7892904 L418.855436,23.3310855 L436.659104,23.3310855 L436.659104,0.998293515 L394.325939,0.998293515 L394.325939,146.749147 L437.25256,146.749147 Z M479.92144,146.749147 L479.92144,86.4114279 L491.683152,86.4114279 C501.288551,86.4114279 509.129693,79.9466724 509.129693,67.0171612 L509.129693,20.0007569 C509.129693,6.48354068 501.680608,0.998293515 491.291095,0.998293515 L455.221843,0.998293515 L455.221843,146.749147 L479.92144,146.749147 Z M482.050981,66.8856655 L480.179181,66.8856655 L480.179181,19.9658703 L482.050981,19.9658703 C484.754693,19.9658703 485.170648,21.3400903 485.170648,23.6958959 L485.170648,63.15564 C485.170648,65.9040799 484.338737,66.8856655 482.050981,66.8856655 Z M542.734318,148.745734 C558.824056,148.745734 569.027304,138.737775 569.027304,120.487969 L569.027304,28.8464682 C569.027304,11.3815997 560.982435,0 542.538102,0 L538.613775,0 C520.169442,0 512.124573,10.9891307 512.124573,28.8464682 L512.124573,120.487969 C512.124573,138.345306 521.542956,148.745734 538.613775,148.745734 L542.734318,148.745734 Z M540.971814,126.783276 C538.906379,126.783276 538.080205,125.409221 538.080205,122.857403 L538.080205,26.2809181 C538.080205,23.336513 538.699835,21.9624573 540.971814,21.9624573 C543.243792,21.9624573 544.069966,23.5328067 544.069966,26.2809181 L544.069966,122.857403 C544.069966,125.409221 543.037248,126.783276 540.971814,126.783276 Z M610.517192,146.749147 L613.842588,63.6868325 L616.972373,146.749147 L644.944828,146.749147 L656.877133,0.998293515 L633.012522,0.998293515 L630.078348,96.7942172 L625.774894,0.998293515 L602.692729,0.998293515 L598.584886,96.2065122 L595.650713,0.998293515 L570.025597,0.998293515 L581.957903,146.749147 L610.517192,146.749147 Z M700.802048,146.749147 L700.802048,124.024551 L682.404924,124.024551 L682.404924,81.9056892 L697.439133,81.9056892 L697.439133,58.7892904 L682.404924,58.7892904 L682.404924,23.3310855 L700.208592,23.3310855 L700.208592,0.998293515 L657.875427,0.998293515 L657.875427,146.749147 L700.802048,146.749147 Z M728.796448,146.749147 L728.796448,82.6892959 L730.764914,82.6892959 C733.127073,82.6892959 733.520766,84.0606077 733.520766,86.0196246 L733.520766,140.676195 C733.520766,143.222916 734.111306,145.573737 735.095539,146.749147 L759.701365,146.749147 L759.701365,146.161442 C758.913979,144.79013 758.520286,142.43931 758.520286,139.696686 L758.520286,81.9056892 C758.520286,74.4614252 753.402274,70.1515881 749.268495,68.388473 C753.402274,66.6253578 758.126592,62.5114224 758.126592,52.7163382 L758.126592,18.4335434 C758.126592,6.48354068 751.236961,0.998293515 742.57571,0.998293515 L703.796928,0.998293515 L703.796928,146.749147 L728.796448,146.749147 Z M730.834044,62.8924915 L728.754266,62.8924915 L728.754266,19.9658703 L731.042022,19.9658703 C733.329778,19.9658703 733.745734,20.954963 733.745734,23.3287853 L733.745734,59.5295764 C733.745734,61.7055803 732.913823,62.8924915 730.834044,62.8924915 Z M808.280393,148.745734 C824.370131,148.745734 834.573379,138.737775 834.573379,120.487969 L834.573379,28.8464682 C834.573379,11.3815997 826.52851,0 808.084177,0 L804.159851,0 C785.715517,0 777.670648,10.9891307 777.670648,28.8464682 L777.670648,120.487969 C777.670648,138.345306 787.089031,148.745734 804.159851,148.745734 L808.280393,148.745734 Z M805.519595,126.783276 C803.45416,126.783276 802.627986,125.409221 802.627986,122.857403 L802.627986,26.2809181 C802.627986,23.336513 803.247617,21.9624573 805.519595,21.9624573 C807.791573,21.9624573 808.617747,23.5328067 808.617747,26.2809181 L808.617747,122.857403 C808.617747,125.409221 807.58503,126.783276 805.519595,126.783276 Z M862.092376,146.749147 L862.092376,81.9056892 L876.727735,81.9056892 L876.52996,58.9851921 L862.092376,58.9851921 L862.092376,23.3310855 L879.496587,23.3310855 L879.496587,0.998293515 L837.568259,0.998293515 L837.568259,146.749147 L862.092376,146.749147 Z M922.423208,146.749147 L922.423208,0.998293515 L897.46587,0.998293515 L897.46587,146.749147 L922.423208,146.749147 Z M962.430089,146.749147 C973.253881,146.749147 981.322526,139.892588 981.322526,124.612256 L981.322526,21.9597738 C981.322526,6.48354068 972.860288,0.998293515 962.036497,0.998293515 L926.416382,0.998293515 L926.416382,146.749147 L962.430089,146.749147 Z M953.59215,126.783276 L951.37372,126.783276 L951.37372,20.9641638 L953.59215,20.9641638 C955.81058,20.9641638 956.365188,22.5406124 956.365188,25.4964536 L956.365188,121.856875 C956.365188,125.206828 955.81058,126.783276 953.59215,126.783276 Z M1027.24403,146.749147 L1027.24403,124.024551 L1008.8469,124.024551 L1008.8469,81.9056892 L1023.88111,81.9056892 L1023.88111,58.7892904 L1008.8469,58.7892904 L1008.8469,23.3310855 L1026.65057,23.3310855 L1026.65057,0.998293515 L984.317406,0.998293515 L984.317406,146.749147 L1027.24403,146.749147 Z M1049.7039,146.749147 L1051.08217,120.498321 L1059.54867,120.498321 L1060.92693,146.749147 L1085.14505,146.749147 L1071.95307,0.998293515 L1040.44983,0.998293515 L1028.24232,146.749147 L1049.7039,146.749147 Z M1059.18942,99.8293515 L1053.19966,99.8293515 L1056.19454,43.9249147 L1059.18942,99.8293515 Z M1116.26088,148.745734 C1134.17392,148.745734 1142.04778,138.345306 1142.04778,122.842783 L1142.04778,93.8000801 C1142.04778,81.0448391 1138.50454,74.3728669 1128.46537,66.1310188 L1115.86718,55.1418881 C1112.71764,52.3946054 1111.93025,50.8247296 1111.93025,46.9000401 L1111.93025,21.9782615 C1111.93025,19.8196822 1112.71764,18.8385098 1114.48926,18.8385098 C1116.26088,18.8385098 1117.04826,19.8196822 1117.04826,21.9782615 L1117.04826,52.9833089 L1141.06355,52.9833089 L1141.06355,20.8008546 C1141.06355,9.02678596 1135.355,0 1117.44196,0 L1111.7334,0 C1094.01721,0 1086.73388,9.22302043 1086.73388,22.7631994 L1086.73388,48.6661504 C1086.73388,59.6552811 1090.27712,67.7008947 1098.74153,74.7653358 L1111.53656,85.7544666 C1115.27664,89.0904527 1115.86718,91.0527975 1115.86718,95.7624249 L1115.86718,124.216424 C1115.86718,126.767472 1115.27664,128.337348 1113.11133,128.337348 C1111.14286,128.337348 1110.55232,126.767472 1110.55232,124.412659 L1110.55232,87.9130458 L1086.14334,87.9130458 L1086.14334,126.178769 C1086.14334,141.092589 1094.21406,148.745734 1110.55232,148.745734 L1116.26088,148.745734 Z M1163.65969,118.796928 C1164.05596,97.3252708 1169.80187,10.059727 1170,0.998293515 L1144.04437,0.998293515 C1144.04437,10.059727 1149.79027,97.3252708 1150.18654,118.796928 L1163.65969,118.796928 Z M1168.00341,146.749147 L1168.00341,121.791809 L1147.03925,121.791809 L1147.03925,146.749147 L1168.00341,146.749147 Z" id="IGNITETHEPOWEROFIDEAS!" fill="#F05129" fill-rule="nonzero"></path>
    </g>
</svg>