<svg xmlns="http://www.w3.org/2000/svg" xmlns:xlink="http://www.w3.org/1999/xlink" width="240" height="60" version="1.1" viewBox="0 0 240 60"><title>Group 6</title><desc>Created with Sketch.</desc><g id="New-Identity-Case-Studies" fill="none" fill-rule="evenodd" stroke="none" stroke-width="1"><g id="Donate-Form---New-Logo" transform="translate(-103.000000, -28.000000)"><g id="Group-6" transform="translate(103.000000, 28.000000)"><g id="Logo"><g id="Group-3"><g id="Group-2" fill-rule="nonzero"><g id="Group" fill="#000"><polygon id="Shape" points="10.334 0 10.406 49.739 16.771 49.739 16.699 59.114 .322 59.114 .322 0"/><polygon id="Shape" points="29.107 59.078 19.023 59.078 19.023 0 29.107 0"/><path id="Shape" d="M31.6460149,0 L46.8790119,0 C50.9196896,0 53.565797,2.07542169 53.565797,7.4786747 L53.565797,20.8257831 C53.565797,24.7977108 50.9554478,26.6226506 49.6681522,27.0162651 C51.2415134,27.4098795 54.3524776,29.163253 54.3524776,33.9224096 L54.3524776,50.1321687 C54.3524776,56.1079518 51.8136448,59.1137349 46.8074955,59.1137349 L31.6460149,59.1137349 L31.6460149,0 Z M41.7298299,7.44289157 L41.7298299,24.296747 L42.444994,24.296747 C43.2316746,24.296747 43.6250149,23.8315663 43.6250149,22.7938554 L43.6250149,8.87421687 C43.6250149,7.83650602 43.4819821,7.44289157 42.444994,7.44289157 L41.7298299,7.44289157 Z M41.7298299,31.596506 L41.7298299,51.3845783 L42.6953015,51.3845783 C43.7322896,51.3845783 43.8753224,50.9193976 43.8753224,49.8816867 L43.8753224,33.206747 C43.8753224,32.0259036 43.6250149,31.6322892 42.6953015,31.6322892 L41.7298299,31.6322892 L41.7298299,31.596506 Z"/><path id="Shape" d="M66.6533015,59.0779518 L56.5694866,59.0779518 L56.5694866,0 L72.1958239,0 C75.7001284,0 78.4535104,2.21855422 78.4535104,7.08506024 L78.4535104,21.0046988 C78.4535104,25.0481928 76.5583254,26.6584337 74.8776896,27.3740964 C76.5583254,28.089759 78.5965433,29.7715663 78.5965433,32.8489157 L78.5965433,56.2868675 C78.5965433,57.4677108 78.7395761,58.3622892 79.0614,58.8990361 L79.0614,59.1495181 L69.1206179,59.1495181 C68.7272776,58.576988 68.4769701,57.789759 68.4769701,56.6804819 L68.4769701,34.5307229 C68.4769701,33.6719277 68.3339373,33.1709639 67.3684657,33.1709639 L66.5817851,33.1709639 L66.5817851,59.0779518 L66.6533015,59.0779518 Z M66.6533015,24.6903614 L67.4399821,24.6903614 C68.1551463,24.6903614 68.5484866,24.2251807 68.5484866,23.3306024 L68.5484866,8.8026506 C68.5484866,7.83650602 68.4054537,7.44289157 67.5114985,7.44289157 L66.6533015,7.44289157 L66.6533015,24.6903614 Z"/><path id="Shape" d="M93.257409,48.4503614 L89.8603791,48.4503614 L89.2882478,59.1137349 L80.6347612,59.1137349 L85.5336358,0 L98.2278,0 L103.555773,59.1137349 L93.7937821,59.1137349 L93.257409,48.4503614 Z M91.5767731,17.3190361 L90.3967522,39.7908434 L92.7925522,39.7908434 L91.5767731,17.3190361 Z"/><path id="Shape" d="M115.642048,59.0779518 L105.558233,59.0779518 L105.558233,0 L121.220328,0 C124.724633,0 127.478015,2.21855422 127.478015,7.08506024 L127.478015,21.0046988 C127.478015,25.0481928 125.58283,26.6584337 123.902194,27.3740964 C125.58283,28.089759 127.621048,29.7715663 127.621048,32.8489157 L127.621048,56.2868675 C127.621048,57.4677108 127.764081,58.3622892 128.085904,58.8990361 L128.085904,59.1495181 L118.145122,59.1495181 C117.751782,58.576988 117.501475,57.789759 117.501475,56.6804819 L117.501475,34.5307229 C117.501475,33.6719277 117.358442,33.1709639 116.39297,33.1709639 L115.60629,33.1709639 L115.60629,59.0779518 L115.642048,59.0779518 Z M115.642048,24.6903614 L116.428728,24.6903614 C117.143893,24.6903614 117.537233,24.2251807 117.537233,23.3306024 L117.537233,8.8026506 C117.537233,7.83650602 117.3942,7.44289157 116.500245,7.44289157 L115.642048,7.44289157 L115.642048,24.6903614 Z"/><polygon id="Shape" points="134.88 35.819 128.372 0 138.384 0 140.136 20.432 141.853 0 150.828 0 144.857 35.819 144.857 59.114 134.844 59.114 134.844 35.819"/></g><polygon id="Shape" fill="#FC4C02" points="149.505 47.663 149.505 37.93 152.044 37.93 152.044 45.23 156.12 45.23 156.12 47.663 149.505 47.663"/><polygon id="Shape" fill="#FC4C02" points="157.157 47.663 157.157 37.93 159.696 37.93 159.696 47.663"/><path id="Shape" fill="#FC4C02" d="M161.162248,47.6631325 L161.162248,37.9301205 L164.952618,37.9301205 C167.598725,37.9301205 168.742988,38.8246988 168.742988,40.4707229 C168.742988,41.6157831 168.31389,42.2956627 167.562967,42.6892771 C168.456922,43.0471084 168.993296,43.6912048 168.993296,44.8720482 C168.993296,46.696988 167.849033,47.6989157 165.381716,47.6989157 L161.162248,47.6989157 L161.162248,47.6631325 Z M163.593806,39.8624096 L163.593806,41.7231325 L165.059893,41.7231325 C165.91809,41.7231325 166.347188,41.4368675 166.347188,40.756988 C166.347188,40.1486747 165.989606,39.8624096 165.059893,39.8624096 L163.593806,39.8624096 Z M163.593806,43.6196386 L163.593806,45.5519277 L164.91686,45.5519277 C166.096881,45.5519277 166.454463,45.2298795 166.454463,44.5857831 C166.454463,43.9416867 166.061122,43.6196386 164.91686,43.6196386 L163.593806,43.6196386 Z"/><path id="Shape" fill="#FC4C02" d="M172.390325,44.4068675 L172.390325,47.6631325 L169.958767,47.6631325 L169.958767,37.9301205 L173.89217,37.9301205 C176.645552,37.9301205 177.718299,39.146747 177.718299,40.9716867 C177.718299,42.2240964 177.217684,42.9755422 176.323728,43.4049398 C177.110409,43.726988 177.503749,44.4068675 177.503749,45.623494 L177.503749,47.1621687 C177.503749,47.4126506 177.575266,47.5915663 177.718299,47.6989157 L175.179466,47.6989157 C175.036433,47.5915663 174.964916,47.3768675 174.964916,47.1263855 L174.964916,45.6950602 C174.964916,44.7289157 174.607334,44.4426506 173.606104,44.4426506 L172.390325,44.4426506 L172.390325,44.4068675 Z M172.390325,40.0055422 L172.390325,42.2598795 L173.820654,42.2598795 C174.714609,42.2598795 175.179466,41.8304819 175.179466,41.1148193 C175.179466,40.4349398 174.786125,40.0055422 173.820654,40.0055422 L172.390325,40.0055422 Z"/><path id="Shape" fill="#FC4C02" d="M184.369325,45.9455422 L181.115328,45.9455422 L180.578955,47.6631325 L178.075881,47.6631325 L181.47291,37.9301205 L184.011743,37.9301205 L187.444531,47.6631325 L184.941457,47.6631325 L184.369325,45.9455422 Z M182.724448,40.756988 L181.758976,43.9416867 L183.725678,43.9416867 L182.724448,40.756988 Z"/><path id="Shape" fill="#FC4C02" d="M190.555496,44.4068675 L190.555496,47.6631325 L188.088179,47.6631325 L188.088179,37.9301205 L192.021582,37.9301205 C194.774964,37.9301205 195.84771,39.146747 195.84771,40.9716867 C195.84771,42.2240964 195.347096,42.9755422 194.45314,43.4049398 C195.239821,43.726988 195.633161,44.4068675 195.633161,45.623494 L195.633161,47.1621687 C195.633161,47.4126506 195.704678,47.5915663 195.84771,47.6989157 L193.308878,47.6989157 C193.165845,47.5915663 193.094328,47.3768675 193.094328,47.1263855 L193.094328,45.6950602 C193.094328,44.7289157 192.736746,44.4426506 191.735516,44.4426506 L190.555496,44.4426506 L190.555496,44.4068675 Z M190.555496,40.0055422 L190.555496,42.2598795 L191.985824,42.2598795 C192.879779,42.2598795 193.344636,41.8304819 193.344636,41.1148193 C193.344636,40.4349398 192.951296,40.0055422 191.985824,40.0055422 L190.555496,40.0055422 Z"/><polygon id="Shape" fill="#FC4C02" points="199.209 47.663 199.209 43.87 196.205 37.93 198.851 37.93 200.532 41.437 202.284 37.93 204.895 37.93 201.784 43.942 201.784 47.699 199.209 47.699"/><path id="Shape" fill="#FC4C02" d="M149.219006,54.7839759 L149.219006,53.7462651 C149.219006,50.7046988 150.899642,49.1660241 153.438475,49.1660241 C155.905791,49.1660241 157.657943,50.6689157 157.657943,53.7462651 L157.657943,54.7839759 C157.657943,57.8613253 155.941549,59.3284337 153.438475,59.3284337 C150.756609,59.3284337 149.219006,57.8971084 149.219006,54.7839759 Z M155.047594,54.6408434 L155.047594,53.8536145 C155.047594,52.2075904 154.546979,51.3845783 153.438475,51.3845783 C152.294212,51.3845783 151.829355,52.2433735 151.829355,53.8178313 L151.829355,54.6050602 C151.829355,56.2153012 152.294212,57.0383133 153.438475,57.0383133 C154.546979,57.0740964 155.047594,56.2868675 155.047594,54.6408434 Z"/><polygon id="Shape" fill="#FC4C02" points="161.234 55.679 161.234 59.114 158.802 59.114 158.802 49.381 165.382 49.381 165.382 51.599 161.234 51.599 161.234 53.496 165.203 53.496 165.203 55.714 161.234 55.714"/><path id="Shape" fill="#FC4C02" d="M168.921779,54.9271084 L168.921779,53.6746988 C168.921779,50.6689157 170.566657,49.1660241 173.177006,49.1660241 C175.715839,49.1660241 177.217684,50.4184337 177.360716,52.9590361 L177.360716,53.2453012 L174.750367,53.2453012 L174.750367,53.1021687 C174.678851,51.9571084 174.249752,51.3845783 173.212764,51.3845783 C172.068501,51.3845783 171.567887,52.1718072 171.567887,53.8178313 L171.567887,54.6766265 C171.567887,56.2510843 172.10426,57.0025301 173.212764,57.0025301 C174.249752,57.0025301 174.678851,56.3942169 174.786125,55.2133735 L174.786125,55.0344578 L177.432233,55.0344578 L177.432233,55.2849398 C177.324958,58.040241 175.823113,59.2926506 173.141248,59.2926506 C170.387866,59.3284337 168.921779,57.8971084 168.921779,54.9271084 Z"/><path id="Shape" fill="#FC4C02" d="M178.147397,54.7839759 L178.147397,53.7462651 C178.147397,50.7046988 179.828033,49.1660241 182.366866,49.1660241 C184.834182,49.1660241 186.586334,50.6689157 186.586334,53.7462651 L186.586334,54.7839759 C186.586334,57.8613253 184.86994,59.3284337 182.366866,59.3284337 C179.685,59.3284337 178.147397,57.8971084 178.147397,54.7839759 Z M183.975985,54.6408434 L183.975985,53.8536145 C183.975985,52.2075904 183.47537,51.3845783 182.366866,51.3845783 C181.222603,51.3845783 180.757746,52.2433735 180.757746,53.8178313 L180.757746,54.6050602 C180.757746,56.2153012 181.222603,57.0383133 182.366866,57.0383133 C183.47537,57.0740964 183.975985,56.2868675 183.975985,54.6408434 Z"/><polygon id="Shape" fill="#FC4C02" points="190.055 53.281 190.055 59.114 187.731 59.114 187.731 49.381 190.055 49.381 193.631 55.142 193.631 49.381 195.955 49.381 195.955 59.114 193.702 59.114"/><path id="Shape" fill="#FC4C02" d="M203.142385,56.8593976 C202.927836,58.2191566 202.141155,59.3284337 200.424761,59.3284337 C198.171994,59.3284337 197.135006,57.9686747 197.135006,54.8555422 L197.135006,53.6746988 C197.135006,50.6331325 198.779884,49.1660241 201.425991,49.1660241 C203.964824,49.1660241 205.323636,50.4542169 205.359394,52.8516867 L205.359394,52.923253 L202.820561,52.923253 C202.784803,51.9571084 202.391463,51.3845783 201.354475,51.3845783 C200.174454,51.3845783 199.673839,52.1360241 199.673839,53.7820482 L199.673839,54.7481928 C199.673839,56.5373494 200.174454,57.1456627 201.318716,57.1456627 C202.284188,57.1456627 202.784803,56.4657831 202.856319,55.606988 L201.139925,55.606988 L201.139925,53.9251807 L205.323636,53.9251807 L205.323636,59.1495181 L203.356934,59.1495181 L203.142385,56.8593976 Z"/><path id="Shape" fill="#FC4C02" d="M209.078248,55.8574699 L209.078248,59.1137349 L206.64669,59.1137349 L206.64669,49.3807229 L210.580093,49.3807229 C213.333475,49.3807229 214.406221,50.5973494 214.406221,52.4222892 C214.406221,53.6746988 213.905606,54.4261446 213.011651,54.8555422 C213.798331,55.1775904 214.191672,55.8574699 214.191672,57.0740964 L214.191672,58.6127711 C214.191672,58.863253 214.263188,59.0421687 214.406221,59.1495181 L211.867388,59.1495181 C211.724355,59.0421687 211.652839,58.8274699 211.652839,58.576988 L211.652839,57.1456627 C211.652839,56.1795181 211.295257,55.893253 210.294027,55.893253 L209.078248,55.893253 L209.078248,55.8574699 Z M209.078248,51.4561446 L209.078248,53.7104819 L210.508576,53.7104819 C211.402531,53.7104819 211.867388,53.2810843 211.867388,52.5654217 C211.867388,51.8855422 211.474048,51.4561446 210.508576,51.4561446 L209.078248,51.4561446 Z"/><polygon id="Shape" fill="#FC4C02" points="222.523 59.114 215.55 59.114 215.55 49.381 222.38 49.381 222.38 51.492 217.982 51.492 217.982 53.138 221.951 53.138 221.951 55.285 217.982 55.285 217.982 56.931 222.523 56.931 222.523 59.114"/><path id="Shape" fill="#FC4C02" d="M223.059707,55.7501205 L225.670057,55.7501205 L225.670057,55.7859036 C225.670057,56.7162651 226.134913,57.2172289 227.20766,57.2172289 C228.101615,57.2172289 228.494955,56.7878313 228.494955,56.2510843 C228.494955,55.4638554 227.493725,55.3207229 226.385221,55.070241 C224.919134,54.7481928 223.274257,54.283012 223.274257,52.1718072 C223.274257,50.4542169 224.525794,49.2018072 226.99311,49.2018072 C229.496185,49.2018072 230.783481,50.3468675 230.783481,52.386506 L228.280406,52.386506 C228.244648,51.563494 227.851307,51.2056627 226.921594,51.2056627 C226.063397,51.2056627 225.741573,51.5992771 225.741573,52.100241 C225.741573,52.8159036 226.671287,52.9590361 227.779791,53.2095181 C229.245878,53.5315663 230.926513,54.0325301 230.962272,56.1795181 C230.962272,58.0760241 229.639218,59.3642169 227.100385,59.3642169 C224.096696,59.3284337 223.095466,58.040241 223.059707,55.7501205 Z"/><path id="Shape" fill="#FC4C02" d="M231.39137,55.7501205 L234.001719,55.7501205 L234.001719,55.7859036 C234.001719,56.7162651 234.466576,57.2172289 235.539322,57.2172289 C236.433278,57.2172289 236.826618,56.7878313 236.826618,56.2510843 C236.826618,55.4638554 235.825388,55.3207229 234.716884,55.070241 C233.250797,54.7481928 231.605919,54.283012 231.605919,52.1718072 C231.605919,50.4542169 232.857457,49.2018072 235.324773,49.2018072 C237.827848,49.2018072 239.115143,50.3468675 239.115143,52.386506 L236.612069,52.386506 C236.57631,51.563494 236.18297,51.2056627 235.253257,51.2056627 C234.39506,51.2056627 234.073236,51.5992771 234.073236,52.100241 C234.073236,52.8159036 235.002949,52.9590361 236.111454,53.2095181 C237.57754,53.5315663 239.258176,54.0325301 239.293934,56.1795181 C239.293934,58.0760241 237.970881,59.3642169 235.432048,59.3642169 C232.428358,59.3284337 231.427128,58.040241 231.39137,55.7501205 Z"/></g></g></g></g></g></g></svg>