<svg xmlns="http://www.w3.org/2000/svg" xmlns:xlink="http://www.w3.org/1999/xlink" id="Layer_1" x="0" y="0" version="1.1" viewBox="-280 214 399 133" xml:space="preserve" style="enable-background:new -280 214 399 133"><style type="text/css">.st0{filter:url(#Adobe_OpacityMaskFilter)}.st1{fill:#fff}.st2{mask:url(#mask-2);fill:#ea4926}</style><title>Logo</title><desc>Created with Sketch.</desc><g id="Logo"><g id="Group-6"><g id="Group-3"><defs><filter id="Adobe_OpacityMaskFilter" width="399.6" height="104.7" x="-280" y="214.9" filterUnits="userSpaceOnUse"><feColorMatrix type="matrix" values="1 0 0 0 0 0 1 0 0 0 0 0 1 0 0 0 0 0 1 0"/></filter></defs><mask id="mask-2" width="399.6" height="104.7" x="-280" y="214.9" maskUnits="userSpaceOnUse"><g class="st0"><polygon id="path-1" points="-280 214.9 119.6 214.9 119.6 319.6 -280 319.6" class="st1"/></g></mask><path id="Fill-1" d="M-236.2,285.9c-7-1.1-15.3-1.5-15.3-1.5c-1,8.5-2.4,14.7-5.2,15.1c-3.9,0.4-7.7-12.3-8.1-27.2 c-0.4-14.6,3.1-29.3,6.5-29.7c3.8-0.4,5.4,11.2,5.7,20.3c5.6-1,15.6-1.5,15.6-1.5c-0.3-25.8-7.7-45.4-21.2-45.2 c-13.5,0.1-24.7,21.4-21.3,61.6c2.5,29.8,14.5,40.9,23.8,40.5C-245.7,318-236.9,306.6-236.2,285.9 M-187.7,268.4 c0.4-29.3-8.4-51-23-51.4c-14.5-0.3-25.2,22.7-21.9,59.9c2.6,28.8,13.8,40.3,23.7,39.2C-196.6,314.9-188,295.5-187.7,268.4 M-202.5,272.7c-0.3,16.1-3.2,26.5-6.8,27c-3.9,0.7-8.1-13.2-8.1-27.7c0-14.6,3.6-27.6,7.1-28 C-206.1,243.3-202.3,255.9-202.5,272.7 M-125.9,315.6c0.1-25.1-0.4-68.3,0-99.3c0,0-11,1.3-19.6,4.1c0,0-4.7,18.5-10,32.3 c-4.5-12.2-9.1-27.4-11.6-36.8c0,0-9.1,2.4-15.9,3.5c1.7,34.9,2,69.6,1.4,100.3c0,0,9.3-2.4,17.7-4.3 c-0.3-17.4-1.3-35.6-2.1-49.6c0,0,4.9,11.8,11,25.6c5.3-11.6,9.9-23.1,12.3-29.7c0.6,21.6,0.7,39.4,0.6,58 C-142.2,319.6-132.8,318-125.9,315.6 M-102.3,313.3c-0.4-26.6-0.1-65.5-1-94.8c-8.4,1.3-15.5,2.5-15.5,2.5 c0.6,33.3,0.8,71,1.3,94.2C-117.5,315.3-110.4,314.7-102.3,313.3 M-53.5,285.9c-7-1.1-15.3-1.5-15.3-1.5 c-1,8.5-2.4,14.7-5.2,15.1c-3.9,0.4-7.7-12.3-8.1-27.2c-0.4-14.6,3.1-29.3,6.5-29.7c3.8-0.4,5.4,11.2,5.7,20.3 c5.6-1,15.6-1.5,15.6-1.5c-0.3-25.8-7.7-45.4-21.2-45.2c-13.5,0.1-24.7,21.4-21.3,61.6c2.5,29.8,14.5,40.9,23.8,40.5 C-63,318-54.2,306.6-53.5,285.9 M26.3,314.5c-5-27.2-12-62.2-20.3-97.2c-8.5,1.1-17.3,3.2-17.3,3.2c-2.2,26.5-6.7,66.4-10.3,99 c7.5-1.4,14.9-2.5,14.9-2.5c0.7-5.2,1.5-12.6,2.4-20.9c4-0.8,8.1-1.5,10.9-2.1c1.5,8.5,2.9,16.7,4,23.1 C17.8,315.6,26.3,314.5,26.3,314.5 M4.4,281.5l-7.1,1.4c1-8.5,2.1-17.1,3.2-24.4C1.6,265.2,3,273.3,4.4,281.5 M76.9,313.3 c-5.7-14.3-12.7-31.1-17.8-45.9c7.4-6.9,13-16.8,12-29.5C69.6,217,52.8,208,23.6,220.8c0,0,0.6,11.2,2.6,20.7 c1.5-0.7,3.1-1.3,4.6-2c0.7,25.1,1.4,52.8,1,79c9.1-1.7,16.6-3.4,16.6-3.4c-0.6-9.8-1.3-24.5-1.8-39.1c0.4-0.3,1-0.6,1.5-0.8 c4.6,14.8,9.9,33.5,12.8,44.3C68.6,316.7,76.9,313.3,76.9,313.3 M54.2,243.2c0.7,6.9-3.9,12.7-8.4,16.1 c-0.3-9.5-0.6-18.1-0.4-23.9C50.2,234.9,53.7,236.9,54.2,243.2 M119.6,216.3c-9.5,0.4-28.4,2.5-45.7,5.2c0,9.2,1.1,18.3,1.1,18.3 c4.5-1,9.5-1.8,14.9-2.7c0.6,31.2,1.1,59.2,1.5,81.2c0,0,7.1-0.6,16.2-2.4c-0.4-24.8-1.4-53.3-2.1-80.8c4.7-0.6,9.3-1,13.5-1.3 C119.6,224.6,119.6,216.3,119.6,216.3" class="st2"/></g><path id="Fill-4" d="M-260,342.9c0-0.4-0.1-1-0.6-1c-1.1,0-2.1,0.6-3.2,0.7c0.2-3,0.2-6,0.3-8.9 c0-0.9,0.2-1.9,0.2-2.8c0-0.4,0-1-0.6-1c-0.1,0-0.2,0-0.2,0c-0.9,0.2-3.2,1.5-3.8,2.1c-0.5,0.6-0.8,1.8-0.8,2.6 c0,0.3,0,0.7,0.4,0.7c0.7,0,1.9-1.1,2.7-1.3c0,1.3,0,2.6,0,3.9c0,1.7,0,3.5-0.3,5.2c-1,0.4-3.3,0.7-3.3,2.1c0,0.2,0,0.5,0,0.7 c0,0.4,0,1.1,0.6,1.1c1.2,0,7.6-1.8,8.2-2.6C-260.1,344.2-260,343.3-260,342.9 M-247.2,341.5c0-0.3-0.2-0.8-0.6-0.8 c-1.5,0-3.2,0.9-4.5,1.4c-1,0.4-1.9,0.8-3,1c1.9-2,4.9-5.5,6.8-8.3c1.8-2.8,0.6-3.9-0.4-4.4c-1.6-0.7-3.6,0-5.7,0.4 c-1.4,0.3-2.7,1.2-3.4,2.2c-0.5,0.8-0.7,1.7-0.7,2.2c0,0.2,0,0.6,0.4,0.6c1.3,0,2.1-1,3.3-1.4c1.2-0.4,3.2-1.2,4.3-0.8 c1.2,0.5-3.8,5.6-6.3,8.7c-1.3,1.5-2.1,2.8-2.1,3.5c0,0.6,0.1,1.4,0.9,1.4c1.3,0,9.5-2.7,10.5-3.4 C-247.4,343.4-247.2,342.2-247.2,341.5 M-233.3,338.1c0,3.2-3.9,5.3-6.3,5.3c-1.9,0-4.9-0.4-4.9-4.1c0-3.9,4-5.9,6.5-5.9 c1.2,0,2.7,0.5,3.7,1.3C-233.6,335.4-233.3,337.1-233.3,338.1 M-231.6,336.7c0-3.9-2.9-6.3-6.2-6.3c-2.9,0-5.6,2.1-6.9,4.9 c-0.8,1.6-1.5,3.7-1.5,5.5c0,3.7,2.5,5.9,5.7,5.9C-235.8,346.7-231.6,341.9-231.6,336.7 M-209.4,331.1c0-0.5-0.2-0.8-0.8-0.8 c-0.3,0-0.8,0.6-1,0.8c-0.4,0.6-0.7,1.3-1.1,2c-0.9,1.7-1.3,2.8-2.2,4.5c-0.9-0.5-1.6-1.2-2.3-1.9c-0.5-0.5-4.3-4.5-4.5-4.5 c-0.9,0-1.4,2.3-1.4,2.9c0,1.2,5.6,5.9,6.7,7c-0.4,1.4-1.8,3.7-1.8,5c0,0.2,0.3,0.4,0.5,0.4c0.6,0,1.3-0.8,1.6-1.3 c1.2-2.7,2.2-5.5,3.4-8.2C-211.6,336.1-209.4,331.9-209.4,331.1 M-197.1,336c0-0.3,0-1.1-0.4-1.1c-1.2,0-7.4,2.3-9,2.9 c0-0.4-0.1-1-0.1-1.4c0-0.4,0-1.4,0.1-1.8c2.3-0.6,3-1.1,5.5-1.7c0.7-0.2,1.3-1,1.3-1.9c0-0.7-0.1-1-0.9-0.9 c-1.9,0.2-3.2,0.8-5,1.3c-1.1,0.3-2.8,0.2-2.8,1.7c0,3.8-0.2,7.6-0.2,11.4v2c0,0.6,0.1,1,0.8,1c2.1,0,6.2-1.8,8.1-2.7 c1-0.5,2-0.8,2-2.1c0-0.4,0-1.4-0.4-1.4c-0.5,0-1.6,0.5-2.1,0.7c-2.1,0.7-4.1,1.7-6.3,2.1c-0.2-0.2-0.2-1.1-0.2-1.4 c0-0.3,0-1.1,0.1-1.4c2.3-1.2,4.6-1.9,7.1-2.7C-197.9,337.9-197.1,337.6-197.1,336 M-188.9,338c-1.4,0.4-3.1,1.9-4.5,2.3 c0.4-1.9,1.6-4.3,2.5-6.1C-190.2,335.5-189.6,336.8-188.9,338 M-182.7,343.1c0-0.2,0-0.4-0.1-0.6c-0.8-1.6-1.7-3.1-2.6-4.6 c-1.3-2.3-2.6-4.6-3.8-6.9c-0.2-0.4-0.5-1.3-1-1.3c-0.7,0-1.1,0.7-1.3,1.2c-0.9,1.8-1.5,3.7-2.3,5.5c-1.1,2.7-1.9,5.4-2.7,8.1 c-0.2,0.7-0.4,1.5-0.4,2.2c0,0.2,0,0.6,0.3,0.6c1.6,0,1.3-2.1,1.9-3c0.6-1,6-3.4,7.3-3.8c0.4,0.9,2.6,5.4,3.5,5.4 C-183.1,345.9-182.7,343.6-182.7,343.1 M-171,334.8c0,1.8-2.7,2.7-4,3.1c-1.4,0.5-2.9,0.9-4.3,1.2c-0.2-1.4,0.1-3.3-0.2-4.7 c1.3-0.7,5-1.2,6.5-1.2C-171.5,333.2-171,334.3-171,334.8 M-167.8,344.1c0-0.7-1.5-1.3-2.1-1.5c-1.6-0.6-3.2-1.4-4.9-2 c2.5-0.9,5.9-3,5.9-5.9c0-2.6-0.9-4.6-3.8-4.6c-1.9,0-7.1,0.6-8.4,2c-0.3,0.4-0.4,1.4-0.4,1.9c0,1.4,0.1,2.9,0.1,4.3 c0,2.7-0.1,5.4-0.1,8.1c0,0.4,0.1,1.1,0.7,1.1c1,0,1.4-1.1,1.4-1.9c0-0.6-0.1-1.1-0.1-1.7c0-0.2,0-0.9,0.1-1.1 c0.2,0,0.4,0.1,0.6,0.1c1.6,0,4.3,1.2,6.6,2.1c1.6,0.6,2.7,1.1,3.6,1.1C-167.9,346.1-167.8,344.6-167.8,344.1 M-153.3,339.6 c0-2.5-2.1-3.1-4.2-3.1c-2.3,0-4.8,0.3-7,0.8c0.9-2,3.2-4.1,5.6-4.1c0.8,0,1.5,0.4,2.2,0.4c1,0,1.7-1.4,1.7-2.3 c0-1-1.6-1.2-2.4-1.2c-4,0-10,6-10,9.9c0,0.6,0.5,0.6,1,0.6c0.5,0,1-0.1,1.5-0.2c2.3-0.6,4.7-0.9,7.1-0.9c0.9,0,2.7,0.3,2.7,1.2 c0,2.4-4.2,3.1-6.6,3.1c-0.8,0-1.6-0.1-2.5-0.1c-0.8,0-1,0.2-1.3,0.9c-0.2,0.4-0.5,0.8-0.5,1.2c0,1.1,1.8,1.2,2.6,1.2 c4.9,0,9.1-1.2,10-6.6C-153.3,340.1-153.3,339.9-153.3,339.6 M-130,337.9c0,3.3-4.9,5.6-8.5,5.6c-2.4,0-4.3-1-4.3-3.2 c0-1.2,0.8-3.3,1.7-4c2-1.6,3.8-2.8,6.6-2.8C-131.8,333.4-130,334.7-130,337.9 M-128.2,336.5c0-3.5-2.3-6.3-6-6.3 c-0.3,0-0.5,0-0.8,0c-5.1,0.8-9.4,5.3-9.4,10.5c0,3.8,1.6,6.1,5.6,6.1C-133,346.9-128.2,342.3-128.2,336.5 M-116.1,336.9 c0-0.3-0.1-0.6-0.4-0.6c-1.2,0-6.5,2.5-8.2,3.1c0-0.7-0.1-1.4-0.1-2c0-0.5,0-1.6,0.1-2c1.9-0.9,5.3-1.5,6.8-2.6 c0.6-0.4,0.7-1.8,0.7-2.5c0-0.2-0.1-0.4-0.3-0.4c-1.7,0-4.1,1.2-5.9,1.7c-1.3,0.4-3.1,0.8-3.1,2.4c0,0.5,0,1,0,1.5 c0,2.9-0.2,5.7-0.2,8.6c0,0.6-0.1,1.2-0.1,1.8c0,0.6,0,1.5,0.8,1.5c0.8,0,1.1-0.9,1.1-1.6c0-0.4-0.1-0.8-0.1-1.2 c0-0.3,0-1.2,0.1-1.4c1.1-0.7,2.2-1.2,3.5-1.6c1.3-0.5,3.4-1.4,4.5-2.2C-116.1,338.7-116.1,337.7-116.1,336.9 M-95.4,335.1 c0,2.7-7,4.3-9,4.6c-0.1-0.6-0.1-1.9-0.1-2.5c0-0.6,0.1-1.7,0.1-2.3c1.3-0.9,5.4-1.3,7-1.3C-96.7,333.6-95.4,334.1-95.4,335.1 M-93.7,333.8c0-1.8-2.1-3.3-3.7-3.5c-0.3,0-0.6,0-0.9,0c-2,0-5.5,0.6-7.4,1.4c-0.6,0.2-0.6,0.8-0.6,1.4v3.9c0,2.1,0,4.2,0,6.3 c0,0.9,0,1.8,0,2.7c0,0.3-0.1,0.5-0.1,0.8c0,0.4,0.2,0.8,0.6,0.8c0.9,0,1.3-1.2,1.3-1.9c0-0.6-0.1-1.3-0.1-1.9c0-0.2,0-0.3,0-0.5 c1.8-0.3,5.3-1.2,6.8-2.2C-94.9,339-93.7,337.4-93.7,333.8 M-86.3,338c-1.4,0.4-3.1,1.9-4.5,2.3c0.4-1.9,1.6-4.3,2.5-6.1 C-87.6,335.5-87,336.8-86.3,338 M-80.1,343.1c0-0.2,0-0.4-0.1-0.6c-0.8-1.6-1.7-3.1-2.6-4.6c-1.3-2.3-2.6-4.6-3.8-6.9 c-0.2-0.4-0.5-1.3-1-1.3c-0.7,0-1.1,0.7-1.3,1.2c-0.9,1.8-1.5,3.7-2.3,5.5c-1.1,2.7-1.9,5.4-2.7,8.1c-0.2,0.7-0.4,1.5-0.4,2.2 c0,0.2,0,0.6,0.3,0.6c1.6,0,1.3-2.1,1.9-3c0.6-1,6-3.4,7.3-3.8c0.4,0.9,2.6,5.4,3.6,5.4C-80.5,345.9-80.1,343.6-80.1,343.1 M-65.8,344.4c0-2.7,0-4.9,0-7.5c0-1.7,0-3.5,0-5.3c0-0.3-0.2-1-0.6-1c-1.1,0-1.5,1.2-1.5,2.1c0,1.4,0.2,2.9,0.2,4.3 c0,1.2,0,2.3-0.2,3.5c-2.6-2-5.1-4.2-7.2-6.7c-0.6-0.7-1.5-2.1-2.5-2.1c-1,0-1.1,1.1-1.1,1.8c0,0.4,0.1,0.8,0.1,1.2 c0,3.4,0.2,6.9,0.2,10.3c0,0.4-0.1,0.7-0.1,1.1c0,0.6,0.4,0.8,0.9,0.8c0.7,0,1.1-0.9,1.1-1.5c0-1.6-0.2-3.1-0.2-4.6 c0-1,0-2.3,0.1-3.3c2.1,2.2,4.6,4.1,6.8,6.3c0.5,0.5,1.6,1.7,2.1,2c0.3,0.2,0.8,0.4,1.2,0.4C-65.9,346.1-65.8,344.9-65.8,344.4 M-51.5,336c0-0.3,0-1.1-0.4-1.1c-1.2,0-7.4,2.3-9,2.9c0-0.4-0.1-1-0.1-1.4c0-0.4,0-1.4,0.1-1.8c2.3-0.6,3-1.1,5.5-1.7 c0.7-0.2,1.3-1,1.3-1.9c0-0.7-0.1-1-0.9-0.9c-1.9,0.2-3.2,0.8-5,1.3c-1,0.3-2.8,0.2-2.8,1.7c0,3.8-0.2,7.6-0.2,11.4v2 c0,0.6,0.1,1,0.8,1c2.1,0,6.2-1.8,8.1-2.7c1-0.5,2-0.8,2-2.1c0-0.4,0-1.4-0.4-1.4c-0.5,0-1.6,0.5-2.1,0.7 c-2.1,0.7-4.1,1.7-6.3,2.1c-0.2-0.2-0.2-1.1-0.2-1.4c0-0.3,0-1.1,0.1-1.4c2.3-1.2,4.6-1.9,7.1-2.7 C-52.3,337.9-51.5,337.6-51.5,336 M-40.1,342c0-0.4,0-1.6-0.5-1.6c-0.8,0-5.6,2.3-7.3,2.6c-0.1-0.8-0.1-1.7-0.1-2.5 c0-2.9,0.6-6.4,0.6-9.3c0-0.4-0.1-0.7-0.5-0.7c-0.9,0-1.3,0.9-1.4,1.6c-0.4,3.2-0.6,6.5-0.6,9.8c0,1.2,0,2.5,0.2,3.7 c0.1,0.8,0.2,1.2,1,1.2c1.5,0,3.2-1,4.5-1.6c1.1-0.5,2.2-0.8,3.1-1.6C-40.4,343.3-40.1,343-40.1,342 M-25.6,340 c0-2.5-1.1-3.7-4-3.7c-2.4,0-4.9,0.4-7.3,1.3c1.4-2.6,4.6-4.3,7.4-4.3c0.5,0,1.1,0.1,1.6,0c0.9-0.2,1.3-1.5,1.3-2.3 c0-0.9-0.9-0.9-1.5-0.9c-0.6,0-1.2,0.1-1.7,0.1c-4.1,0.5-9.5,6.3-9.5,9.5c0,0.7,0.2,1.3,1,1.3c1.3,0,2.6-0.7,3.8-1 c1.7-0.5,3.4-0.6,5.1-0.6c0.6,0,1.9,0.1,1.9,0.9c0,2.6-6.7,3.6-8.4,3.6c-0.4,0-0.9-0.1-1.3-0.1c-1.1,0-1.1,0.6-1.1,1.4 c0,1.5,0.5,1.8,2,1.8c3.4,0,8.6-1.4,10.3-4.5C-25.7,341.7-25.6,340.8-25.6,340 M-8.8,338c-1.4,0.4-3.1,1.9-4.5,2.3 c0.4-1.9,1.6-4.3,2.5-6.1C-10.1,335.5-9.6,336.8-8.8,338 M-2.6,343.1c0-0.2,0-0.4-0.1-0.6c-0.8-1.6-1.7-3.1-2.6-4.6 c-1.3-2.3-2.6-4.6-3.8-6.9c-0.2-0.4-0.5-1.3-1-1.3c-0.7,0-1,0.7-1.3,1.2c-0.9,1.8-1.5,3.7-2.3,5.5c-1.1,2.7-1.9,5.4-2.7,8.1 c-0.2,0.7-0.4,1.5-0.4,2.2c0,0.2,0,0.6,0.3,0.6c1.6,0,1.3-2.1,1.9-3c0.6-1,6-3.4,7.3-3.8c0.4,0.9,2.6,5.4,3.5,5.4 C-3,345.9-2.6,343.6-2.6,343.1 M11.6,344.4c0-2.7,0-4.9,0-7.5c0-1.7,0-3.5,0-5.3c0-0.3-0.2-1-0.6-1c-1.1,0-1.5,1.2-1.5,2.1 c0,1.4,0.2,2.9,0.2,4.3c0,1.2,0,2.3-0.2,3.5c-2.6-2-5.1-4.2-7.2-6.7c-0.6-0.7-1.5-2.1-2.5-2.1c-1,0-1.1,1.1-1.1,1.8 c0,0.4,0.1,0.8,0.1,1.2c0,3.4,0.2,6.9,0.2,10.3c0,0.4-0.1,0.7-0.1,1.1c0,0.6,0.4,0.8,0.9,0.8c0.7,0,1.1-0.9,1.1-1.5 c0-1.6-0.2-3.1-0.2-4.6c0-1,0-2.3,0.1-3.3c2.1,2.2,4.6,4.1,6.8,6.3c0.5,0.5,1.6,1.7,2.1,2c0.3,0.2,0.8,0.4,1.2,0.4 C11.5,346.1,11.6,344.9,11.6,344.4 M25.8,335.8c0,3.9-6.7,6.8-9.6,6.9c-0.1-0.9-0.2-2.5-0.2-3.4c0-1.4,0.2-3.2,0.4-4.6 c2.1-0.9,4.3-1.3,6.5-1.3C24.1,333.4,25.8,334,25.8,335.8 M27.7,334.6c0-2.5-2.4-4.1-4.7-4.3c-0.4,0-0.9,0-1.3,0 c-1.4,0-2.8,0.2-4.1,0.4c-1.3,0.2-3,0.3-3,2.1c0,3.9-0.4,7.9-0.4,11.8c0,0.8-0.3,1.8,0.8,1.8c3,0,7.9-2.7,10.1-4.7 C27.1,340.1,27.7,337.2,27.7,334.6 M47.9,335.5c0,2.1-7.6,4-9.1,4.3c0-0.3,0-1.2,0-1.5c0-1,0.1-2.6,0.2-3.6 c1.5-0.7,4.7-1.2,6.4-1.2C46.9,333.5,47.9,333.8,47.9,335.5 M49.7,333.7c0-2.4-1.7-3.5-3.9-3.5c-1.9,0-6.8,0.5-8.2,1.7 c-0.3,0.3-0.3,0.6-0.3,1c0,1.2,0,2.5,0,3.7c0,1.5,0,3,0,4.5c0,1.7-0.2,3.4-0.2,5.2c0,0.4,0,0.8,0.5,0.8c0.8,0,1.3-0.8,1.3-1.6 c0-0.8-0.1-1.5,0.1-2.3c2.1-0.7,6.1-1.8,7.8-3.1C49.1,338.4,49.7,336.7,49.7,333.7 M57.9,339.1c-1.7,0.5-4,1.5-5.7,2.1 c0.5-2.1,2.1-4.8,3.1-6.7C56.3,335.9,56.9,337.6,57.9,339.1 M63,343.3c0-0.3,0-1.2-0.1-1.4c-0.1-0.5-1.5-3-1.9-3.6 c-0.9-1.7-1.9-3.3-2.7-5.1c-0.4-0.8-1.2-3.1-2.3-3.1c-1.2,0-3.4,5.1-3.8,6.2c-1,2.5-3.5,8-3.5,10.5c0,0.2,0.1,0.6,0.4,0.6 c1,0,1.4-1.6,1.9-2.3c2.7-1.3,5.8-2.6,8.7-3.2c0.4,0.7,1.6,4.1,2.5,4.1C63.1,345.9,63,344,63,343.3 M79,337.1 c0-1.2-0.7-1.4-1.8-1.4c-1.2,0-6.1,1-6.9,1.8c-0.6,0.5-0.6,1.3-0.6,2c0,0.5,0,0.8,0.6,0.8c2.1,0,4-1.4,6.2-1.4 c0.3,0,0.5,0.9,0.5,1.2c0,0.9-0.3,2.1-1.2,2.5c-1.6,0.8-3.7,1.3-5.5,1.3c-2.6,0-4.6-0.8-4.6-3.8c0-2.6,4-6.6,6.6-6.6 c0.7,0,1.3,0.2,2,0.2c0.8,0,1.1-0.7,1.3-1.4c0.1-0.4,0.3-0.7,0.3-1c0-0.6-0.6-0.8-1.1-0.8h-0.4c-5.2,0-10.7,6.6-10.7,11.6 c0,2.2,1.5,4.4,3.7,4.8c0.8,0.2,1.5,0.2,2.3,0.2c2.6,0,6.4-0.8,8.1-2.9C78.8,342.9,79,338.7,79,337.1 M93.5,341.5 c0-0.3-0.1-0.8-0.5-0.8c-2,0.7-4,1.4-6,2.2c-1.3,0.5-2.7,0.9-4.1,1.2c0-0.2,0-1.1,0-1.3c0-0.3,0.1-1.2,0.2-1.4 c1.7-1,3.5-1.6,5.4-2.3c0.7-0.3,1.5-0.6,2.2-0.9c1-0.5,1.3-1.7,1.3-2.7c0-0.3-0.2-0.4-0.4-0.4c-1.5,0-6.8,2.2-8.6,2.8 c-0.1-1-0.1-1.7-0.1-2.7c1.4-0.9,3.2-1.5,4.8-1.9c1.5-0.4,2-0.4,2.4-1.9c0.1-0.3,0.2-0.4,0.2-0.7c0-0.3,0-0.8-0.4-0.8 c-1.6,0-7,1.6-8.2,2.4c-0.6,0.4-0.7,1-0.7,1.7c0,1,0,2,0,3.1c0,0.8,0,1.7,0,2.5c0,2.2-0.1,4.4-0.1,6.6c0,0.8,0.2,1.7,1.2,1.7 c1.3,0,9.7-3.3,10.6-4.1C93.2,343.1,93.5,342.3,93.5,341.5 M108,340c0-2.5-1.1-3.7-4-3.7c-2.5,0-5,0.4-7.3,1.3 c1.4-2.6,4.6-4.3,7.4-4.3c0.5,0,1.1,0.1,1.6,0c0.9-0.2,1.3-1.5,1.3-2.3c0-0.9-0.9-0.9-1.5-0.9c-0.6,0-1.2,0.1-1.7,0.1 c-4.1,0.5-9.5,6.3-9.5,9.5c0,0.7,0.2,1.3,1,1.3c1.3,0,2.6-0.7,3.8-1c1.7-0.5,3.4-0.6,5.1-0.6c0.6,0,1.9,0.1,1.9,0.9 c0,2.6-6.7,3.6-8.4,3.6c-0.4,0-0.9-0.1-1.3-0.1c-1.1,0-1.1,0.6-1.1,1.4c0,1.5,0.5,1.8,2,1.8c3.4,0,8.6-1.4,10.3-4.5 C107.9,341.7,108,340.8,108,340" class="st1"/></g></g></svg>