<svg xmlns="http://www.w3.org/2000/svg" xmlns:xlink="http://www.w3.org/1999/xlink" width="98" height="73" version="1.1" viewBox="0 0 98 73"><title>NBF-20years_horiz</title><g id="NBF-20years_horiz" fill="none" fill-rule="evenodd" stroke="none" stroke-width="1"><path id="Fill-20" fill="#DD472D" d="M87.602,70.327 C75.705,66.643 64.117,66.983 52.959,73 C52.939,72.936 52.919,72.871 52.899,72.808 C54.08,71.878 55.237,70.917 56.446,70.025 C60.646,66.928 65.382,65.292 70.564,64.822 C74.554,64.46 78.513,64.723 82.468,65.217 C82.831,65.262 82.986,65.198 83.086,64.817 C84.296,60.226 85.521,55.639 86.752,51.053 C87.768,47.268 88.802,43.488 89.82,39.703 C90.146,38.492 90.449,37.275 90.8,35.916 C88.334,35.384 85.89,34.857 83.396,34.319 C83.396,33.504 83.396,32.607 83.396,31.658 C88.169,31.706 92.806,32.45 97.397,33.774 C94.132,45.958 90.876,58.109 87.602,70.327"/><path id="Fill-21" fill="#DD472D" d="M0,33.779 C4.392,32.498 8.827,31.772 13.422,31.667 C13.422,32.567 13.417,33.406 13.425,34.245 C13.427,34.576 13.188,34.533 12.981,34.575 C10.868,35.011 8.757,35.453 6.586,35.905 C6.984,37.406 7.347,38.791 7.717,40.172 C9.178,45.621 10.643,51.07 12.103,56.52 C12.831,59.237 13.558,61.954 14.265,64.676 C14.381,65.122 14.525,65.269 15.035,65.204 C19.837,64.588 24.647,64.34 29.452,65.157 C33.221,65.799 36.739,67.124 39.894,69.302 C41.509,70.417 43.036,71.659 44.561,72.946 C33.356,66.995 21.752,66.628 9.795,70.328 C6.524,58.124 3.269,45.976 0,33.779"/><path id="Fill-23" fill="#DD472D" d="M81.8954647,23.0248702 C81.7798727,23.0129577 81.6632756,23.0030307 81.5466784,23.002038 C77.2989248,22.968286 73.0964028,23.3514703 68.9551948,24.3233291 C68.7189851,24.3789206 68.486796,24.4424538 68.2515915,24.5010234 L68.2515915,27.2786136 C70.8086869,26.9242177 73.4532302,26.7981441 76.176175,26.8696189 C76.176175,36.9019015 76.176175,46.9053956 76.176175,56.9227877 C76.0384697,56.9456199 75.9429807,56.9634886 75.8474917,56.9763938 C71.9776735,57.4707611 68.1701745,58.233159 64.4822881,59.5256617 C61.3854284,60.6116816 58.5006549,62.0789004 55.9234565,64.1119615 C53.9453261,65.6734873 52.248637,67.5000656 50.7328744,69.4944111 C50.1317962,70.2855975 49.5769547,71.1105358 49,71.9195908 C49.0301544,71.9454012 49.0603089,71.9731969 49.0904633,72 C53.5573391,67.977557 58.5478968,64.814797 64.3013615,62.8949044 C70.0377387,60.9799754 75.9590631,60.4131405 82,60.5392141 C82,48.0172259 82,35.5438803 82,23.0814544 C81.9527581,23.0556441 81.9256191,23.0278483 81.8954647,23.0248702"/><g id="Group-27" transform="translate(14.000000, 0.000000)"><path id="Fill-24" fill="#DD472D" d="M30.748,68.566 C28.338,65.496 25.375,63.092 21.898,61.322 C17.934,59.304 13.676,58.24 9.328,57.477 C8.34,57.303 7.344,57.176 6.363,57.03 C6.363,46.911 6.363,36.835 6.363,26.765 C8.164,26.58 11.987,26.85 15.087,27.313 L15.087,24.59 C14.064,24.308 13.028,24.06 11.98,23.846 C8.904,23.218 5.787,22.917 2.648,22.865 C1.958,22.854 1.267,22.864 0.564,22.864 C0.564,35.494 0.564,48.052 0.564,60.703 C13.025,60.255 24.124,63.586 33.377,72.219 C32.538,70.946 31.667,69.738 30.748,68.566"/><path id="Fill-26" fill="#0B0B09" d="M22.984,6.778 C23.477,6.778 23.661,7.144 23.661,7.694 L23.661,14.343 C23.661,16.112 23.231,17.149 21.702,20.565 L19.143,25.689 C15.183,32.826 15.122,34.474 15.122,38.561 L15.122,46.604 L31.582,46.604 L31.582,31.119 L24.941,31.119 L24.941,40.269 L22.067,40.269 L22.067,37.584 C22.067,35.45 22.251,34.412 26.099,28.129 L28.901,23.066 C31.155,18.857 31.399,17.027 31.399,13.489 L31.399,7.694 C31.399,3.368 28.839,0.809 23.782,0.809 L22.434,0.809 C17.499,0.809 15.427,3.794 15.427,7.144 L15.427,16.536 L22.311,16.536 L22.311,7.694 C22.311,7.144 22.434,6.778 22.984,6.778 L22.984,6.778 Z M51.525,9.767 C51.525,4.343 49.088,0.809 43.421,0.809 L42.262,0.809 C36.588,0.809 34.089,4.222 34.089,9.767 L34.089,38.256 C34.089,43.741 37.014,47.031 42.255,47.031 L43.42,47.031 C48.417,47.031 51.525,43.984 51.525,38.256 L51.525,9.767 Z M43.604,38.988 C43.604,39.719 43.42,40.139 42.807,40.139 C42.255,40.139 42.072,39.719 42.072,38.988 L42.072,8.791 C42.079,7.999 42.201,7.579 42.811,7.579 C43.482,7.579 43.604,8.06 43.604,8.791 L43.604,38.988 L43.604,38.988 Z"/></g><path id="Fill-28" fill="#0B0B09" d="M62.0435348,57 C63.9944063,57 65,55.9834141 65,54.4840521 C64.9901122,52.7917836 63.7145803,52.4059709 62.583411,52.1375351 C61.7419555,51.9446287 61.0260757,51.8374585 61.0260757,51.2699668 C61.0260757,50.8953815 61.2643727,50.5738709 61.9189479,50.5738709 C62.6348278,50.5738709 62.936407,50.8739474 62.9670594,51.5159479 L62.9670594,51.5271753 L64.8655253,51.5271753 L64.8655253,51.5159479 C64.8447609,49.8890023 63.8589428,49 61.9604769,49 C60.0610221,49 59.1068452,49.9951518 59.1068452,51.3454963 C59.1068452,53.006124 60.3616126,53.3705027 61.4720174,53.6266905 C62.3233607,53.8195968 63.0916462,53.9482011 63.0817583,54.5595815 C63.0817583,54.998469 62.7801791,55.3312069 62.0949515,55.3312069 C61.2752493,55.3312069 60.9321411,54.9453942 60.9222533,54.2166369 L60.9222533,54.1839755 L58.9407294,54.1839755 L58.9407294,54.1952029 C58.9614939,55.9946415 59.7396672,57 62.0435348,57 Z M54.7581716,54.268691 C55.5066814,54.268691 55.7865073,54.5156928 55.7865073,55.2648635 L55.7865073,56.3794335 C55.7865073,56.5825466 55.8488007,56.7652462 55.9526231,56.839755 L57.9025059,56.839755 C57.7878069,56.7540189 57.7255135,56.615208 57.7255135,56.4110743 L57.7255135,55.1903547 C57.7255135,54.2370503 57.4150352,53.723654 56.8237421,53.4552182 C57.4980931,53.1235009 57.8916292,52.5243685 57.8916292,51.5486093 C57.8916292,50.1135494 57.0729158,49.1612656 54.9766929,49.1612656 L51.9678221,49.1612656 L51.9678221,56.839755 L53.834647,56.839755 L53.834647,54.268691 L54.7581716,54.268691 Z M54.935164,50.8096453 C55.6619205,50.8096453 55.9733876,51.1311559 55.9733876,51.6772136 C55.9733876,52.245726 55.6203916,52.5886706 54.9242874,52.5886706 L53.834647,52.5886706 L53.834647,50.8096453 L54.935164,50.8096453 Z M49.0509083,56.839755 L50.9602509,56.839755 L48.3449162,49.1612656 L46.4157979,49.1612656 L43.8321044,56.839755 L45.7513349,56.839755 L46.1557477,55.4904312 L48.6356188,55.4904312 L49.0509083,56.839755 Z M48.1382603,53.9063537 L46.6234427,53.9063537 L47.3699749,51.4108191 L48.1382603,53.9063537 Z M42.9590078,55.0954325 L39.4834308,55.0954325 L39.4834308,53.7981628 L42.5239427,53.7981628 L42.5239427,52.1171217 L39.4834308,52.1171217 L39.4834308,50.8310794 L42.8551855,50.8310794 L42.8551855,49.1612656 L37.6264938,49.1612656 L37.6264938,56.839755 L42.9590078,56.839755 L42.9590078,55.0954325 Z M34.2636382,56.839755 L34.2636382,53.883899 L36.6505636,49.1612656 L34.6472865,49.1612656 L33.2985846,51.9242154 L32.013165,49.1612656 L30,49.1612656 L32.2929909,53.8522582 L32.2929909,56.839755 L34.2636382,56.839755 L34.2636382,56.839755 Z"/></g></svg>