<svg xmlns="http://www.w3.org/2000/svg" xmlns:xlink="http://www.w3.org/1999/xlink" version="1.1" viewBox="0 17 516 72"><g id="Symbols" fill="none" fill-rule="evenodd" stroke="none" stroke-width="1"><g id="header/p1/1200-bookfest" fill-rule="nonzero" transform="translate(-24.000000, -30.000000)"><g id="Group" transform="translate(24.000000, 30.000000)"><path id="Shape" fill="#000" d="M-5.68434189e-14,23.1428571 L-5.68434189e-14,88.2321429 L9.32142857,88.2321429 L9.16071429,49.1785714 L14.3035714,88.2321429 L24.5892857,88.2321429 L24.5892857,23.1428571 L15.4285714,23.1428571 L15.5892857,58.5 L11.25,23.1428571 L-5.68434189e-14,23.1428571 L-5.68434189e-14,23.1428571 Z M40.8214286,67.0178571 L38.25,67.0178571 L39.5357143,42.2678571 L40.8214286,67.0178571 L40.8214286,67.0178571 Z M41.9464286,88.2321429 L52.7142857,88.2321429 L46.7678571,23.1428571 L32.7857143,23.1428571 L27.3214286,88.2321429 L36.8035714,88.2321429 L37.4464286,76.5 L41.1428571,76.5 L41.9464286,88.2321429 L41.9464286,88.2321429 Z M57.2142857,88.2321429 L68.1428571,88.2321429 L68.1428571,33.1071429 L73.125,33.1071429 L73.125,23.1428571 L52.2321429,23.1428571 L52.2321429,33.1071429 L57.2142857,33.1071429 L57.2142857,88.2321429 L57.2142857,88.2321429 Z M87.9107143,23.1428571 L76.8214286,23.1428571 L76.8214286,88.2321429 L87.9107143,88.2321429 L87.9107143,23.1428571 L87.9107143,23.1428571 Z M117,35.3571429 C117,27.4821429 113.464286,22.5 105.107143,22.5 L103.339286,22.5 C95.1428571,22.5 91.4464286,27.4821429 91.4464286,35.3571429 L91.4464286,76.3392857 C91.4464286,84.375 95.625,88.875 103.339286,88.875 L105.107143,88.875 C112.339286,88.875 116.839286,84.375 116.839286,76.3392857 L116.839286,35.3571429 L117,35.3571429 Z M105.589286,77.3035714 C105.589286,78.4285714 105.107143,79.0714286 104.303571,79.0714286 C103.5,79.0714286 103.017857,78.4285714 103.017857,77.3035714 L103.017857,34.2321429 C103.017857,32.9464286 103.339286,32.3035714 104.303571,32.3035714 C105.267857,32.3035714 105.589286,32.9464286 105.589286,34.2321429 L105.589286,77.3035714 L105.589286,77.3035714 Z M120.857143,23.1428571 L120.857143,88.2321429 L130.178571,88.2321429 L130.017857,49.1785714 L135.160714,88.2321429 L145.446429,88.2321429 L145.446429,23.1428571 L136.285714,23.1428571 L136.446429,58.5 L132.107143,23.1428571 L120.857143,23.1428571 L120.857143,23.1428571 Z M161.678571,67.0178571 L159.107143,67.0178571 L160.392857,42.2678571 L161.678571,67.0178571 L161.678571,67.0178571 Z M162.803571,88.2321429 L173.571429,88.2321429 L167.625,23.1428571 L153.642857,23.1428571 L148.178571,88.2321429 L157.660714,88.2321429 L158.303571,76.5 L162,76.5 L162.803571,88.2321429 L162.803571,88.2321429 Z M176.303571,23.1428571 L176.303571,88.2321429 L194.303571,88.2321429 L194.464286,77.9464286 L187.392857,77.9464286 L187.232143,23.1428571 L176.303571,23.1428571 L176.303571,23.1428571 Z M207,88.2321429 L223.714286,88.2321429 C229.178571,88.2321429 232.071429,84.8571429 232.071429,78.2678571 L232.071429,60.4285714 C232.071429,55.125 228.696429,53.3571429 226.928571,52.875 C228.375,52.3928571 231.267857,50.4642857 231.267857,45.9642857 L231.267857,31.1785714 C231.267857,25.2321429 228.375,22.9821429 223.875,22.9821429 L207,22.9821429 L207,88.2321429 L207,88.2321429 Z M218.892857,31.3392857 C220.017857,31.3392857 220.178571,31.8214286 220.178571,32.9464286 L220.178571,48.2142857 C220.178571,49.3392857 219.857143,49.8214286 218.892857,49.8214286 L218.089286,49.8214286 L218.089286,31.1785714 L218.892857,31.1785714 L218.892857,31.3392857 Z M219.214286,58.0178571 C220.339286,58.0178571 220.5,58.5 220.5,59.7857143 L220.5,78.1071429 C220.5,79.2321429 220.339286,79.7142857 219.214286,79.7142857 L218.089286,79.7142857 L218.089286,57.8571429 L219.214286,57.8571429 L219.214286,58.0178571 Z M261,35.3571429 C261,27.4821429 257.464286,22.5 249.107143,22.5 L247.5,22.5 C239.303571,22.5 235.607143,27.4821429 235.607143,35.3571429 L235.607143,76.3392857 C235.607143,84.375 239.785714,88.875 247.5,88.875 L249.267857,88.875 C256.5,88.875 261,84.375 261,76.3392857 L261,35.3571429 L261,35.3571429 Z M249.589286,77.3035714 C249.589286,78.4285714 249.107143,79.0714286 248.303571,79.0714286 C247.5,79.0714286 247.017857,78.4285714 247.017857,77.3035714 L247.017857,34.2321429 C247.017857,32.9464286 247.339286,32.3035714 248.303571,32.3035714 C249.267857,32.3035714 249.589286,32.9464286 249.589286,34.2321429 L249.589286,77.3035714 L249.589286,77.3035714 Z M290.25,35.3571429 C290.25,27.4821429 286.714286,22.5 278.357143,22.5 L276.589286,22.5 C268.392857,22.5 264.696429,27.4821429 264.696429,35.3571429 L264.696429,76.3392857 C264.696429,84.375 268.875,88.875 276.589286,88.875 L278.357143,88.875 C285.589286,88.875 290.089286,84.375 290.089286,76.3392857 L290.089286,35.3571429 L290.25,35.3571429 Z M278.839286,77.3035714 C278.839286,78.4285714 278.357143,79.0714286 277.553571,79.0714286 C276.75,79.0714286 276.267857,78.4285714 276.267857,77.3035714 L276.267857,34.2321429 C276.267857,32.9464286 276.589286,32.3035714 277.553571,32.3035714 C278.517857,32.3035714 278.839286,32.9464286 278.839286,34.2321429 L278.839286,77.3035714 L278.839286,77.3035714 Z M305.035714,88.2321429 L304.875,62.5178571 L308.25,88.2321429 L319.821429,88.2321429 L314.196429,52.5535714 L319.5,22.9821429 L308.571429,22.9821429 L304.875,46.4464286 L305.035714,22.9821429 L293.946429,22.9821429 L293.946429,88.0714286 L305.035714,88.0714286 L305.035714,88.2321429 Z M331.553571,88.2321429 L342.482143,88.2321429 L342.482143,59.3035714 L348.910714,59.3035714 L348.75,49.0178571 L342.321429,49.0178571 L342.321429,33.1071429 L350.035714,33.1071429 L350.035714,23.1428571 L331.392857,23.1428571 L331.392857,88.2321429 L331.553571,88.2321429 Z M353.732143,23.1428571 L353.732143,88.2321429 L372.696429,88.2321429 L372.696429,78.1071429 L364.5,78.1071429 L364.5,59.3035714 L371.089286,59.3035714 L371.089286,49.0178571 L364.5,49.0178571 L364.5,33.1071429 L372.375,33.1071429 L372.375,23.1428571 L353.732143,23.1428571 L353.732143,23.1428571 Z M387,88.875 L389.571429,88.875 C397.607143,88.875 400.982143,84.2142857 400.982143,77.3035714 L400.982143,64.2857143 C400.982143,58.6607143 399.375,55.6071429 394.875,51.9107143 L389.25,46.9285714 C387.803571,45.6428571 387.482143,45 387.482143,43.2321429 L387.482143,32.1428571 C387.482143,31.1785714 387.803571,30.6964286 388.607143,30.6964286 C389.410714,30.6964286 389.732143,31.1785714 389.732143,32.1428571 L389.732143,45.9642857 L400.339286,45.9642857 L400.339286,31.6607143 C400.339286,26.3571429 397.767857,22.3392857 389.892857,22.3392857 L387.321429,22.3392857 C379.446429,22.3392857 376.232143,26.5178571 376.232143,32.4642857 L376.232143,44.0357143 C376.232143,49.0178571 377.839286,52.5535714 381.535714,55.6071429 L387.160714,60.5892857 C388.767857,62.0357143 389.089286,63 389.089286,65.0892857 L389.089286,77.7857143 C389.089286,78.9107143 388.767857,79.5535714 387.803571,79.5535714 C387,79.5535714 386.678571,78.9107143 386.678571,77.7857143 L386.678571,61.5535714 L376.071429,61.5535714 L376.071429,78.5892857 C376.071429,85.5 379.767857,88.875 387,88.875 L387,88.875 Z M409.017857,88.2321429 L419.946429,88.2321429 L419.946429,33.1071429 L424.928571,33.1071429 L424.928571,23.1428571 L404.035714,23.1428571 L404.035714,33.1071429 L409.017857,33.1071429 L409.017857,88.2321429 L409.017857,88.2321429 Z M439.553571,23.1428571 L428.464286,23.1428571 L428.464286,88.2321429 L439.553571,88.2321429 L439.553571,23.1428571 L439.553571,23.1428571 Z M448.875,88.2321429 L463.660714,88.2321429 L469.607143,23.1428571 L458.839286,23.1428571 L456.428571,67.5 L454.178571,23.1428571 L442.285714,23.1428571 L448.875,88.2321429 L448.875,88.2321429 Z M482.142857,67.0178571 L479.571429,67.0178571 L480.857143,42.2678571 L482.142857,67.0178571 L482.142857,67.0178571 Z M483.267857,88.2321429 L494.035714,88.2321429 L488.089286,23.1428571 L474.107143,23.1428571 L468.642857,88.2321429 L478.125,88.2321429 L478.767857,76.5 L482.464286,76.5 L483.267857,88.2321429 L483.267857,88.2321429 Z M496.928571,23.1428571 L496.928571,88.2321429 L514.928571,88.2321429 L515.089286,77.9464286 L508.017857,77.9464286 L507.857143,23.1428571 L496.928571,23.1428571 L496.928571,23.1428571 Z"/></g></g></g></svg>