<svg viewBox="0 0 516 17" version="1.1" xmlns="http://www.w3.org/2000/svg" xmlns:xlink="http://www.w3.org/1999/xlink">
    <g id="Symbols" stroke="none" stroke-width="1" fill="none" fill-rule="evenodd">
        <g id="header/p1/1200-bookfest" transform="translate(-24.000000, -30.000000)" fill-rule="nonzero">
            <g id="Group" transform="translate(24.000000, 30.000000)">
                <path d="M0.160714286,16.0714286 L0.160714286,5.68434189e-14 L4.33928571,5.68434189e-14 L4.33928571,12.0535714 L11.0892857,12.0535714 L11.0892857,16.0714286 L0.160714286,16.0714286 Z M12.8571429,16.0714286 L12.8571429,5.68434189e-14 L17.0357143,5.68434189e-14 L17.0357143,16.0714286 L12.8571429,16.0714286 Z M19.4464286,16.0714286 L19.4464286,5.68434189e-14 L25.7142857,5.68434189e-14 C30.0535714,5.68434189e-14 31.9821429,1.44642857 31.9821429,4.17857143 C31.9821429,6.10714286 31.3392857,7.23214286 30.0535714,7.875 C31.5,8.51785714 32.4642857,9.48214286 32.4642857,11.4107143 C32.4642857,14.4642857 30.5357143,16.0714286 26.5178571,16.0714286 L19.4464286,16.0714286 Z M23.4642857,3.21428571 L23.4642857,6.26785714 L25.875,6.26785714 C27.3214286,6.26785714 27.9642857,5.78571429 27.9642857,4.66071429 C27.9642857,3.69642857 27.3214286,3.21428571 25.875,3.21428571 L23.4642857,3.21428571 Z M23.4642857,9.32142857 L23.4642857,12.5357143 L25.7142857,12.5357143 C27.6428571,12.5357143 28.2857143,12.0535714 28.2857143,10.9285714 C28.2857143,9.80357143 27.6428571,9.32142857 25.7142857,9.32142857 L23.4642857,9.32142857 Z M37.9285714,10.6071429 L37.9285714,15.9107143 L33.9107143,15.9107143 L33.9107143,5.68434189e-14 L40.3392857,5.68434189e-14 C44.8392857,5.68434189e-14 46.6071429,1.92857143 46.6071429,4.98214286 C46.6071429,7.07142857 45.8035714,8.19642857 44.3571429,9 C45.6428571,9.48214286 46.2857143,10.6071429 46.2857143,12.6964286 L46.2857143,15.2678571 C46.2857143,15.75 46.4464286,15.9107143 46.6071429,16.0714286 L42.4285714,16.0714286 C42.2678571,15.9107143 42.1071429,15.5892857 42.1071429,15.1071429 L42.1071429,12.6964286 C42.1071429,11.0892857 41.4642857,10.6071429 39.8571429,10.6071429 L37.9285714,10.6071429 Z M37.9285714,3.53571429 L37.9285714,7.23214286 L40.3392857,7.23214286 C41.7857143,7.23214286 42.5892857,6.58928571 42.5892857,5.30357143 C42.5892857,4.17857143 41.9464286,3.53571429 40.3392857,3.53571429 L37.9285714,3.53571429 Z M57.5357143,13.1785714 L52.2321429,13.1785714 L51.4285714,16.0714286 L47.25,16.0714286 L52.875,0.160714286 L57.0535714,0.160714286 L62.6785714,16.0714286 L58.5,16.0714286 L57.5357143,13.1785714 Z M54.8035714,4.66071429 L53.1964286,9.96428571 L56.4107143,9.96428571 L54.8035714,4.66071429 Z M67.6607143,10.6071429 L67.6607143,15.9107143 L63.6428571,15.9107143 L63.6428571,5.68434189e-14 L70.0714286,5.68434189e-14 C74.5714286,5.68434189e-14 76.3392857,1.92857143 76.3392857,4.98214286 C76.3392857,7.07142857 75.5357143,8.19642857 74.0892857,9 C75.375,9.48214286 76.0178571,10.6071429 76.0178571,12.6964286 L76.0178571,15.2678571 C76.0178571,15.75 76.1785714,15.9107143 76.3392857,16.0714286 L72.3214286,16.0714286 C72.1607143,15.9107143 72,15.5892857 72,15.1071429 L72,12.6964286 C72,11.0892857 71.3571429,10.6071429 69.75,10.6071429 L67.6607143,10.6071429 Z M67.6607143,3.53571429 L67.6607143,7.23214286 L70.0714286,7.23214286 C71.5178571,7.23214286 72.3214286,6.58928571 72.3214286,5.30357143 C72.3214286,4.17857143 71.6785714,3.53571429 70.0714286,3.53571429 L67.6607143,3.53571429 Z M81.9642857,16.0714286 L81.9642857,9.80357143 L76.9821429,5.68434189e-14 L81.3214286,5.68434189e-14 L84.0535714,5.78571429 L86.9464286,5.68434189e-14 L91.2857143,5.68434189e-14 L86.1428571,9.96428571 L86.1428571,16.0714286 L81.9642857,16.0714286 Z M95.9464286,9.32142857 L95.9464286,7.55357143 C95.9464286,2.57142857 98.6785714,-5.68434189e-14 102.857143,-5.68434189e-14 C106.875,-5.68434189e-14 109.767857,2.41071429 109.767857,7.55357143 L109.767857,9.32142857 C109.767857,14.3035714 106.875,16.7142857 102.857143,16.7142857 C98.5178571,16.7142857 95.9464286,14.3035714 95.9464286,9.32142857 Z M105.589286,9 L105.589286,7.71428571 C105.589286,4.98214286 104.785714,3.69642857 103.017857,3.69642857 C101.089286,3.69642857 100.446429,5.14285714 100.446429,7.71428571 L100.446429,9 C100.446429,11.5714286 101.25,13.0178571 103.017857,13.0178571 C104.785714,13.0178571 105.589286,11.7321429 105.589286,9 Z M115.714286,10.7678571 L115.714286,16.3928571 L111.696429,16.3928571 L111.696429,0.482142857 L122.625,0.482142857 L122.625,4.01785714 L115.714286,4.01785714 L115.714286,7.23214286 L122.303571,7.23214286 L122.303571,10.7678571 L115.714286,10.7678571 Z M128.410714,9.48214286 L128.410714,7.55357143 C128.410714,2.57142857 131.142857,0.160714286 135.321429,0.160714286 C139.5,0.160714286 141.910714,2.25 142.232143,6.42857143 L142.232143,6.91071429 L137.892857,6.91071429 L137.892857,6.75 C137.732143,4.82142857 137.089286,3.85714286 135.321429,3.85714286 C133.392857,3.85714286 132.589286,5.14285714 132.589286,7.875 L132.589286,9.32142857 C132.589286,11.8928571 133.392857,13.1785714 135.321429,13.1785714 C137.089286,13.1785714 137.732143,12.2142857 137.892857,10.2857143 L137.892857,9.64285714 L142.232143,9.64285714 L142.232143,10.125 C142.071429,14.625 139.660714,16.7142857 135.160714,16.7142857 C130.821429,16.7142857 128.410714,14.4642857 128.410714,9.48214286 Z M143.517857,9.32142857 L143.517857,7.55357143 C143.517857,2.57142857 146.25,-5.68434189e-14 150.428571,-5.68434189e-14 C154.446429,-5.68434189e-14 157.339286,2.41071429 157.339286,7.55357143 L157.339286,9.32142857 C157.339286,14.3035714 154.446429,16.7142857 150.428571,16.7142857 C146.089286,16.7142857 143.517857,14.3035714 143.517857,9.32142857 Z M153.160714,9 L153.160714,7.71428571 C153.160714,4.98214286 152.357143,3.69642857 150.589286,3.69642857 C148.660714,3.69642857 148.017857,5.14285714 148.017857,7.71428571 L148.017857,9 C148.017857,11.5714286 148.821429,13.0178571 150.589286,13.0178571 C152.196429,13.0178571 153.160714,11.7321429 153.160714,9 Z M163.125,6.75 L163.125,16.3928571 L159.267857,16.3928571 L159.267857,0.321428571 L163.125,0.321428571 L168.910714,9.80357143 L168.910714,0.321428571 L172.767857,0.321428571 L172.767857,16.3928571 L169.071429,16.3928571 L163.125,6.75 Z M184.5,12.6964286 C184.178571,14.9464286 182.892857,16.7142857 180,16.7142857 C176.303571,16.7142857 174.535714,14.4642857 174.535714,9.32142857 L174.535714,7.39285714 C174.535714,2.41071429 177.267857,-5.68434189e-14 181.607143,-5.68434189e-14 C185.785714,-5.68434189e-14 188.035714,2.08928571 188.035714,6.10714286 L188.035714,6.26785714 L183.857143,6.26785714 C183.857143,4.66071429 183.214286,3.69642857 181.446429,3.69642857 C179.517857,3.69642857 178.714286,4.98214286 178.714286,7.55357143 L178.714286,9.16071429 C178.714286,12.0535714 179.517857,13.0178571 181.446429,13.0178571 C183.053571,13.0178571 183.857143,11.8928571 184.017857,10.4464286 L181.125,10.4464286 L181.125,7.71428571 L188.035714,7.71428571 L188.035714,16.2321429 L184.821429,16.2321429 L184.5,12.6964286 Z M194.303571,10.9285714 L194.303571,16.2321429 L190.285714,16.2321429 L190.285714,0.321428571 L196.714286,0.321428571 C201.214286,0.321428571 202.982143,2.25 202.982143,5.30357143 C202.982143,7.39285714 202.178571,8.51785714 200.732143,9.32142857 C202.017857,9.80357143 202.660714,10.9285714 202.660714,13.0178571 L202.660714,15.5892857 C202.660714,16.0714286 202.821429,16.2321429 202.982143,16.3928571 L198.803571,16.3928571 C198.642857,16.2321429 198.482143,15.9107143 198.482143,15.4285714 L198.482143,13.0178571 C198.482143,11.4107143 197.839286,10.9285714 196.232143,10.9285714 L194.303571,10.9285714 Z M194.303571,3.85714286 L194.303571,7.55357143 L196.714286,7.55357143 C198.160714,7.55357143 198.964286,6.91071429 198.964286,5.625 C198.964286,4.5 198.321429,3.85714286 196.714286,3.85714286 L194.303571,3.85714286 Z M216.321429,16.3928571 L204.910714,16.3928571 L204.910714,0.482142857 L216.160714,0.482142857 L216.160714,3.85714286 L208.928571,3.85714286 L208.928571,6.58928571 L215.357143,6.58928571 L215.357143,10.125 L208.928571,10.125 L208.928571,12.8571429 L216.321429,12.8571429 L216.321429,16.3928571 Z M217.285714,10.9285714 L221.625,10.9285714 C221.625,12.5357143 222.428571,13.3392857 224.196429,13.3392857 C225.642857,13.3392857 226.285714,12.6964286 226.285714,11.7321429 C226.285714,10.4464286 224.678571,10.2857143 222.75,9.80357143 C220.339286,9.32142857 217.607143,8.51785714 217.607143,4.98214286 C217.607143,2.08928571 219.696429,0.160714286 223.714286,0.160714286 C227.892857,0.160714286 229.982143,2.08928571 229.982143,5.46428571 L225.803571,5.46428571 C225.803571,4.17857143 225.160714,3.53571429 223.553571,3.53571429 C222.107143,3.53571429 221.625,4.17857143 221.625,4.98214286 C221.625,6.10714286 223.232143,6.42857143 225,6.75 C227.410714,7.23214286 230.142857,8.03571429 230.303571,11.5714286 C230.303571,14.625 228.053571,16.875 224.035714,16.875 C218.892857,16.7142857 217.285714,14.625 217.285714,10.9285714 Z M230.946429,10.9285714 L235.285714,10.9285714 C235.285714,12.5357143 236.089286,13.3392857 237.857143,13.3392857 C239.303571,13.3392857 239.946429,12.6964286 239.946429,11.7321429 C239.946429,10.4464286 238.339286,10.2857143 236.410714,9.80357143 C234,9.32142857 231.267857,8.51785714 231.267857,4.98214286 C231.267857,2.08928571 233.357143,0.160714286 237.375,0.160714286 C241.553571,0.160714286 243.642857,2.08928571 243.642857,5.46428571 L239.464286,5.46428571 C239.464286,4.17857143 238.821429,3.53571429 237.214286,3.53571429 C235.767857,3.53571429 235.285714,4.17857143 235.285714,4.98214286 C235.285714,6.10714286 236.892857,6.42857143 238.660714,6.75 C241.071429,7.23214286 243.803571,8.03571429 243.964286,11.5714286 C243.964286,14.625 241.714286,16.875 237.696429,16.875 C232.714286,16.7142857 230.946429,14.625 230.946429,10.9285714 Z" id="Combined-Shape" fill="#F04925"></path>
            </g>
        </g>
    </g>
</svg>
