<svg xmlns="http://www.w3.org/2000/svg" xmlns:xlink="http://www.w3.org/1999/xlink" width="1144" height="900" version="1.1" viewBox="0 0 1144 900"><title>Logo</title><desc>Created with Sketch.</desc><defs><polygon id="path-1" points="0 .485 940.948 .485 940.948 332.037 0 332.037"/><polygon id="path-3" points="0 899.515 1143.043 899.515 1143.043 1 0 1"/></defs><g id="Logo" fill="none" fill-rule="evenodd" stroke="none" stroke-width="1"><g id="Group-8"><g id="Group-3" transform="translate(0.000000, 0.515000)"><mask id="mask-2" fill="#fff"><use xlink:href="#path-1"/></mask><path id="Fill-1" fill="#F8CFCF" d="M210.9072,327.5689 L150.1372,183.6879 C184.5442,170.7289 198.8422,141.6849 198.8422,101.4699 C198.8422,40.6999 163.5422,4.9529 89.3672,4.9529 L0.0002,4.9529 L0.0002,327.5689 L61.6642,327.5689 L61.6642,196.1989 L91.1552,196.1989 L144.7752,327.5689 L210.9072,327.5689 Z M61.6642,55.8919 L93.3892,55.8919 C120.6462,55.8919 137.1792,69.2969 137.1792,100.5759 C137.1792,131.8549 120.6462,145.2599 93.3892,145.2599 L61.6642,145.2599 L61.6642,55.8919 Z M236.7342,223.9029 C236.7342,303.4399 278.7372,332.0369 338.6132,332.0369 C398.4892,332.0369 440.4912,303.4399 440.4912,223.9029 L440.4912,108.6189 C440.4912,29.0819 398.4892,0.4849 338.6132,0.4849 C278.7372,0.4849 236.7342,29.0819 236.7342,108.6189 L236.7342,223.9029 Z M298.3972,100.5759 C298.3972,64.8289 314.0372,54.9989 338.6132,54.9989 C363.1892,54.9989 378.8282,64.8289 378.8282,100.5759 L378.8282,231.9459 C378.8282,267.6929 363.1892,277.5229 338.6132,277.5229 C314.0372,277.5229 298.3972,267.6929 298.3972,231.9459 L298.3972,100.5759 Z M679.8172,78.6809 C669.0932,33.1039 635.5802,0.4849 580.6192,0.4849 C516.7222,0.4849 483.6562,35.3379 483.6562,90.7459 C483.6562,181.0069 621.2822,181.8999 621.2822,242.6699 C621.2822,266.7989 604.7492,281.0979 583.3002,281.0979 C564.9802,281.0979 542.6382,267.2459 535.4892,228.3709 L474.7192,241.3289 C491.2522,304.7799 530.1272,332.0369 580.1732,332.0369 C644.9642,332.0369 682.9452,295.3969 682.9452,239.9889 C682.9452,139.0039 545.3192,135.4289 545.3192,86.7239 C545.3192,64.8289 557.3842,51.4239 579.2792,51.4239 C600.7272,51.4239 614.1322,64.3819 624.4092,94.7669 L679.8172,78.6809 Z M822.5372,74.6589 L823.4302,74.6589 L853.3672,205.1359 L792.1522,205.1359 L822.5372,74.6589 Z M763.5542,327.5689 L780.9812,259.6499 L866.3262,259.6499 L881.9662,327.5689 L940.9482,327.5689 L863.1992,4.9529 L784.1092,4.9529 L704.1252,327.5689 L763.5542,327.5689 Z" mask="url(#mask-2)"/></g><path id="Fill-4" fill="#F8CFCF" d="M61.663,722.9116 L61.663,593.3296 L88.92,593.3296 C164.881,593.3296 201.969,557.5836 201.969,496.8136 C201.969,436.0446 164.881,400.2986 88.92,400.2986 L0,400.2986 L0,722.9116 L61.663,722.9116 Z M61.663,451.2376 L94.729,451.2376 C125.113,451.2376 140.306,466.4296 140.306,496.8136 C140.306,527.1986 125.113,542.3916 94.729,542.3916 L61.663,542.3916 L61.663,451.2376 Z M318.056,470.0036 L318.949,470.0036 L348.887,600.4796 L287.671,600.4796 L318.056,470.0036 Z M259.074,722.9116 L276.5,654.9926 L361.845,654.9926 L377.484,722.9116 L436.466,722.9116 L358.718,400.2986 L279.628,400.2986 L199.645,722.9116 L259.074,722.9116 Z M678.203,722.9116 L617.434,579.0316 C651.84,566.0736 666.139,537.0286 666.139,496.8136 C666.139,436.0446 630.839,400.2986 556.664,400.2986 L467.298,400.2986 L467.298,722.9116 L528.961,722.9116 L528.961,591.5426 L558.452,591.5426 L612.072,722.9116 L678.203,722.9116 Z M528.961,451.2376 L560.686,451.2376 C587.943,451.2376 604.476,464.6416 604.476,495.9206 C604.476,527.1986 587.943,540.6036 560.686,540.6036 L528.961,540.6036 L528.961,451.2376 Z M772.485,722.9116 L772.485,624.1616 L796.614,587.5216 L860.958,722.9116 L930.217,722.9116 L837.722,530.3266 L920.833,400.2986 L853.362,400.2986 L773.378,533.4546 L772.485,533.4546 L772.485,400.2986 L710.822,400.2986 L710.822,722.9116 L772.485,722.9116 Z M1139.915,474.0256 C1129.191,428.4486 1095.679,395.8296 1040.719,395.8296 C976.821,395.8296 943.756,430.6826 943.756,486.0896 C943.756,576.3506 1081.38,577.2436 1081.38,638.0146 C1081.38,662.1426 1064.847,676.4406 1043.4,676.4406 C1025.08,676.4406 1002.738,662.5906 995.588,623.7156 L934.819,636.6736 C951.352,700.1226 990.226,727.3796 1040.272,727.3796 C1105.062,727.3796 1143.043,690.7396 1143.043,635.3326 C1143.043,534.3486 1005.419,530.7736 1005.419,482.0686 C1005.419,460.1736 1017.483,446.7686 1039.378,446.7686 C1060.826,446.7686 1074.231,459.7266 1084.508,490.1116 L1139.915,474.0256 Z"/><mask id="mask-4" fill="#fff"><use xlink:href="#path-3"/></mask><path id="Fill-6" fill="#FEFEFE" d="M0,897.291 L15.725,897.291 L15.725,797.746 L0,797.746 L0,897.291 Z M72.099,835.724 C82.187,835.724 85.896,841.064 85.896,854.119 L85.896,897.29 L101.918,897.29 L101.918,850.856 C101.918,833.35 95.242,821.927 77.44,821.927 C69.725,821.927 62.011,827.416 52.22,835.575 L52.22,824.152 L36.495,824.152 L36.495,897.29 L52.22,897.29 L52.22,844.477 C57.709,839.581 64.088,835.724 72.099,835.724 L72.099,835.724 Z M214.959,897.29 L230.685,897.29 L230.685,797.746 L214.959,797.746 L214.959,842.845 L168.97,842.845 L168.97,797.746 L153.393,797.746 L153.393,897.29 L168.97,897.29 L168.97,856.493 L214.959,856.493 L214.959,897.29 Z M282.014,833.498 C292.399,833.498 298.333,839.136 299.075,854.564 L264.212,854.564 C264.657,848.779 265.844,843.586 268.069,837.801 C272.371,834.982 276.97,833.498 282.014,833.498 L282.014,833.498 Z M301.152,895.955 L313.91,883.493 L311.091,879.042 C305.009,883.048 297.443,887.202 287.207,887.202 C273.707,887.202 265.251,879.636 264.064,864.356 L303.97,864.356 L313.613,856.345 C313.613,832.015 302.784,821.927 286.91,821.927 C274.152,821.927 261.542,833.202 253.531,841.658 C250.564,848.037 248.932,856.048 248.932,863.762 C248.932,885.867 261.69,899.515 283.201,899.515 C290.767,899.515 296.701,897.735 301.152,895.955 L301.152,895.955 Z M360.789,838.097 C364.052,838.097 366.426,838.691 368.355,839.581 L372.36,825.042 C371.025,823.262 368.058,821.927 364.794,821.927 C359.008,821.927 351.888,829.048 345.063,837.652 L345.063,824.152 L329.635,824.152 L329.635,897.29 L345.063,897.29 L345.063,845.663 C349.811,840.916 354.706,838.097 360.789,838.097 L360.789,838.097 Z M458.107,795.52 C441.195,795.52 427.101,809.02 418.052,818.218 C413.898,827.119 411.079,837.504 411.079,849.966 C411.079,880.526 427.546,899.515 452.914,899.515 C469.827,899.515 484.068,885.867 493.118,876.669 C497.272,867.768 500.09,857.531 500.09,845.07 C500.09,814.509 483.623,795.52 458.107,795.52 L458.107,795.52 Z M457.958,886.015 C439.266,886.015 427.546,871.773 427.546,844.625 C427.546,835.724 428.882,825.339 433.035,815.4 C438.821,811.394 445.349,808.724 453.063,808.724 C471.755,808.724 483.623,822.966 483.623,850.262 C483.623,859.312 482.14,869.548 478.134,879.339 C472.2,883.345 465.673,886.015 457.958,886.015 L457.958,886.015 Z M580.792,897.29 L597.704,897.29 L616.99,824.152 L602.748,824.152 L589.397,884.383 L572.04,824.152 L557.65,824.152 L540.886,883.641 L526.644,824.152 L510.77,824.152 L530.798,897.29 L548.007,897.29 L563.138,842.845 L580.792,897.29 Z M665.204,835.724 C675.292,835.724 679.001,841.064 679.001,854.119 L679.001,897.29 L695.023,897.29 L695.023,850.856 C695.023,833.35 688.347,821.927 670.545,821.927 C662.831,821.927 655.117,827.416 645.325,835.575 L645.325,824.152 L629.6,824.152 L629.6,897.29 L645.325,897.29 L645.325,844.477 C650.814,839.581 657.193,835.724 665.204,835.724 L665.204,835.724 Z M818.301,897.29 L836.252,897.29 L858.208,797.746 L843.669,797.746 L827.203,880.081 L806.433,797.746 L792.043,797.746 L771.422,881.268 L754.955,797.746 L738.34,797.746 L761.186,897.29 L779.136,897.29 L797.68,822.966 L818.301,897.29 Z M897.223,899.515 C910.575,899.515 923.481,888.24 931.492,879.784 C934.756,872.96 936.091,865.839 936.091,858.57 C936.091,837.059 923.778,821.927 903.455,821.927 C890.251,821.927 877.344,833.202 869.185,841.658 C866.069,848.482 864.586,855.603 864.586,863.02 C864.586,884.383 877.047,899.515 897.223,899.515 L897.223,899.515 Z M902.267,887.498 C887.729,887.498 880.311,876.075 880.311,858.125 C880.311,851.152 881.35,844.773 883.723,838.394 C888.322,835.575 893.069,833.944 898.41,833.944 C913.097,833.944 920.514,845.367 920.514,863.466 C920.514,870.438 919.476,876.817 916.955,883.196 C912.503,886.015 907.608,887.498 902.267,887.498 L902.267,887.498 Z M983.711,838.097 C986.975,838.097 989.349,838.691 991.277,839.581 L995.283,825.042 C993.947,823.262 990.98,821.927 987.717,821.927 C981.931,821.927 974.81,829.048 967.986,837.652 L967.986,824.152 L952.557,824.152 L952.557,897.29 L967.986,897.29 L967.986,845.663 C972.733,840.916 977.629,838.097 983.711,838.097 L983.711,838.097 Z M1033.708,886.015 C1020.949,886.015 1015.46,874.889 1015.46,858.867 C1015.46,851.301 1016.795,844.922 1019.465,838.394 C1024.213,835.279 1028.96,833.795 1034.152,833.795 C1042.46,833.795 1048.394,836.614 1052.103,840.471 L1052.103,876.817 C1046.762,882.009 1041.125,886.015 1033.708,886.015 L1033.708,886.015 Z M1052.103,897.29 L1067.68,897.29 L1067.68,791.515 L1052.103,791.515 L1052.103,825.339 C1048.394,823.262 1043.647,821.927 1037.713,821.927 C1025.548,821.927 1013.531,832.757 1004.927,841.361 C1001.515,849.224 999.883,856.345 999.883,864.207 C999.883,884.383 1010.564,899.515 1028.218,899.515 C1035.785,899.515 1044.092,893.284 1052.103,885.867 L1052.103,897.29 Z M1109.81,899.515 C1123.311,899.515 1134.437,890.466 1140.816,884.235 C1142.151,881.564 1143.042,878.004 1143.042,874.295 C1143.042,860.498 1131.766,855.306 1118.267,852.339 C1106.547,849.669 1098.833,849.224 1098.833,841.213 C1098.833,839.581 1099.129,837.801 1099.872,835.575 C1103.283,833.647 1107.14,832.608 1111.739,832.608 C1121.085,832.608 1128.058,836.466 1131.766,842.103 L1141.261,832.608 C1136.514,825.933 1128.354,821.927 1117.228,821.927 C1105.508,821.927 1095.42,829.493 1088.448,835.872 C1086.964,838.246 1085.778,841.955 1085.778,846.108 C1085.778,857.531 1095.717,862.427 1109.365,865.246 C1120.64,867.619 1129.542,869.845 1129.542,878.894 C1129.542,880.378 1129.246,882.306 1128.503,884.383 C1124.202,886.757 1119.75,887.795 1114.854,887.795 C1103.135,887.795 1095.569,882.455 1091.416,876.966 L1081.475,886.608 C1086.816,893.878 1096.163,899.515 1109.81,899.515 L1109.81,899.515 Z" mask="url(#mask-4)"/></g></g></svg>