<svg xmlns="http://www.w3.org/2000/svg" xmlns:xlink="http://www.w3.org/1999/xlink" width="104" height="82" version="1.1" viewBox="0 0 104 82"><title>agriculture</title><desc>Created with Sketch.</desc><g id="Everyday-Mysteries" fill="none" fill-rule="evenodd" stroke="none" stroke-width="1"><g id="Everyday-Mysteries---Home" fill="#FFF" transform="translate(-58.000000, -1745.000000)"><g id="agriculture" transform="translate(58.000000, 1745.000000)"><path id="Combined-Shape" d="M29,1 L59,1 C61.7614237,1 64,3.23857625 64,6 C64,8.76142375 61.7614237,11 59,11 L29,11 C26.2385763,11 24,8.76142375 24,6 C24,3.23857625 26.2385763,1 29,1 Z M29.3333333,4 C28.2287638,4 27.3333333,4.8954305 27.3333333,6 C27.3333333,7.1045695 28.2287638,8 29.3333333,8 L58.6666667,8 C59.7712362,8 60.6666667,7.1045695 60.6666667,6 C60.6666667,4.8954305 59.7712362,4 58.6666667,4 L29.3333333,4 Z"/><path id="Shape" fill-rule="nonzero" d="M24.4969514,82 C10.9906428,82 0,71.0065197 0,57.4975613 C0,43.988603 10.9906428,33 24.4969514,33 C38.0105766,33 49,43.988603 49,57.4975613 C49,71.0065197 38.0093572,82 24.4969514,82 Z M24.4969514,36.671403 C13.0124431,36.671403 3.67045766,46.0151296 3.67045766,57.4987807 C3.67045766,68.9860897 13.0124431,78.3310357 24.4969514,78.3310357 C35.9814598,78.3310357 45.3295423,68.9860897 45.3295423,57.4987807 C45.3295423,46.0151296 35.9814598,36.671403 24.4969514,36.671403 Z"/><path id="Shape" fill-rule="nonzero" d="M23.9993861,72 C15.7261491,72 9,65.2720724 9,56.9981581 C9,48.7303835 15.7273769,42 23.9993861,42 C32.2713952,42 39,48.7291556 39,56.9981581 C39,65.2720724 32.2713952,72 23.9993861,72 Z M23.9993861,45.6973517 C17.7692874,45.6973517 12.6945934,50.7700053 12.6945934,56.999386 C12.6945934,63.2336785 17.7692874,68.3038762 23.9993861,68.3038762 C30.2368518,68.3038762 35.3041788,63.2336785 35.3041788,56.999386 C35.3029509,50.7687774 30.2368518,45.6973517 23.9993861,45.6973517 Z"/><path id="Shape" fill-rule="nonzero" d="M84.4987983,74 C80.9105195,74 78,71.0847975 78,67.5024043 C78,63.9164047 80.9105195,61 84.4987983,61 C88.0810686,61 91,63.9164047 91,67.5024043 C91,71.0847975 88.0822703,74 84.4987983,74 Z M84.4987983,64.6184576 C82.9101498,64.6184576 81.6183213,65.9107638 81.6183213,67.5012021 C81.6183213,69.0868319 82.9101498,70.3815424 84.4987983,70.3815424 C86.0886485,70.3815424 87.3816787,69.088034 87.3816787,67.5012021 C87.3828804,65.9107638 86.0886485,64.6184576 84.4987983,64.6184576 Z"/><path id="Shape" fill-rule="nonzero" d="M72,67 L50.3032887,67 L50.8684531,64.6901757 C51.4129111,62.4632872 51.6845311,60.1683171 51.6845311,57.8597307 C51.6845311,42.3494958 39.2679659,29.7259223 24,29.7259223 L24,26 C41.2862363,26 55.3507917,40.2921925 55.3507917,57.8597307 C55.3507917,59.6756536 55.2009744,61.4928144 54.8989038,63.2740777 L71.998782,63.2740777 L71.998782,67 L72,67 Z"/><path id="Shape" fill-rule="nonzero" d="M84.0030122,82 C76.2834029,82 70,75.7184892 70,67.997591 C70,60.2791018 76.2834029,54 84.0030122,54 C91.7238263,54 98,60.2791018 98,67.997591 C98,75.7196937 91.7238263,82 84.0030122,82 Z M84.0030122,57.62557 C78.2810792,57.62557 73.6266621,62.2785856 73.6266621,67.997591 C73.6266621,73.7190054 78.2810792,78.37443 84.0030122,78.37443 C89.7201257,78.37443 94.3733379,73.7190054 94.3733379,67.997591 C94.3745428,62.2785856 89.7201257,57.62557 84.0030122,57.62557 Z"/><polygon id="Shape" fill-rule="nonzero" points="63.466 37 57.828 11.68 29.627 11.68 29.627 27.386 26 27.386 26 8 60.724 8 67 36.188"/><polygon id="Shape" fill-rule="nonzero" points="104 67 96.256 67 96.256 63.274 100.388 63.274 100.388 44.599 67.27 39.346 67.27 59.721 55 59.721 55 55.993 63.656 55.993 63.656 35 104 41.404"/><path id="Shape" fill-rule="nonzero" d="M82,41 L70,39.2782768 L70,16 L82,16 L82,41 Z M73.9061317,36.1620303 L78.095166,36.7620979 L78.095166,19.6342123 L73.9061317,19.6342123 L73.9061317,36.1620303 Z"/><polygon id="Shape" fill-rule="nonzero" points="102.63 60 95 56.656 95 47 103.312 47 103.312 50.588 98.49 50.588 98.49 54.287 104 56.698"/><path id="Path-9" fill-rule="nonzero" d="M77.75,17.7792969 C77.75,18.7457952 76.9664983,19.5292969 76,19.5292969 C75.0335017,19.5292969 74.25,18.7457952 74.25,17.7792969 L74.25,8.21386827 L79.5514425,0.96677375 C80.1220776,0.186713131 81.2170328,0.016940205 81.9970934,0.587575306 C82.7771541,1.15821041 82.946927,2.25316563 82.3762919,3.03322625 L77.75,9.357387 L77.75,17.7792969 Z"/></g></g></g></svg>