<svg xmlns="http://www.w3.org/2000/svg" xmlns:xlink="http://www.w3.org/1999/xlink" width="92" height="93" version="1.1" viewBox="0 0 92 93"><title>Astronomy</title><desc>Created with Sketch.</desc><g id="Everyday-Mysteries" fill="none" fill-rule="evenodd" stroke="none" stroke-width="1"><g id="Everyday-Mysteries---Home" fill="#FFF" transform="translate(-260.000000, -1735.000000)"><g id="Astronomy" transform="translate(260.000000, 1735.000000)"><path id="Fill-1" d="M73.2836214,5.70117575 L86.9920728,39.6897341 L72.5899681,42.5672034 L60.9150222,13.6210845 L73.2836214,5.70117575 Z M53.2105887,45.891517 C51.8291855,43.7324501 49.4435176,42.4591251 46.9404622,42.4593522 C46.0131692,42.4593522 45.0695282,42.6337305 44.1565397,43.0017868 C41.1003781,44.234696 39.3102757,47.2649733 39.5087219,50.3828939 L34.7505553,51.9425353 L27.1596493,33.1219385 L58.5105087,17.9780448 L67.8352074,41.0979298 L53.2105887,45.891517 Z M50.455048,51.4037336 C50.0561122,52.3419252 49.3159126,53.0685015 48.3704552,53.4499541 C47.9113498,53.635004 47.4320365,53.7287778 46.9454574,53.7287778 C45.3794584,53.7287778 43.9894271,52.7905861 43.403625,51.3381147 C42.616425,49.3863491 43.5636988,47.1582574 45.5154644,46.3710574 C45.9743428,46.1860075 46.4538831,46.0922337 46.9406893,46.0922337 L46.9409163,46.0922337 L46.9411434,46.0922337 C48.5064612,46.0922337 49.8964925,47.0304254 50.4822946,48.4831239 C50.8635201,49.4283542 50.8539838,50.4655419 50.455048,51.4037336 Z M10.7962427,42.9332162 L10.6747683,42.6323682 L10.1525415,41.3370189 L23.8812008,34.7054207 L31.2906898,53.0766755 L16.8027582,57.8255328 L10.7962427,42.9332162 Z M6.41430645,55.1356111 L4.53724197,50.4818899 L8.88625527,47.9102639 L11.3305034,53.9701373 L6.41430645,55.1356111 Z M70.347572,46.7200411 L92,42.3939603 L75.0140083,0.279327127 L56.4191042,12.1860963 L57.3534359,14.5025124 L39.3007394,23.2225634 C39.2798503,23.1340119 39.2541931,23.0459145 39.2192266,22.9589524 L37.2658716,18.1156401 L38.5294333,17.6061285 C39.459678,17.2308064 39.9097012,16.1725026 39.5343791,15.2422579 C39.159057,14.3117861 38.1007532,13.86199 37.1702814,14.237085 L31.2743418,16.615033 C30.3440971,16.9903551 29.8940739,18.0486589 30.2691689,18.9791307 C30.5548042,19.6868614 31.2355154,20.1164496 31.9543718,20.1164496 C32.1807457,20.1164496 32.4105255,20.0739903 32.6332665,19.9840765 L33.8966011,19.4745649 L35.8499561,24.3176501 C35.9164832,24.4827191 36.00617,24.630532 36.1110694,24.7633592 L5.5119895,39.5441918 L7.51189078,44.502621 L0,48.9442728 L4.21323435,59.3908507 L12.7048679,57.3780072 L14.7047691,62.3366635 L40.6187942,53.8420782 C41.6777792,55.5502137 43.3593492,56.7172769 45.2391384,57.1607155 L45.3787773,67.424287 L30.0132778,90.1075451 C29.4506353,90.9378856 29.667927,92.0674847 30.4984945,92.6301272 C30.8106953,92.8415155 31.1649012,92.9427821 31.5154743,92.9427821 C32.0978706,92.9427821 32.6698224,92.6632773 33.0210766,92.1449105 L45.4650582,73.7745639 L45.707326,91.5897608 C45.7179976,92.3719656 46.5290384,93 47.5233126,93 L47.5430664,93 C48.5461958,92.991599 49.3508791,92.3465354 49.3399805,91.5595625 L49.0997562,73.8942219 L61.8214261,91.8374779 C62.1756321,92.3369991 62.735777,92.6035618 63.304777,92.6035618 C63.6678381,92.6035618 64.0349862,92.4948024 64.3537716,92.2688826 C65.1720781,91.6885298 65.365075,90.5548437 64.7849492,89.7363101 L49.0127941,67.490133 L48.8715658,57.1044059 C49.1594717,57.026753 49.4460152,56.9334334 49.7293799,56.8189976 C52.8195998,55.5729192 54.6167409,52.4886028 54.3712943,49.3341264 L69.4132403,44.403625 L70.347572,46.7200411 Z"/></g></g></g></svg>