<?xml version="1.0" encoding="UTF-8"?>
<svg width="73px" height="101px" viewBox="0 0 73 101" version="1.1" xmlns="http://www.w3.org/2000/svg" xmlns:xlink="http://www.w3.org/1999/xlink">
    <!-- Generator: Sketch 50.2 (55047) - http://www.bohemiancoding.com/sketch -->
    <title>Biology</title>
    <desc>Created with Sketch.</desc>
    <defs></defs>
    <g id="Everyday-Mysteries" stroke="none" stroke-width="1" fill="none" fill-rule="evenodd">
        <g id="Everyday-Mysteries---Home" transform="translate(-466.000000, -1732.000000)">
            <g id="Biology" transform="translate(466.000000, 1732.000000)">
                <g id="Group-21" transform="translate(21.000000, 0.000000)" stroke="#FFFFFF">
                    <path d="M18.218,13.2459247 L18.218,12.125 C18.218,10.9000324 17.2249676,9.907 16,9.907 L4,9.907 C2.77503242,9.907 1.782,10.9000324 1.782,12.125 L1.782,46.125 C1.782,47.3499676 2.77503242,48.343 4,48.343 L16,48.343 C17.2249676,48.343 18.218,47.3499676 18.218,46.125 L18.218,34.7540753 C12.6283188,34.3534397 8.218,29.6917624 8.218,24 C8.218,18.3082376 12.6283188,13.6465603 18.218,13.2459247 Z" id="Combined-Shape" stroke-width="3.564"></path>
                    <rect id="Rectangle-12" stroke-width="3.24" transform="translate(10.000000, 56.250000) scale(1, -1) translate(-10.000000, -56.250000) " x="5.78666667" y="48.12" width="8.42666667" height="16.26" rx="1.62"></rect>
                    <rect id="Rectangle-12" stroke-width="3.24" transform="translate(10.000000, 5.687500) scale(1, -1) translate(-10.000000, -5.687500) " x="5.78666667" y="1.62" width="8.42666667" height="8.135" rx="1.62"></rect>
                </g>
                <path d="M46.1695285,22.5871202 L47.9653029,19.0128798 C62.8062072,26.4692659 72.3801461,41.6987025 72.3801461,58.6424 C72.3801461,71.4633744 66.9144124,83.4058945 57.5429899,91.7608548 L54.8811224,88.7751452 C63.4096511,81.1716551 68.3801461,70.3112218 68.3801461,58.6424 C68.3801461,43.2245183 59.670838,29.3704654 46.1695285,22.5871202 Z" id="Stroke-1" fill="#FFFFFF" fill-rule="nonzero"></path>
                <path d="M39.1896067,12.8 C33.4072026,12.8 28.7191011,17.5013074 28.7191011,23.3 C28.7191011,29.0995196 33.4072026,33.8 39.1896067,33.8 C44.9728355,33.8 49.6601124,29.0995196 49.6601124,23.3 C49.6601124,17.5013074 44.9728355,12.8 39.1896067,12.8 M39.1896067,16.5213515 C42.9169979,16.5213515 45.9492141,19.5629361 45.9492141,23.3 C45.9492141,27.0378908 42.9169979,30.0786485 39.1896067,30.0786485 C35.4622156,30.0786485 32.4299994,27.0378908 32.4299994,23.3 C32.4299994,19.5629361 35.4622156,16.5213515 39.1896067,16.5213515" id="Fill-3" fill="#FFFFFF"></path>
                <path d="M43.2108437,29.7482055 L45.153808,26.2517945 C56.9142723,32.7871139 64.3686966,45.2061271 64.3686966,58.9352 C64.3686966,73.2238165 56.2921601,86.0653568 43.7734388,92.3475485 L41.9793702,88.7724515 C53.1575227,83.1629891 60.3686966,71.6973591 60.3686966,58.9352 C60.3686966,46.6723201 53.7132692,35.5844296 43.2108437,29.7482055 Z" id="Stroke-6" fill="#FFFFFF" fill-rule="nonzero"></path>
                <path d="M17.5505618,74.8 C16.4459923,74.8 15.5505618,73.9045695 15.5505618,72.8 C15.5505618,71.6954305 16.4459923,70.8 17.5505618,70.8 L59.0337079,70.8 C60.1382774,70.8 61.0337079,71.6954305 61.0337079,72.8 C61.0337079,73.9045695 60.1382774,74.8 59.0337079,74.8 L17.5505618,74.8 Z" id="Line-3" fill="#FFFFFF" fill-rule="nonzero"></path>
                <path d="M6,92.8 C4.8954305,92.8 4,93.6954305 4,94.8 C4,95.9045695 4.8954305,96.8 6,96.8 L61.011236,96.8 C62.1158055,96.8 63.011236,95.9045695 63.011236,94.8 C63.011236,93.6954305 62.1158055,92.8 61.011236,92.8 L6,92.8 Z M6,88.8 L61.011236,88.8 C64.3249445,88.8 67.011236,91.4862915 67.011236,94.8 C67.011236,98.1137085 64.3249445,100.8 61.011236,100.8 L6,100.8 C2.6862915,100.8 0,98.1137085 0,94.8 C0,91.4862915 2.6862915,88.8 6,88.8 Z" id="Rectangle-13" fill="#FFFFFF" fill-rule="nonzero"></path>
            </g>
        </g>
    </g>
</svg>