<?xml version="1.0" encoding="UTF-8"?>
<svg width="62px" height="112px" viewBox="0 0 62 112" version="1.1" xmlns="http://www.w3.org/2000/svg" xmlns:xlink="http://www.w3.org/1999/xlink">
    <!-- Generator: Sketch 50.2 (55047) - http://www.bohemiancoding.com/sketch -->
    <title>Botany</title>
    <desc>Created with Sketch.</desc>
    <defs></defs>
    <g id="Everyday-Mysteries" stroke="none" stroke-width="1" fill="none" fill-rule="evenodd">
        <g id="Everyday-Mysteries---Home" transform="translate(-670.000000, -1726.000000)" fill="#FFFFFF">
            <g id="Botany" transform="translate(670.000000, 1726.000000)">
                <path d="M15.1276033,87.149622 C18.0795021,89.8475431 20.9331914,87.7988093 21.477553,87.3603971 C21.9966607,86.9416573 24.3733321,84.7776998 22.0219146,82.1528474 C20.3186802,81.7144352 15.2370368,80.292406 11.2777884,77.9513974 C11.9315835,81.2113854 13.3570251,85.8793509 14.9424081,86.997864 L15.1276033,87.149622 Z M18.6659535,92.039604 C16.2696402,92.039604 14.1286717,90.8845565 12.8435294,89.6142853 C9.28273127,86.6999685 7.32976395,75.7087505 7.82642374,73.6206721 C8.09860453,72.4824866 9.01055048,72.1930222 9.28553725,72.1283845 C10.009482,71.9653851 10.7474568,72.2126945 11.2609525,72.7944337 C14.5748237,76.5574715 23.4136844,78.8366528 23.503476,78.8591354 L24.0029418,78.9856005 L24.3536902,79.342513 C26.5143006,81.5514358 28.1866692,86.191298 23.9355981,89.9290428 C22.1930798,91.4578647 20.366382,92.039604 18.6659535,92.039604 Z" id="Fill-1"></path>
                <path d="M50.7394173,83.8794815 C51.1490386,83.4184894 51.7017467,83.1683168 52.2768999,83.1683168 C52.4199868,83.1683168 52.5686849,83.1823715 52.7145774,83.2161026 C52.9895287,83.277943 53.9041625,83.5730904 54.1735026,84.7058942 C54.6700982,86.7944133 52.7201887,97.7879507 49.1598503,100.702882 C47.8720683,101.976233 45.7285706,103.128713 43.3325667,103.128713 C41.6351634,103.128713 39.8087014,102.549662 38.0664081,101.020517 C33.8130802,97.2819837 35.4852329,92.6383315 37.6455643,90.4317534 L37.9990731,90.0719547 L38.4984744,89.9482739 C38.5854488,89.9229756 47.4231682,87.6461243 50.7394173,83.8794815 Z M40.4988852,98.5328464 C40.8243377,98.8167501 41.9942834,99.7471671 43.5177379,99.7471671 C44.4576224,99.7471671 45.5321768,99.3901793 46.6235651,98.3079722 L46.8003194,98.1505603 C48.3265796,96.9812145 49.6985303,92.0873897 50.3269904,88.6721128 C46.51134,91.1260525 41.6127184,92.6214659 39.9714276,93.0768362 C37.7016768,95.8231123 39.9966783,98.0915308 40.4988852,98.5328464 Z" id="Combined-Shape"></path>
                <path d="M31.0014277,112 C29.7822142,112 28.7857143,111.041903 28.7857143,109.872421 L28.7857143,62.0087667 C28.7857143,60.8365395 29.7822142,59.8811881 31.0014277,59.8811881 C32.2177858,59.8811881 33.2142857,60.8365395 33.2142857,62.0087667 L33.2142857,109.872421 C33.2142857,111.041903 32.2177858,112 31.0014277,112" id="Fill-31"></path>
                <path d="M30.4464286,41.029703 C24.6384177,41.029703 19.9285714,36.3123353 19.9285714,30.4977192 C19.9285714,24.6777637 24.6384177,19.960396 30.4464286,19.960396 C36.2544394,19.960396 40.9642857,24.6777637 40.9642857,30.4977192 C40.9642857,36.3123353 36.2544394,41.029703 30.4464286,41.029703 Z M30.4464286,37.6018026 C34.3646369,37.6018026 37.5391853,34.4195149 37.5391853,30.4977192 C37.5391853,26.5732538 34.3646369,23.3936359 30.4464286,23.3936359 C26.5282203,23.3936359 23.3536719,26.5732538 23.3536719,30.4977192 C23.3536719,34.4195149 26.5282203,37.6018026 30.4464286,37.6018026 Z" id="Combined-Shape"></path>
                <path d="M31,0.0081402171 C26.2672376,0.0108536228 22.3688718,3.0959959 21.0387136,6.9517454 C17.2974744,5.17446467 12.4238399,5.74427986 9.07270821,9.10618952 C5.73783099,12.459959 5.15266975,17.3278088 6.96233505,21.0506014 C3.00436948,22.4914198 0,26.3064682 0,31.0495014 C0.00270907979,35.7925346 3.03958752,39.6401438 6.95420781,41.0484014 C5.12557896,44.8363158 5.73241283,49.6471841 9.07270821,53.0009535 C12.4238399,56.3520095 17.1972385,56.8729834 21.0089137,55.1635378 C22.4826532,58.9921533 26.2591104,62.1044296 31,62.0990028 C35.7300533,62.0962894 39.4306563,59.1630978 40.9585773,55.1716781 C44.7892161,56.8811237 49.5680329,56.3574364 52.9164555,53.0009535 C56.2567509,49.6471841 56.803985,44.9394252 55.0674648,41.0484014 C58.773486,39.808375 62,35.795248 62,31.0495014 C61.9945818,26.3064682 58.9522852,22.5836756 55.0674648,21.0288942 C56.803985,17.3332356 56.2594599,12.4518188 52.9164555,9.09804931 C49.5680329,5.74970668 44.7756707,5.21516575 41.0290134,6.93817837 C39.455038,2.98745967 35.7354715,0 31,0 L31,0.0081402171 Z M31,3.89102377 C34.5705672,3.88831037 37.5045006,6.6207099 37.7672813,10.1888384 C37.8864808,11.7734673 39.7530368,12.5495014 40.9585773,11.5129804 C43.6595298,9.18216488 47.6527134,9.32597539 50.1775758,11.8467293 C52.6997291,14.3783368 52.8378922,18.3833236 50.5026654,21.0913025 C49.4596697,22.2960546 50.2371756,24.1791582 51.8274054,24.2958346 C55.3898453,24.5536082 58.1205977,27.4813729 58.1260159,31.0576416 C58.1260159,34.6366237 55.3925544,37.5779555 51.8274054,37.8330157 C50.2453028,37.9551189 49.4677969,39.8273688 50.5026654,41.032121 C52.8351831,43.7373865 52.6943109,47.7369465 50.1775758,50.2658406 C47.6527134,52.7947347 43.6541117,52.9412586 40.9504501,50.6077297 C39.7476186,49.5739221 37.8783536,50.3472427 37.7591541,51.9345851 C37.4936642,55.4972868 34.565149,58.2242595 31,58.2269729 C27.4267238,58.2296863 24.4873722,55.5027136 24.2273005,51.9345851 C24.1108101,50.3445293 22.238836,49.5630685 21.0305864,50.6023029 C18.3296338,52.9331184 14.3391593,52.7893079 11.814297,50.2658406 C9.29214367,47.7369465 9.1539806,43.7373865 11.4892074,41.032121 C12.5322031,39.8273688 11.7546972,37.9415519 10.1644674,37.8275888 C6.60473652,37.5671019 3.87669317,34.6339103 3.8739841,31.0576416 C3.8739841,27.4813729 6.60202744,24.5481814 10.1644674,24.2876944 C11.7546972,24.171018 12.5322031,22.2906278 11.4892074,21.0831623 C9.15668968,18.3806102 9.29485275,14.3783368 11.814297,11.8494427 C14.3391593,9.31783517 18.3431792,9.16859786 21.0468409,11.5075536 C22.2523814,12.5413611 24.1216464,11.7680405 24.2408459,10.1806982 C24.5036267,6.6179965 27.4321419,3.89373718 31,3.89102377 Z" id="Fill-9"></path>
            </g>
        </g>
    </g>
</svg>