<?xml version="1.0" encoding="UTF-8"?>
<svg width="73px" height="83px" viewBox="0 0 73 83" version="1.1" xmlns="http://www.w3.org/2000/svg" xmlns:xlink="http://www.w3.org/1999/xlink">
    <!-- Generator: Sketch 50.2 (55047) - http://www.bohemiancoding.com/sketch -->
    <title>Chemistry</title>
    <desc>Created with Sketch.</desc>
    <defs></defs>
    <g id="Everyday-Mysteries" stroke="none" stroke-width="1" fill="none" fill-rule="evenodd">
        <g id="Everyday-Mysteries---Home" transform="translate(-858.000000, -1745.000000)" fill="#FFFFFF">
            <g id="Chemistry" transform="translate(858.000000, 1745.000000)">
                <path d="M23,0 L49,0 C51.7614237,-5.07265313e-16 54,2.23857625 54,5 C54,7.76142375 51.7614237,10 49,10 L23,10 C20.2385763,10 18,7.76142375 18,5 C18,2.23857625 20.2385763,5.07265313e-16 23,0 Z M23,3 C21.8954305,3 21,3.8954305 21,5 C21,6.1045695 21.8954305,7 23,7 L49,7 C50.1045695,7 51,6.1045695 51,5 C51,3.8954305 50.1045695,3 49,3 L23,3 Z" id="Combined-Shape"></path>
                <g id="Group-15" transform="translate(0.000000, 7.000000)" fill-rule="nonzero">
                    <path d="M28.8909705,3.5 L28.8909705,25.6754423 L4.57944066,62.4128651 C3.87540629,63.4767393 3.5,64.7242678 3.5,66 C3.5,69.5898509 6.41014913,72.5 10,72.5 L62.781941,72.5 C64.0576732,72.5 65.3052017,72.1245937 66.3690759,71.4205593 C69.3627681,69.4394395 70.1836202,65.4065574 68.2025004,62.4128651 L43.8909705,25.6754423 L43.8909705,3.5 L28.8909705,3.5 Z M47.3909705,24.6222222 L71.1212631,60.481331 C74.1691398,65.0870114 72.9062904,71.2914453 68.30061,74.3393221 C66.6638806,75.4224519 64.7446059,76 62.781941,76 L10,76 C4.4771525,76 0,71.5228475 0,66 C0,64.0373351 0.577548141,62.1180605 1.66067794,60.481331 L25.3909705,24.6222222 L25.3909705,0 L47.3909705,0 L47.3909705,24.6222222 Z" id="Combined-Shape"></path>
                    <path d="M28,10.5 C27.1715729,10.5 26.5,9.82842712 26.5,9 C26.5,8.17157288 27.1715729,7.5 28,7.5 L39,7.5 C39.8284271,7.5 40.5,8.17157288 40.5,9 C40.5,9.82842712 39.8284271,10.5 39,10.5 L28,10.5 Z" id="Line-2"></path>
                    <path d="M28,25.5 C27.1715729,25.5 26.5,24.8284271 26.5,24 C26.5,23.1715729 27.1715729,22.5 28,22.5 L39,22.5 C39.8284271,22.5 40.5,23.1715729 40.5,24 C40.5,24.8284271 39.8284271,25.5 39,25.5 L28,25.5 Z" id="Line-2"></path>
                    <path d="M10,54.5 C9.17157288,54.5 8.5,53.8284271 8.5,53 C8.5,52.1715729 9.17157288,51.5 10,51.5 L63.5023364,51.5 C64.3307635,51.5 65.0023364,52.1715729 65.0023364,53 C65.0023364,53.8284271 64.3307635,54.5 63.5023364,54.5 L10,54.5 Z" id="Line-2"></path>
                    <path d="M28,18.5 C27.1715729,18.5 26.5,17.8284271 26.5,17 C26.5,16.1715729 27.1715729,15.5 28,15.5 L36,15.5 C36.8284271,15.5 37.5,16.1715729 37.5,17 C37.5,17.8284271 36.8284271,18.5 36,18.5 L28,18.5 Z" id="Line-2"></path>
                </g>
            </g>
        </g>
    </g>
</svg>