<?xml version="1.0" encoding="UTF-8"?>
<svg width="88px" height="105px" viewBox="0 0 88 105" version="1.1" xmlns="http://www.w3.org/2000/svg" xmlns:xlink="http://www.w3.org/1999/xlink">
    <!-- Generator: Sketch 50.2 (55047) - http://www.bohemiancoding.com/sketch -->
    <title>Geography</title>
    <desc>Created with Sketch.</desc>
    <defs></defs>
    <g id="Everyday-Mysteries" stroke="none" stroke-width="1" fill="none" fill-rule="evenodd">
        <g id="Everyday-Mysteries---Home" transform="translate(-1047.000000, -1726.000000)" fill="#FFFFFF">
            <g id="Geography" transform="translate(1047.000000, 1726.000000)">
                <path d="M21.9075084,93.9473684 L73.8903624,93.9473684 C76.7611493,93.9473684 79.0886076,96.1967127 79.0886076,98.9711504 L79.0886076,99.976218 C79.0886076,102.750656 76.7611493,105 73.8903624,105 L21.9075084,105 C19.0363191,105 16.7088608,102.750656 16.7088608,99.976218 L16.7088608,98.9711504 C16.7088608,96.1967127 19.0363191,93.9473684 21.9075084,93.9473684 Z M23.2440965,97.2632357 C22.0958623,97.2632357 21.164557,98.1628956 21.164557,99.2725929 L21.164557,99.6747755 C21.164557,100.784473 22.0958623,101.684522 23.2440965,101.684522 L72.5537743,101.684522 C73.7020086,101.684522 74.6329114,100.784473 74.6329114,99.6747755 L74.6329114,99.2725929 C74.6329114,98.1628956 73.7020086,97.2632357 72.5537743,97.2632357 L23.2440965,97.2632357 Z" id="Fill-1"></path>
                <path d="M49.008231,77.3684211 C38.5932004,77.3684211 28.8023955,73.3445411 21.4404765,66.0398755 C14.0785575,58.7352099 10.0253165,49.0211542 10.0253165,38.6834011 C10.0261214,28.3480764 14.0793625,18.6340206 21.4404765,11.3309739 C28.8036029,4.02387994 38.5936029,0 49.0070236,0 C59.4224566,0 69.213664,4.02428468 76.5784002,11.3309739 C83.9435389,18.6388774 87.9999997,28.3533379 87.9999997,38.6834011 C88.0012071,49.0150831 83.9443438,58.7299484 76.5784002,66.0398755 C69.2160788,73.3441364 59.4240665,77.3684211 49.008231,77.3684211 M49.0070236,3.8008707 C39.6174779,3.8008707 30.7889706,7.4293241 24.1494792,14.0184174 C17.5132075,20.6034633 13.8580059,29.3635576 13.8567985,38.6838058 C13.8567985,48.0044587 17.5124025,56.7657672 24.1494792,63.3516226 C30.7881657,69.9378827 39.6170754,73.5659314 49.008231,73.5659314 C58.4013988,73.5659314 67.2299061,69.9378827 73.8689951,63.3516226 C80.5113038,56.7605056 84.1693227,48.0004113 84.1681153,38.6838058 C84.1681153,29.3680097 80.5096939,20.6087249 73.8689951,14.0184174 C67.2282962,7.4293241 58.398984,3.8008707 49.0070236,3.8008707" id="Fill-7"></path>
                <path d="M66.8292972,68.5263158 C57.6381432,68.5263158 45.4253072,62.610135 34.662095,52.132166 C27.4270354,45.0892449 22.023187,37.063406 19.4447176,29.5326016 C16.71647,21.5639737 17.4478117,15.00099 21.5048812,11.0526316 L24.2241503,13.6998354 C21.2951102,16.5516483 20.8825061,21.8913482 23.092856,28.3478557 C25.4860413,35.3383333 30.560541,42.8445051 37.381364,49.4845648 C50.9095542,62.6542352 67.7406176,68.5179725 74.1410823,62.2934876 L76.8607595,64.9406915 C74.3651374,67.37097 70.8924883,68.5263158 66.8292972,68.5263158" id="Fill-15"></path>
                <path d="M76.5204177,65.2105263 L73.8007414,62.5633162 C80.1958987,56.3364327 74.1688609,39.9509846 60.6410831,26.7808858 C53.8186298,20.140413 46.1093433,15.1991924 38.9318301,12.8690277 C32.2020188,10.6838775 26.858165,11.0736289 23.8838252,13.9695488 L21.164557,11.3223387 C25.2224414,7.37238172 31.9657204,6.65883086 40.14842,9.3167681 C47.8809691,11.827307 56.1236616,17.0887514 63.3603513,24.132881 C78.8801369,39.2422014 84.6606734,57.2855825 76.5204177,65.2105263" id="Fill-23"></path>
                <polygon id="Fill-31" points="24.1352433 12.1578947 76.8607595 64.4738671 73.8904797 67.4210526 21.164557 15.1054837"></polygon>
                <polygon id="Fill-39" points="73.8900948 11.0526316 76.8607595 13.9998171 24.1348151 66.3157895 21.164557 63.3682005"></polygon>
                <path d="M12.8657987,45.3157895 L11.1392405,41.9276306 C19.7135717,37.6260832 27.5207217,32.01226 34.3448708,25.2411071 C41.1774283,18.4612137 46.8371917,10.7127073 51.1668005,2.21052632 L54.5822785,3.92248417 C50.0692829,12.7850146 44.1708766,20.8604974 37.0504258,27.9256509 C29.9395849,34.9820639 21.8016981,40.8326768 12.8657987,45.3157895" id="Fill-47"></path>
                <path d="M46.858147,76.2631579 L43.443038,74.5511843 C47.9620813,65.677845 53.8589404,57.6046716 60.967044,50.5509747 C68.08716,43.4865507 76.2259226,37.6342946 85.1603027,33.1578947 L86.8860759,36.5472767 C78.3144686,40.8425069 70.5052445,46.4567792 63.6730244,53.2355432 C56.851215,60.0039774 51.1946028,67.7513633 46.858147,76.2631579" id="Fill-55"></path>
                <path d="M49.2325448,87.3157895 C36.6192659,87.3157895 24.005987,82.5519075 14.4039588,73.0241435 C-4.8013196,53.9686156 -4.8013196,22.963367 14.4039588,3.90783904 C15.1987302,3.11843962 16.4892663,3.11843962 17.2840377,3.90783904 C18.0796238,4.69723845 18.0796238,5.97693049 17.2840377,6.76592571 C-0.332105276,24.2454842 -0.332105276,52.6864983 17.2840377,70.1656526 C34.900588,87.6448069 63.5640943,87.6456153 81.1814594,70.1656526 C81.9762308,69.3766574 83.2667668,69.3766574 84.0615382,70.1656526 C84.8571244,70.9550521 84.8571244,72.2347441 84.0615382,73.0241435 C74.4595101,82.5519075 61.8462311,87.3157895 49.2325448,87.3157895" id="Fill-63"></path>
                <path d="M47.3417722,96.1578947 C46.4187747,96.1578947 45.6708861,95.2505105 45.6708861,94.1315789 L45.6708861,86.0263158 C45.6708861,84.9069789 46.4187747,84 47.3417722,84 C48.2647696,84 49.0126582,84.9069789 49.0126582,86.0263158 L49.0126582,94.1315789 C49.0126582,95.2505105 48.2647696,96.1578947 47.3417722,96.1578947" id="Fill-65"></path>
            </g>
        </g>
    </g>
</svg>