<?xml version="1.0" encoding="UTF-8"?>
<svg width="78px" height="104px" viewBox="0 0 78 104" version="1.1" xmlns="http://www.w3.org/2000/svg" xmlns:xlink="http://www.w3.org/1999/xlink">
    <!-- Generator: Sketch 50.2 (55047) - http://www.bohemiancoding.com/sketch -->
    <title>Home Economics</title>
    <desc>Created with Sketch.</desc>
    <defs></defs>
    <g id="Everyday-Mysteries" stroke="none" stroke-width="1" fill="none" fill-rule="evenodd">
        <g id="Everyday-Mysteries---Home" transform="translate(-71.000000, -1992.000000)" fill="#FFFFFF">
            <g id="Home-Economics" transform="translate(71.000000, 1991.000000)">
                <path d="M22.2496578,9.98179008 C20.4795573,9.71187063 18.7457087,10.6511899 18.0049874,12.2813569 L4.35831219,42.3147314 C4.12217377,42.8344209 4,43.3986322 4,43.9694549 C4,46.1785939 5.790861,47.9694549 8,47.9694549 L69.2187386,47.9694549 C69.4683163,47.9694549 69.7173462,47.9460966 69.9625706,47.8996857 C72.1331772,47.4888786 73.5597765,45.3962294 73.1489694,43.2256229 L68.7096818,19.7694877 C68.3940578,18.1018056 67.0603248,16.814888 65.3824337,16.5590294 L22.2496578,9.98179008 Z M22.8526405,6.02749976 L65.9854163,12.6047391 C69.3411986,13.1164563 72.0086645,15.6902914 72.6399126,19.0256557 L77.0792002,42.4817908 C77.9008143,46.8230039 75.0476157,51.0083023 70.7064027,51.8299164 C70.2159538,51.9227383 69.7178939,51.9694549 69.2187386,51.9694549 L8,51.9694549 C3.581722,51.9694549 -9.09494702e-13,48.3877329 -9.09494702e-13,43.9694549 C-9.09494702e-13,42.8278096 0.244347539,41.6993868 0.71662438,40.6600079 L14.3632996,10.6266334 C15.8447422,7.36629931 19.3124393,5.48766085 22.8526405,6.02749976 Z" id="Rectangle-7" fill-rule="nonzero"></path>
                <path d="M28.7002815,22.3817738 C27.0434273,22.3817738 25.7002815,23.7249196 25.7002815,25.3817738 C25.7002815,27.0386281 27.0434273,28.3817738 28.7002815,28.3817738 L55.7002815,28.3817738 C57.3571358,28.3817738 58.7002815,27.0386281 58.7002815,25.3817738 C58.7002815,23.7249196 57.3571358,22.3817738 55.7002815,22.3817738 L28.7002815,22.3817738 Z M28.7002815,18.3817738 L55.7002815,18.3817738 C59.5662748,18.3817738 62.7002815,21.5157806 62.7002815,25.3817738 C62.7002815,29.2477671 59.5662748,32.3817738 55.7002815,32.3817738 L28.7002815,32.3817738 C24.8342883,32.3817738 21.7002815,29.2477671 21.7002815,25.3817738 C21.7002815,21.5157806 24.8342883,18.3817738 28.7002815,18.3817738 Z" id="Rectangle-7" fill-rule="nonzero" transform="translate(42.200282, 25.381774) rotate(7.000000) translate(-42.200282, -25.381774) "></path>
                <path d="M20.1446771,66.4356292 C15.8392469,66.4356292 12.2137605,69.6547873 11.704377,73.9299782 L9.55969988,91.9299782 C9.51993496,92.2637201 9.5,92.5995267 9.5,92.9356292 C9.5,97.6300496 13.3055796,101.435629 18,101.435629 L31.0110252,101.435629 C31.3442801,101.435629 31.6772467,101.416031 32.0082004,101.376935 C36.6702048,100.82621 40.0030555,96.6004584 39.4523308,91.938454 L37.3259827,73.938454 C36.8205103,69.6595203 33.1933631,66.4356292 28.884677,66.4356292 L20.1446771,66.4356292 Z M20.1446771,62.9356292 L28.884677,62.9356292 C34.967528,62.9356292 40.0882064,67.4870048 40.8018144,73.5278524 L42.9281626,91.5278524 C43.7056563,98.1095056 39.0004553,104.075273 32.418802,104.852767 C31.9515732,104.907961 31.4815027,104.935629 31.0110252,104.935629 L18,104.935629 C11.372583,104.935629 6,99.5630462 6,92.9356292 C6,92.4611316 6.02814348,91.9870516 6.08428219,91.5158866 L8.22895926,73.5158866 C8.94808897,67.480323 14.0664227,62.9356292 20.1446771,62.9356292 Z" id="Rectangle-8" fill-rule="nonzero"></path>
                <rect id="Rectangle-9" x="23" y="50.9356292" width="3.5" height="13"></rect>
                <path d="M25.029724,66.4356292 C23.7661322,66.4356292 22.715818,67.4089872 22.6198531,68.6689297 L20.5137298,96.3206448 C20.5045799,96.4407752 20.5,96.5612099 20.5,96.6816882 C20.5,99.3072174 22.6284119,101.435629 25.253941,101.435629 C25.3887105,101.435629 25.5234167,101.429791 25.6576809,101.418131 C28.225293,101.195152 30.1259933,98.9329304 29.9030139,96.3653183 L27.5005765,68.701205 C27.3892648,67.4194482 26.3163051,66.4356292 25.029724,66.4356292 Z M25.029724,62.9356292 C28.1319331,62.9356292 30.7190574,65.307817 30.9874527,68.3983939 L33.3898901,96.0625071 C33.7801075,100.555868 30.4538527,104.51479 25.960492,104.905007 C25.7255277,104.925412 25.4897897,104.935629 25.253941,104.935629 C20.6954153,104.935629 17,101.240214 17,96.6816882 C17,96.4725101 17.0079517,96.2634075 17.023838,96.0548334 L19.1299614,68.4031182 C19.3648993,65.3185707 21.9362422,62.9356292 25.029724,62.9356292 Z" id="Rectangle-8" fill-rule="nonzero"></path>
                <path d="M32.115827,7.5 L39.4320231,7.5 L39.4320231,5.5 L32.115827,5.5 L32.115827,7.5 Z M31.615827,2 L39.9320231,2 C41.5888774,2 42.9320231,3.34314575 42.9320231,5 L42.9320231,8 C42.9320231,9.65685425 41.5888774,11 39.9320231,11 L31.615827,11 C29.9589728,11 28.615827,9.65685425 28.615827,8 L28.615827,5 C28.615827,3.34314575 29.9589728,2 31.615827,2 Z" id="Rectangle-10" fill-rule="nonzero" transform="translate(35.773925, 6.500000) rotate(9.000000) translate(-35.773925, -6.500000) "></path>
            </g>
        </g>
    </g>
</svg>