<svg xmlns="http://www.w3.org/2000/svg" xmlns:xlink="http://www.w3.org/1999/xlink" width="112" height="101" version="1.1" viewBox="0 0 112 101"><title>Meteorology</title><desc>Created with Sketch.</desc><g id="Everyday-Mysteries" fill="none" fill-rule="evenodd" stroke="none" stroke-width="1"><g id="Everyday-Mysteries---Home" fill="#FFF" transform="translate(-250.000000, -1994.000000)"><g id="Meteorology" transform="translate(250.000000, 1994.000000)"><path id="Fill-4" d="M77,11 C78.1045,11 79,10.1045 79,9 L79,2 C79,0.8955 78.1045,0 77,0 C75.8955,0 75,0.8955 75,2 L75,9 C75,10.1045 75.8955,11 77,11"/><path id="Fill-1" d="M74.6946542,35.364 C73.2123056,30.3455185 69.7460483,26.248963 65.2530241,23.8526296 C68.3107292,20.2577407 72.8423753,18.1481481 77.6380697,18.1481481 C86.5476622,18.1481481 93.7962466,25.3008519 93.7962466,34.0925926 C93.7962466,38.2855926 92.1176354,42.2727407 89.2020697,45.225963 C86.5405684,39.7719259 81.0959196,35.8796667 74.6946542,35.364 M98,34.0925926 C98,23.0136667 88.8657694,14 77.6380697,14 C71.1398552,14 65.0273351,17.0737778 61.1958767,22.2415926 C59.5346059,21.7878889 57.7910992,21.5431481 55.9979357,21.5431481 C55.220504,21.5431481 54.4336139,21.5908519 53.6469866,21.686 C48.4897694,17.3900741 41.9855121,15.037037 35.203807,15.037037 C27.9786059,15.037037 21.0805094,17.701963 15.7803646,22.541037 C10.7844665,27.1019259 7.62455764,33.2033333 6.80640214,39.8198889 C2.52435389,43.048963 0,48.0467037 0,53.4035185 C0,61.1367037 5.28411796,67.929037 12.8500858,69.9211852 L13.149866,70 L21.3834424,70 C22.689496,70 23.7480536,68.9554444 23.7480536,67.6666667 C23.7480536,66.3778889 22.689496,65.3333333 21.3834424,65.3333333 L13.783319,65.3333333 C8.43745845,63.7917778 4.72922252,58.9280741 4.72922252,53.4035185 C4.72922252,49.2341111 6.83425201,45.3625926 10.3596247,43.0476667 L11.3120375,42.4225926 L11.4063592,41.2976667 C11.8984611,35.4277778 14.5925416,29.9830741 18.9917694,25.9663704 C23.4154316,21.9278889 29.1729973,19.7037037 35.203807,19.7037037 C41.1844343,19.7037037 46.9067936,21.896 51.3167936,25.8769259 L52.1822413,26.6580741 L53.3364343,26.4509259 C54.2268418,26.290963 55.1222413,26.2098148 55.9979357,26.2098148 C63.0967614,26.2098148 69.1935174,31.2010741 70.4943164,38.0776667 L70.8650349,40.0363704 L73.0260268,39.9775185 C73.0977534,39.9751852 73.1692172,39.9723333 73.2417319,39.9723333 C80.3973083,39.9723333 86.2187185,45.717 86.2187185,52.7779259 C86.2187185,58.8992963 81.8433995,64.1472222 75.7855282,65.3333333 L70.4664665,65.3333333 C69.1606756,65.3333333 68.1018552,66.3778889 68.1018552,67.6666667 C68.1018552,68.9554444 69.1606756,70 70.4664665,70 L76.2216676,70 L76.4318552,69.9621481 C84.8430402,68.4498889 90.947941,61.2227778 90.947941,52.7779259 C90.947941,51.6758148 90.8415335,50.5978148 90.6429062,49.5517037 C95.2772815,45.7504444 98,40.0884815 98,34.0925926"/><path id="Fill-7" d="M110,32 L103,32 C101.8955,32 101,32.8955 101,34 C101,35.1045 101.8955,36 103,36 L110,36 C111.1045,36 112,35.1045 112,34 C112,32.8955 111.1045,32 110,32"/><path id="Fill-9" d="M97.814911,50.6544876 C96.9419816,49.7818375 95.527417,49.7818375 94.6544876,50.6544876 C93.7818375,51.5271376 93.7818375,52.9419816 94.6544876,53.8146317 L100.18481,59.3452331 C100.621414,59.7815581 101.193218,60 101.765301,60 C102.337104,60 102.908908,59.7815581 103.345512,59.3452331 C104.218163,58.472583 104.218163,57.057739 103.345512,56.185089 L97.814911,50.6544876 Z"/><path id="Fill-11" d="M95.2346993,19 C95.8067823,19 96.378586,18.7818375 96.814911,18.3455124 L102.345512,12.814911 C103.218163,11.942261 103.218163,10.5271376 102.345512,9.65448756 C101.472583,8.78183748 100.058018,8.78183748 99.185089,9.65448756 L93.6544876,15.185089 C92.7818375,16.057739 92.7818375,17.4728624 93.6544876,18.3455124 C94.0908126,18.7818375 94.6626163,19 95.2346993,19"/><path id="Fill-13" d="M58.185089,17.3454942 C58.621414,17.7818314 59.1932177,18 59.7653007,18 C60.3373837,18 60.9091874,17.7818314 61.3455124,17.3454942 C62.2181625,16.4728197 62.2181625,15.0579362 61.3455124,14.1852617 L55.8151904,8.65450584 C54.942261,7.78183139 53.527417,7.78183139 52.6544876,8.65450584 C51.7818375,9.52718029 51.7818375,10.9420638 52.6544876,11.8147383 L58.185089,17.3454942 Z"/><path id="Fill-15" d="M63.8739455,57.2494476 C62.8265692,56.7102223 61.5139728,57.0741229 60.9424802,58.0623627 L48.2643115,79.984569 C47.6928189,80.9728088 48.0787655,82.2112939 49.1261418,82.7505191 C49.454561,82.9197278 49.8094481,83 50.1592038,83 C50.9240747,83 51.6654486,82.6159677 52.0576071,81.937604 L64.7355057,60.0153977 C65.3072684,59.0271579 64.9213218,57.7886728 63.8739455,57.2494476"/><path id="Fill-17" d="M50.9088665,57.2552434 C49.8939712,56.7034894 48.6220808,57.0758451 48.0683113,58.0870465 L26.2561758,97.9145062 C25.7024063,98.9257075 26.0761222,100.192969 27.0910175,100.744723 C27.4095135,100.917863 27.753395,101 28.0920423,101 C28.8331933,101 29.5518376,100.606784 29.9318344,99.9129195 L51.7437082,60.0854598 C52.2977394,59.0742585 51.9237618,57.8069974 50.9088665,57.2552434"/><path id="Fill-19" d="M28.0575843,81.9376037 L40.7355108,60.0156456 C41.3072625,59.0271507 40.9213233,57.7886652 39.873967,57.2494398 C38.8266108,56.7102144 37.5140394,57.0741151 36.9422877,58.06261 L24.2643612,79.9845681 C23.6928795,80.9728082 24.0785486,82.2112937 25.126175,82.7505191 C25.4545879,82.9197278 25.8094683,83 26.1592172,83 C26.9240736,83 27.6654333,82.6159676 28.0575843,81.9376037"/></g></g></g></svg>