<?xml version="1.0" encoding="UTF-8"?>
<svg width="117px" height="56px" viewBox="0 0 117 56" version="1.1" xmlns="http://www.w3.org/2000/svg" xmlns:xlink="http://www.w3.org/1999/xlink">
    <!-- Generator: Sketch 50.2 (55047) - http://www.bohemiancoding.com/sketch -->
    <title>Motor Vechicles</title>
    <desc>Created with Sketch.</desc>
    <defs></defs>
    <g id="Everyday-Mysteries" stroke="none" stroke-width="1" fill="none" fill-rule="evenodd">
        <g id="Everyday-Mysteries---Home" transform="translate(-444.000000, -2015.000000)" fill="#FFFFFF" fill-rule="nonzero">
            <g id="Motor-Vechicles" transform="translate(444.000000, 2015.000000)">
                <path d="M77.0526316,22 L73.9485924,22 C71.7711138,22 70,20.2503361 70,18.0977413 L70,16.9022587 C70,14.7484539 71.7698898,13 73.9485924,13 L77.0526316,13 C79.2301102,13 81,14.7484539 81,16.9022587 L81,18.0977413 C81,20.2503361 79.2301102,22 77.0526316,22 Z M73.9485924,16.4182576 C73.6780906,16.4182576 73.4602203,16.6348481 73.4602203,16.9010487 L73.4602203,18.0965313 C73.4602203,18.3675719 73.6756426,18.5805324 73.9485924,18.5805324 L77.0526316,18.5805324 C77.3231334,18.5805324 77.5410037,18.3639419 77.5410037,18.0965313 L77.5410037,16.9010487 C77.5410037,16.6348481 77.3219094,16.4182576 77.0526316,16.4182576 L73.9485924,16.4182576 Z" id="Shape"></path>
                <path d="M113.364361,32 L108.602141,32 C106.848431,32 105.804307,31.1345646 105.232471,30.4063325 C103.776254,28.5461741 104.000822,25.8456464 104.028603,25.5435356 L104.019343,18.8641161 C104.019343,17.8337731 104.749766,17 105.653824,17 C106.557882,17 107.289463,17.8324538 107.289463,18.8641161 L107.289463,25.7546174 C107.240845,26.3878628 107.289463,27.4432718 107.679562,27.9313984 C107.752489,28.0263852 107.950432,28.2730871 108.602141,28.2730871 L113.364361,28.2730871 C114.267262,28.2730871 115,29.1055409 115,30.1372032 C115,31.1688654 114.267262,32 113.364361,32 Z" id="Shape"></path>
                <path d="M46.2432097,20 L3.75803305,20 C2.78632476,20 2,19.1693501 2,18.1428665 C2,17.116383 2.78632476,16.2857331 3.75803305,16.2857331 L44.4851766,16.2857331 L44.4851766,1.85713347 C44.4851766,0.830649931 45.2715014,0 46.2419655,0 C47.2136738,0 47.9999985,0.830649931 47.9999985,1.85713347 L47.9999985,18.1428665 C48.0012427,19.1693501 47.2149179,20 46.2432097,20 Z" id="Shape"></path>
                <path d="M71,20 L30.758033,20 C29.7863248,20 29,19.1693501 29,18.1428665 C29,17.116383 29.7863248,16.2857331 30.758033,16.2857331 L71,16.2857331 L71,20 Z" id="Combined-Shape"></path>
                <path d="M14.5669781,20 C14.1842948,20 13.7993931,19.8330888 13.4954649,19.4992665 C12.865424,18.7987653 12.831038,17.6251301 13.4222559,16.8733728 L26.2892878,0.587048758 C26.8793965,-0.159451567 27.8721546,-0.200193662 28.5055231,0.500307523 C29.1344548,1.20080871 29.1688408,2.37575816 28.5776229,3.12620127 L15.710591,19.411211 C15.4022259,19.8041751 14.9851566,20 14.5669781,20 Z" id="Shape"></path>
                <g id="Group-18" transform="translate(11.000000, 33.000000)">
                    <path d="M11.4959209,17 C8.46514215,17 6,14.5321384 6,11.5 C6,8.46786156 8.46514215,6 11.4959209,6 C14.5307787,6 17,8.46786156 17,11.5 C17,14.5321384 14.5307787,17 11.4959209,17 Z M11.4959209,9.84252163 C10.5849197,9.84252163 9.84252163,10.5862794 9.84252163,11.5013597 C9.84252163,12.4177998 10.5849197,13.1601978 11.4959209,13.1601978 C12.4110012,13.1601978 13.1588381,12.4177998 13.1588381,11.5013597 C13.1574784,10.5862794 12.4110012,9.84252163 11.4959209,9.84252163 Z" id="Shape"></path>
                    <path d="M11.5029782,23 C5.15942404,23 0,17.839652 0,11.4964264 C0,5.15677439 5.15942404,0 11.5029782,0 C17.8429585,0 23,5.15677439 23,11.4964264 C23,17.839652 17.8429585,23 11.5029782,23 Z M11.5029782,3.3639942 C7.01543482,3.3639942 3.36535971,7.01268904 3.36535971,11.4952351 C3.36535971,15.9825461 7.01543482,19.6336234 11.5029782,19.6336234 C15.9869477,19.6336234 19.6346403,15.9825461 19.6346403,11.4952351 C19.6346403,7.01268904 15.9857565,3.3639942 11.5029782,3.3639942 Z" id="Shape"></path>
                </g>
                <g id="Group-14" transform="translate(79.500000, 33.000000)">
                    <path d="M11.4959209,17 C8.46514215,17 6,14.5321384 6,11.5 C6,8.46786156 8.46514215,6 11.4959209,6 C14.5307787,6 17,8.46786156 17,11.5 C17,14.5321384 14.5307787,17 11.4959209,17 Z M11.4959209,9.84252163 C10.5849197,9.84252163 9.84116193,10.5862794 9.84116193,11.5013597 C9.84116193,12.4177998 10.5849197,13.1601978 11.4959209,13.1601978 C12.4123609,13.1601978 13.1588381,12.4177998 13.1588381,11.5013597 C13.1588381,10.5862794 12.4123609,9.84252163 11.4959209,9.84252163 Z" id="Shape"></path>
                    <path d="M11.5011912,23 C5.16034804,23 0,17.839652 0,11.4964264 C0,5.15677439 5.16034804,0 11.5011912,0 C17.8408432,0 23,5.15677439 23,11.4964264 C23,17.839652 17.8408432,23 11.5011912,23 Z M11.5011912,3.3639942 C7.01268904,3.3639942 3.36518542,7.01268904 3.36518542,11.4952351 C3.36518542,15.9825461 7.01388026,19.6336234 11.5011912,19.6336234 C15.987311,19.6336234 19.6348146,15.9825461 19.6348146,11.4952351 C19.6348146,7.01268904 15.9861197,3.3639942 11.5011912,3.3639942 Z" id="Shape"></path>
                </g>
                <path d="M113.259683,48 L101.124184,48 C100.616516,48 100.131245,47.7756654 99.8002659,47.3865653 C99.4655535,46.9949303 99.3149952,46.47782 99.3846751,45.9683143 C99.4605764,45.4081115 99.511592,45.0836502 99.511592,44.7363752 C99.511592,39.9657795 95.700351,36.0849176 91.0156227,36.0849176 C86.3271615,36.0849176 82.5171647,39.9670469 82.5171647,44.7363752 C82.5171647,44.9885932 82.544539,45.234474 82.5756461,45.4752852 C82.6751888,45.6983523 82.7311815,45.9467681 82.7311815,46.2091255 C82.7311815,47.1977186 81.9435499,48 80.9730086,48 C80.9518558,48 80.9257258,48 80.904573,48 L32.5952568,48 C32.0875891,48 31.6023184,47.7756654 31.2700947,47.3865653 C30.9366266,46.9949303 30.7860683,46.47782 30.8545039,45.9683143 C30.9304052,45.4081115 30.9826651,45.0836502 30.9826651,44.7363752 C30.9826651,39.9657795 27.171424,36.0849176 22.4891843,36.0849176 C17.8019675,36.0849176 13.9894821,39.9670469 13.9894821,44.7363752 C13.9894821,44.9885932 14.015612,45.234474 14.0479634,45.4752852 C14.1475061,45.6983523 14.2022546,45.9467681 14.2022546,46.2091255 C14.2022546,47.1977186 13.4158673,48 12.4440817,48 C12.4229289,48 12.3992875,48 12.3756461,48 L7.37113687,48 C1.54042327,48 0,41.6552598 0,38.3016477 L0,19.1204056 C0,18.652725 0.181665426,18.2015209 0.501446347,17.869455 L17.1823142,0.538656527 C17.5157822,0.192648923 17.9649686,0 18.4390407,0 L68.4915984,0 C69.0303733,0 69.5392853,0.252217997 69.8715091,0.683143219 L81.6100819,15.8136882 L101.364331,15.8136882 C115.632532,15.8136882 116.937786,24.8986058 116.985069,25.287706 L117,40.8238276 C117,41.0380228 116.961427,41.2509506 116.885526,41.4550063 L114.904626,46.8390368 C114.650792,47.5386565 113.991322,48 113.259683,48 Z M103.021716,44.418251 L112.041529,44.418251 L113.483654,40.4980989 L113.483654,25.513308 C113.457524,25.5031686 112.394906,19.3929024 101.364331,19.3929024 L80.7589918,19.3929024 C80.2189727,19.3929024 79.7113049,19.1406844 79.3790811,18.7110266 L67.6405083,3.5792142 L19.1781453,3.5792142 L3.51634585,19.851711 L3.51634585,38.3016477 C3.51634585,38.5462611 3.59224716,44.418251 7.37238115,44.418251 L10.4756248,44.418251 C10.6436031,37.8187579 15.9654047,32.504436 22.48794,32.504436 C29.004254,32.504436 34.3248112,37.8187579 34.4927895,44.418251 L79.0033075,44.418251 C79.17253,37.8187579 84.4930873,32.504436 91.0131341,32.504436 C97.5319366,32.5031686 102.853738,37.8187579 103.021716,44.418251 Z" id="Shape"></path>
                <path d="M58.1991658,26 L50.8008342,26 C49.8054687,26 49,25.1054494 49,24 C49,22.895966 49.8054687,22 50.8008342,22 L58.1991658,22 C59.1945313,22 60,22.8945506 60,24 C60,25.1054494 59.1945313,26 58.1991658,26 Z" id="Shape"></path>
                <path d="M29.1989571,26 L21.7997683,26 C20.8042874,26 20,25.1054494 20,24 C20,22.895966 20.8042874,22 21.7997683,22 L29.1989571,22 C30.194438,22 31,22.8945506 31,24 C31,25.1054494 30.194438,26 29.1989571,26 Z" id="Shape"></path>
                <path d="M9.07612328,36 L1.92251516,36 C0.859140983,36 0,35.2164642 0,34.2482023 L0,22.7517977 C0,21.7847756 0.859140983,21 1.92251516,21 L9.07612328,21 C10.1394975,21 11,21.7835358 11,22.7517977 L11,34.2482023 C11,35.2177039 10.140859,36 9.07612328,36 Z M3.84775343,32.4976444 L7.15360812,32.4976444 L7.15360812,24.5035953 L3.84775343,24.5035953 L3.84775343,32.4976444 Z" id="Shape"></path>
            </g>
        </g>
    </g>
</svg>