<svg xmlns="http://www.w3.org/2000/svg" xmlns:xlink="http://www.w3.org/1999/xlink" width="92" height="104" version="1.1" viewBox="0 0 92 104"><title>Physics</title><desc>Created with Sketch.</desc><g id="Everyday-Mysteries" fill="none" fill-rule="evenodd" stroke="none" stroke-width="1"><g id="Everyday-Mysteries---Home" transform="translate(-652.000000, -1992.000000)"><g id="Physics" transform="translate(652.000000, 1992.000000)"><path id="Fill-3" fill="#FFF" d="M87.384233,76.1428571 C85.5911583,79.2814286 81.0316466,81.0093143 74.5474651,81.0093143 C71.653844,81.0093143 68.4779183,80.6512571 65.1299634,79.9893714 C66.4179777,75.3814286 67.4008973,70.2839429 68.0052053,64.8373143 C72.3765141,61.5813714 76.2567306,58.1694286 79.5642513,54.7344571 C87.099723,63.5090857 89.9712891,71.6144 87.384233,76.1428571 M46.0001576,100.285714 C40.8253103,100.285714 35.3144912,93.7203429 31.5614587,82.7394286 C36.1591992,81.562 41.0245408,79.8668 46.0001576,77.6701714 C50.9757745,79.8668 55.8418513,81.5627429 60.4388566,82.7394286 C56.6850889,93.7203429 51.175005,100.285714 46.0001576,100.285714 M17.4528502,81.0093143 C10.9679335,81.0093143 6.40915692,79.2814286 4.61681741,76.1428571 C2.02902615,71.6144 4.90059225,63.5090857 12.4360639,54.7344571 C15.7435846,58.1694286 19.6245364,61.5813714 23.9951099,64.8373143 C24.599418,70.2839429 25.5823376,75.3814286 26.8703519,79.9893714 C23.5223969,80.6512571 20.3464713,81.0093143 17.4528502,81.0093143 M23.553274,44.1636 C23.3849205,46.7197714 23.2967004,49.3361143 23.2967004,52 C23.2967004,54.6638857 23.3849205,57.2802286 23.553274,59.8364 C20.2920689,57.2408571 17.4065346,54.6052 14.9165207,52 C17.4065346,49.3948 20.2920689,46.7591429 23.553274,44.1636 M30.4542957,24.8151429 C34.0066274,25.7184571 37.7133443,26.9486286 41.4715229,28.4603429 C39.2027946,29.588 36.924509,30.8040571 34.648429,32.1322857 C32.3657325,33.4642286 30.1668451,34.8496571 28.0605888,36.2752 C28.6538694,32.1300571 29.4684355,28.2924571 30.4542957,24.8151429 M46.0001576,3.71428571 C51.175005,3.71428571 56.6858241,10.2796571 60.4388566,21.2613143 C55.8418513,22.438 50.9757745,24.1332 46.0001576,26.3305714 C41.025276,24.1332 36.1591992,22.4372571 31.5621939,21.2605714 C35.3152264,10.2789143 40.8253103,3.71428571 46.0001576,3.71428571 M68.4470413,44.1636 C71.7082464,46.7591429 74.5937807,49.3948 77.0837946,52 C74.5937807,54.6052 71.7082464,57.2408571 68.4470413,59.8364 C68.6153947,57.2802286 68.7043501,54.6638857 68.7043501,52 C68.7043501,49.3361143 68.6153947,46.7197714 68.4470413,44.1636 M50.5295275,28.4603429 C54.286971,26.9486286 57.9936879,25.7184571 61.5460195,24.8151429 C62.5318798,28.2932 63.3464459,32.1300571 63.9389913,36.2752 C61.8334702,34.8496571 59.635318,33.4642286 57.3518863,32.1322857 C55.0758062,30.8048 52.7975207,29.588 50.5295275,28.4603429 M41.4707878,75.5396571 C37.7133443,77.0513714 34.0066274,78.2815429 30.4535606,79.1848571 C29.4684355,75.7068 28.6538694,71.8699429 28.0605888,67.7248 C30.1668451,69.1503429 32.3657325,70.5357714 34.648429,71.8677143 C36.924509,73.1952 39.2027946,74.412 41.4707878,75.5396571 M63.9389913,67.7248 C63.3464459,71.8699429 62.5318798,75.7068 61.5460195,79.1848571 C57.9936879,78.2815429 54.286971,77.0513714 50.5287923,75.5396571 C52.7975207,74.412 55.0758062,73.1952 57.3518863,71.8677143 C59.635318,70.5357714 61.8334702,69.1503429 63.9389913,67.7248 M55.5139663,68.6511429 C52.3762694,70.4815429 49.1849053,72.1314286 46.0001576,73.5918857 C42.81541,72.1314286 39.6240458,70.4815429 36.4863489,68.6511429 C33.261167,66.7694857 30.2594762,64.8083429 27.4776006,62.8063429 C27.1519212,59.3706286 26.9725402,55.7633143 26.9725402,52 C26.9725402,48.2366857 27.1519212,44.6293714 27.4776006,41.1944 C30.2594762,39.1916571 33.261167,37.2305143 36.4863489,35.3488571 C39.6240458,33.5184571 42.81541,31.8693143 46.0001576,30.4073714 C49.1849053,31.8693143 52.3762694,33.5184571 55.5139663,35.3488571 C58.7391482,37.2305143 61.740839,39.1916571 64.5227146,41.1944 C64.8483941,44.6293714 65.0285102,48.2366857 65.0285102,52 C65.0285102,55.7633143 64.8483941,59.3706286 64.5227146,62.8063429 C61.740839,64.8083429 58.7391482,66.7694857 55.5139663,68.6511429 M74.5482003,22.9906857 C81.0323818,22.9906857 85.5911583,24.7185714 87.384233,27.8571429 C89.9712891,32.3856 87.099723,40.4901714 79.5642513,49.2655429 C76.2567306,45.8305714 72.3765141,42.4186286 68.0052053,39.1626857 C67.4008973,33.7160571 66.4179777,28.6185714 65.1299634,24.0113714 C68.4786535,23.3487429 71.6545791,22.9906857 74.5482003,22.9906857 M90.5675103,26 C87.9782487,21.4678286 82.1880658,19.2764 74.5474651,19.2764 C71.3391921,19.2764 67.7986231,19.6730857 64.038239,20.4352571 C59.8896861,8.01691429 53.354778,0 46.0001576,0 C38.6455373,0 32.1113643,8.01617143 27.9620763,20.4345143 C24.2031625,19.6723429 20.6633287,19.2764 17.4550557,19.2764 L17.4550557,22.9906857 C20.3486768,22.9906857 23.5231321,23.3487429 26.8703519,24.0106286 C25.5823376,28.6185714 24.599418,33.7153143 23.9951099,39.1626857 C19.6245364,42.4186286 15.7435846,45.8305714 12.4360639,49.2655429 C4.90059225,40.4901714 2.02902615,32.3856 4.61681741,27.8571429 C6.40915692,24.7193143 10.9679335,22.9914286 17.4528502,22.9906857 L17.4550557,19.2764 L17.4528502,19.2764 C9.81445496,19.2771429 4.02206652,21.4685714 1.43280493,26 C-2.24450526,32.4353714 1.35855296,42.1608571 9.92620049,52 C1.35855296,61.8391429 -2.24450526,71.5646286 1.43280493,78 C4.02206652,82.5321714 9.81224946,84.7236 17.4528502,84.7236 C20.6611232,84.7236 24.2016921,84.3276571 27.9620763,83.5647429 C32.1106292,95.9838286 38.6455373,104 46.0001576,104 C53.354778,104 59.8896861,95.9838286 64.038239,83.5647429 C67.7986231,84.3276571 71.3391921,84.7236 74.5474651,84.7236 C82.1865955,84.7236 87.9782487,82.5314286 90.5675103,78 C94.2440854,71.5646286 90.6417623,61.8391429 82.0741148,52 C90.6417623,42.1608571 94.2440854,32.4353714 90.5675103,26"/><path id="Fill-6" fill="#FFF" d="M45.5003753,57.2467435 C42.8828542,57.2467435 40.7532565,55.1171458 40.7532565,52.5003753 C40.7532565,49.8828542 42.8828542,47.7532565 45.5003753,47.7532565 C48.1171458,47.7532565 50.2467435,49.8828542 50.2467435,52.5003753 C50.2467435,55.1171458 48.1171458,57.2467435 45.5003753,57.2467435 M45.5003753,44 C40.8058021,44 37,47.8058021 37,52.5003753 C37,57.1949486 40.8058021,61 45.5003753,61 C50.1949486,61 54,57.1949486 54,52.5003753 C54,47.8058021 50.1949486,44 45.5003753,44"/></g></g></g></svg>