<svg xmlns="http://www.w3.org/2000/svg" xmlns:xlink="http://www.w3.org/1999/xlink" width="61" height="97" version="1.1" viewBox="0 0 61 97"><title>Technology</title><desc>Created with Sketch.</desc><g id="Everyday-Mysteries" fill="none" fill-rule="evenodd" stroke="none" stroke-width="1"><g id="Everyday-Mysteries---Home" fill="#FFF" transform="translate(-864.000000, -1996.000000)"><g id="Technology" transform="translate(864.000000, 1996.000000)"><path id="Fill-1" d="M21.4883721,85.71875 L39.5116279,85.71875 L39.5116279,82.15625 L21.4883721,82.15625 L21.4883721,85.71875 Z M36.0232558,93.4375 L24.9767442,93.4375 C23.0505814,93.4375 21.4883721,91.8420938 21.4883721,89.875 L39.5116279,89.875 C39.5116279,91.8420938 37.95,93.4375 36.0232558,93.4375 Z M42.002907,78 L18.9965116,78 C18.4488372,78 18,78.4577812 18,79.0176875 L18,90.8926875 C18,94.252125 20.6906977,97 23.9796512,97 L37.0197674,97 C40.3087209,97 43,94.252125 43,90.8926875 L43,79.0176875 C43,78.4577812 42.5517442,78 42.002907,78 Z"/><path id="Fill-3" d="M51.5079606,46.4737088 C47.13775,52.4130278 44.7486616,59.5592003 44.7486616,66.916169 C44.7486616,67.4548042 44.5347938,67.9695532 44.1531867,68.3499419 C43.7703814,68.7309278 43.2545827,68.9441127 42.7142222,68.9441127 L18.2997515,68.9441127 C17.75999,68.9441127 17.2441913,68.7309278 16.8619851,68.3499419 C16.4797789,67.9695532 16.2659111,67.4548042 16.2659111,66.916169 C16.2659111,59.5592003 13.8929976,52.4010847 9.52278698,46.4617656 C1.16277474,35.6024737 2.51367603,20.2233038 12.6373483,10.9757374 C17.699484,6.35195426 24.1035349,4.03976408 30.5069868,4.03976408 C36.9110378,4.03976408 43.3144896,6.35195426 48.3766253,10.9757374 C58.5008967,20.2233038 59.8673738,35.6144168 51.5079606,46.4737088 M51.1263534,7.98517743 C45.3004044,2.66331823 37.9024975,0 30.5069868,0 C23.1120752,0 15.7147674,2.66331823 9.88762019,7.98517743 C-1.53483437,18.4186967 -3.25536144,35.7320567 5.74325869,48.1851594 C9.93195132,53.561957 12.1970324,60.1444137 12.1970324,66.916169 C12.1970324,68.5290889 12.8410319,70.0775158 13.9846552,71.2180848 C15.1282785,72.3580567 16.6822643,73 18.2997515,73 L42.7142222,73 C44.3323084,73 45.8856951,72.3580567 47.0293184,71.2180848 C48.1741399,70.0775158 48.8181394,68.5290889 48.8181394,66.916169 C48.8181394,60.1444137 51.0592577,53.5458338 55.2473512,48.1690362 C64.2459714,35.7159334 62.5494071,18.4186967 51.1263534,7.98517743"/><path id="Fill-4" d="M30.0794275,10 C28.9307214,10 28,10.8923635 28,11.9924171 C28,13.0930574 28.9307214,13.9848342 30.0794275,13.9848342 C35.2504419,13.9848342 40.1232581,16.2881997 43.2711782,20.2190579 C43.9710562,21.0920605 45.2765153,21.2586819 46.1876426,20.5892626 C47.0987698,19.9192567 47.2683815,18.6678357 46.5697282,17.7948331 C42.6362058,12.8836072 36.5405932,10 30.0794275,10"/></g></g></g></svg>