<svg xmlns="http://www.w3.org/2000/svg" xmlns:xlink="http://www.w3.org/1999/xlink" width="109" height="94" version="1.1" viewBox="0 0 109 94"><title>Zoology</title><desc>Created with Sketch.</desc><g id="Everyday-Mysteries" fill="none" fill-rule="evenodd" stroke="none" stroke-width="1"><g id="Everyday-Mysteries---Home" fill="#FFF" transform="translate(-1038.000000, -1992.000000)"><g id="Zoology" transform="translate(1035.000000, 1992.000000)"><path id="Stroke-3" fill-rule="nonzero" d="M51.3577604,17.8281112 C49.9759175,22.1607648 49.659659,26.7922374 49.9525552,30.8130659 C49.9855816,31.2664474 50.0174822,31.5768049 50.0355461,31.7164985 C50.4671336,34.9799057 51.9324528,37.3663391 54.1406188,39.0910669 C55.081152,39.8256873 56.0966617,40.389353 57.1097849,40.7990425 C57.5905567,40.9934583 57.9696674,41.1156647 58.2030218,41.1780092 C62.4779532,41.4295431 65.3544545,40.9844003 67.0906315,40.1544734 C67.2816768,40.0631499 67.4439948,39.9737414 67.5802498,39.888202 L67.5802498,4.65972317 C58.835846,5.53998935 53.7688165,10.2684448 51.3577604,17.8281112 Z M72.0098039,41.4839186 L71.6941825,42.0142609 C71.2749111,42.7187677 70.4081515,43.5109996 68.9883462,44.1896946 C66.4856866,45.3860153 62.8155532,45.9435768 57.7385368,45.6236654 L57.5739136,45.6132922 L57.4126306,45.5784486 C56.9775871,45.4844618 56.3013326,45.2837776 55.460796,44.9438791 C54.0868186,44.3882664 52.7152278,43.6269555 51.4278005,42.6213872 C48.3356289,40.2061908 46.237696,36.7894765 45.6440235,32.3004108 C45.6146772,32.0735806 45.5742249,31.680025 45.5348986,31.1401596 C45.2039104,26.59641 45.5568676,21.4274991 47.1408451,16.4610692 C50.3013891,6.55144632 57.5978506,0.354388909 69.741024,0.0557891375 L72.0098039,0 L72.0098039,41.4839186 Z"/><path id="Stroke-1" fill-rule="nonzero" d="M73.2249411,20.1654594 L106.362375,20.1654594 C107.02587,19.9401849 107.329165,19.6689227 107.465364,19.359408 C107.567333,19.1276829 107.586336,18.8273719 107.541604,18.5428832 C105.48115,14.9945911 102.938506,12.1322603 100.017642,9.87631094 C97.1777464,7.68289746 94.1340969,6.17251883 91.09508,5.22385645 C90.0384617,4.89402149 89.062377,4.65843216 88.1943867,4.50160683 C87.7684389,4.42464813 87.4600007,4.38181547 87.2862153,4.3632762 L73.2249411,4.3632762 L73.2249411,20.1654594 Z M87.39164,0 L87.5756199,0.00753590542 C88.6064045,0.0921251072 90.2977594,0.397712966 92.4339633,1.06455239 C95.954269,2.16345432 99.4699421,3.90806969 102.75208,6.44305215 C106.197812,9.10438696 109.180038,12.4912104 111.557464,16.6718939 L111.659919,16.8520595 L111.726228,17.0479551 C111.774106,17.1893994 111.827551,17.3839686 111.87574,17.6255558 C112.094912,18.7243303 112.050104,19.9143629 111.530892,21.094279 C110.832593,22.6811697 109.401254,23.8557688 107.307748,24.4447948 L107.009407,24.5287356 L68.7941176,24.5287356 L68.7941176,0 L87.39164,0 Z"/><path id="Stroke-1" fill-rule="nonzero" d="M47.3803118,24.5287356 L48.5079182,28.8493247 C43.4794789,30.1702479 38.4626423,33.4478259 34.7768256,37.6996411 C32.6965681,40.0989883 31.03666,42.8731504 29.8794754,45.8749904 C28.0315393,50.6680202 27.2667077,55.1549898 27.9887777,58.6440825 C28.7340002,62.2471874 31.5203956,65.9118344 34.9799046,67.9674411 C40.02789,70.9675645 47.2649327,70.9985097 52.1936005,68.0124213 C61.6408208,62.2890896 67.266408,51.7861393 67.5594812,40.0237682 L72.0098039,40.1353781 C71.680056,53.3696739 65.2933229,65.2936807 54.4948252,71.8356457 C48.1500086,75.6797238 39.1573689,75.6412716 32.7111757,71.8101641 C28.214867,69.1385011 24.6404716,64.4374823 23.6299699,59.551768 C22.699927,55.0577361 23.5985782,49.785699 25.7275034,44.263862 C27.0697997,40.7818259 28.9972545,37.5605196 31.4178862,34.7685884 C35.6707759,29.8626198 41.4509982,26.0863099 47.3803118,24.5287356 Z"/><path id="Stroke-1" fill-rule="nonzero" d="M15.261171,91.9258598 C15.2403012,92.3642073 15.2178517,92.7508616 15.1952738,93.0828186 C15.1814161,93.2865643 15.1703338,93.4295535 15.1634758,93.5087782 L11.4045184,93.1499012 C11.4091978,93.0958436 11.4183059,92.9783267 11.4304075,92.8004005 C11.4510949,92.4962377 11.4719107,92.1377231 11.4914219,91.7279108 C11.8521072,84.1520956 11.309286,75.0309861 9.14563181,65.9419308 L8.8627451,64.7535833 L9.74832057,63.9564156 C10.3092173,63.4515137 11.2752395,62.7536316 12.5988489,62.0681269 C17.8550943,59.3458884 23.8827592,59.3458884 29.9478477,63.8420341 L31.0196078,64.6365467 L30.6839087,65.9684037 C30.6524437,66.0932382 30.5922384,66.3362189 30.5074065,66.6852266 C30.3653204,67.2697836 30.2068118,67.9362139 30.0359966,68.672376 C29.5476437,70.7770297 29.0592086,73.0157855 28.6036587,75.2909255 C28.2089738,77.2620893 27.8573487,79.1709605 27.5600127,80.9836006 C26.6589227,86.4768858 26.3202855,90.7181736 26.6829687,93.003507 L22.9598659,93.6551724 C22.5050699,90.7894191 22.8688635,86.2330588 23.8403443,80.3106518 C24.1460235,78.44715 24.5062875,76.4913801 24.9099803,74.4752288 C25.3743594,72.1559935 25.8715625,69.8770492 26.3688478,67.7338994 C26.484071,67.2373221 26.5938952,66.7714727 26.6971339,66.3398295 C22.2623657,63.5106299 18.0649342,63.6569399 14.2682635,65.6232567 C13.8474813,65.8411821 13.4605533,66.069395 13.1106157,66.2993797 C15.1242625,75.3757148 15.6214377,84.3588381 15.261171,91.9258598 Z" transform="translate(19.941176, 76.931034) rotate(221.000000) translate(-19.941176, -76.931034)"/><path id="Fill-65" d="M44.8676471,85.8505747 C43.3377157,85.8505747 42.0980392,84.8520322 42.0980392,83.6206897 L42.0980392,74.7011494 C42.0980392,73.4693609 43.3377157,72.4712644 44.8676471,72.4712644 C46.3975784,72.4712644 47.6372549,73.4693609 47.6372549,74.7011494 L47.6372549,83.6206897 C47.6372549,84.8520322 46.3975784,85.8505747 44.8676471,85.8505747"/><path id="Fill-65" d="M47.0833333,94.7701149 C45.553402,94.7701149 44.3137255,93.4387249 44.3137255,91.7969349 L44.3137255,79.9042146 C44.3137255,78.2618299 45.553402,76.9310345 47.0833333,76.9310345 C48.6132647,76.9310345 49.8529412,78.2618299 49.8529412,79.9042146 L49.8529412,91.7969349 C49.8529412,93.4387249 48.6132647,94.7701149 47.0833333,94.7701149" transform="translate(47.083333, 85.850575) rotate(-270.000000) translate(-47.083333, -85.850575)"/><ellipse id="Oval-2" cx="61.485" cy="11.707" rx="2.77" ry="2.787"/></g></g></g></svg>